<svg width="16" height="18" viewBox="0 0 16 18" fill="none" xmlns="http://www.w3.org/2000/svg">
<path fill-rule="evenodd" clip-rule="evenodd" d="M8.31126 16.832C8.11235 17.056 7.76252 17.056 7.56361 16.832L1.12911 9.58787C0.84266 9.26538 1.07159 8.75582 1.50293 8.75582H3.93757C4.21371 8.75582 4.43757 8.53196 4.43757 8.25582V2.00576C4.43757 1.72962 4.66143 1.50576 4.93757 1.50576H10.9376C11.2137 1.50576 11.4376 1.72962 11.4376 2.00576V8.25582C11.4376 8.53196 11.6614 8.75582 11.9376 8.75582H14.3719C14.8033 8.75582 15.0322 9.26538 14.7458 9.58787L8.31126 16.832L8.68509 17.1641L8.31126 16.832ZM6.81596 17.4961C7.41269 18.168 8.46218 18.168 9.05892 17.4961L15.4934 10.252C16.3528 9.28448 15.666 7.75582 14.3719 7.75582H12.4376V2.00576C12.4376 1.17733 11.766 0.505764 10.9376 0.505764H4.93757C4.10914 0.505764 3.43757 1.17734 3.43757 2.00576V7.75582H1.50293C0.208922 7.75582 -0.477888 9.28448 0.381452 10.252L6.81596 17.4961Z" fill="white"/>
</svg>
