<svg width="71" height="97" viewBox="0 0 71 97" fill="none" xmlns="http://www.w3.org/2000/svg">
<g clip-path="url(#clip0_28_1113)">
<path d="M2.2563 76.8407C3.1022 69.2784 9.49624 63.5597 17.1058 63.5597H38.6482C46.2577 63.5597 52.6518 69.2784 53.4977 76.8408L55.754 97.0121H0L2.2563 76.8407Z" fill="#DA75FD"/>
<mask id="mask0_28_1113" style="mask-type:alpha" maskUnits="userSpaceOnUse" x="0" y="63" width="56" height="35">
<path d="M2.2563 76.8407C3.1022 69.2784 9.49624 63.5597 17.1058 63.5597H38.6482C46.2577 63.5597 52.6518 69.2784 53.4977 76.8408L55.754 97.0121H0L2.2563 76.8407Z" fill="#00D355"/>
</mask>
<g mask="url(#mask0_28_1113)">
<path d="M3.59444 76.8407C4.44034 69.2784 10.8344 63.5597 18.4439 63.5597H39.9864C47.5959 63.5597 53.9899 69.2784 54.8358 76.8408L57.0921 97.0121H1.33813L3.59444 76.8407Z" fill="#A10CD6"/>
<path d="M4.93233 76.8407C5.77823 69.2784 12.1723 63.5597 19.7818 63.5597H41.3242C48.9338 63.5597 55.3278 69.2784 56.1737 76.8408L58.43 97.0121H2.67603L4.93233 76.8407Z" fill="url(#paint0_linear_28_1113)"/>
</g>
<path fill-rule="evenodd" clip-rule="evenodd" d="M41.9269 83.6311C42.2964 83.6311 42.5959 83.9306 42.5959 84.3002V97.0121C42.5959 97.3816 42.2964 97.6811 41.9269 97.6811C41.5574 97.6811 41.2578 97.3816 41.2578 97.0121V84.3002C41.2578 83.9306 41.5574 83.6311 41.9269 83.6311Z" fill="url(#paint1_linear_28_1113)"/>
<path fill-rule="evenodd" clip-rule="evenodd" d="M13.669 83C14.0386 83 14.3381 83.2995 14.3381 83.669V96.381C14.3381 96.7505 14.0386 97.05 13.669 97.05C13.2995 97.05 13 96.7505 13 96.381V83.669C13 83.2995 13.2995 83 13.669 83Z" fill="url(#paint2_linear_28_1113)"/>
</g>
<path d="M51.604 22.7694C55.7914 34.9027 80.6475 62.4279 55.3964 69.5704C31.5706 76.3097 19.8021 52.2112 15.6147 40.0779C11.4273 27.9446 10.6679 10.7329 26.6662 7.55269C31.8873 4.50407 47.1346 9.81915 51.604 22.7694Z" fill="#5236FF"/>
<path d="M49.0307 30.0722C52.2264 39.332 68.0433 61.6904 49.0307 68.7354C32.5274 74.8507 21.9972 54.5481 21.2065 43.4049C18.0108 34.1451 17.4754 20.9944 29.8309 18.5171C33.869 16.1721 45.6198 20.189 49.0307 30.0722Z" fill="#4021FE"/>
<path d="M43.9135 34.7346C43.9135 48.6774 38.2418 45.4975 27.0163 45.4975C12.8129 52.8358 10.3641 42.479 10.3641 33.0223C7.91519 23.4825 12.568 12.4751 27.0163 12.4751C49.5459 14.9212 46.1175 30.087 43.9135 34.7346Z" fill="#5236FF"/>
<path d="M24.323 51.368H30.2002L31.7477 63.3902C32.0959 66.0952 29.9889 68.4907 27.2616 68.4907C24.5343 68.4907 22.4273 66.0952 22.7755 63.3902L24.323 51.368Z" fill="#FBC6D7"/>
<mask id="mask1_28_1113" style="mask-type:alpha" maskUnits="userSpaceOnUse" x="22" y="51" width="10" height="18">
<path d="M24.323 51.368H30.2002L31.7477 63.3902C32.0959 66.0952 29.9889 68.4907 27.2616 68.4907C24.5343 68.4907 22.4273 66.0952 22.7755 63.3902L24.323 51.368Z" fill="#FF7CA6"/>
</mask>
<g mask="url(#mask1_28_1113)">
<path d="M24.5677 51.368H30.445L31.1797 55.2818C29.1756 58.3915 26.5268 58.7063 22.6086 59.6848L24.5677 51.368Z" fill="#FF7CA6"/>
</g>
<path d="M13.8435 36.5329C14.417 38.3358 13.7326 40.1611 12.3148 40.6097C10.8969 41.0583 9.28264 39.9605 8.70911 38.1576C8.13559 36.3546 8.82003 34.5294 10.2378 34.0808C11.6557 33.6321 13.27 34.73 13.8435 36.5329Z" fill="#FBC6D7"/>
<path d="M13.26 36.7354C13.6337 37.9113 13.1429 39.116 12.1637 39.4262C11.1845 39.7363 10.0878 39.0345 9.71417 37.8586C9.34051 36.6827 9.83137 35.4781 10.8105 35.1679C11.7897 34.8578 12.8864 35.5596 13.26 36.7354Z" fill="#FF7CA6"/>
<path d="M41.0318 37.5113C40.4582 39.3142 41.1427 41.1395 42.5605 41.5881C43.9783 42.0367 45.5926 40.9389 46.1661 39.1359C46.7397 37.333 46.0552 35.5078 44.6374 35.0591C43.2196 34.6105 41.6053 35.7084 41.0318 37.5113Z" fill="#FBC6D7"/>
<path d="M41.6152 37.7138C41.2415 38.8897 41.7324 40.0944 42.7116 40.4045C43.6907 40.7147 44.7874 40.0129 45.1611 38.837C45.5347 37.6611 45.0439 36.4565 44.0647 36.1463C43.0855 35.8361 41.9889 36.538 41.6152 37.7138Z" fill="#FF7CA6"/>
<path d="M41.9548 38.6483C41.9548 48.105 35.3764 55.7711 27.2616 55.7711C19.1467 55.7711 12.5684 48.105 12.5684 38.6483C12.5684 29.1917 19.1467 21.5256 27.2616 21.5256C35.3764 21.5256 41.9548 29.1917 41.9548 38.6483Z" fill="#FBC6D7"/>
<mask id="mask2_28_1113" style="mask-type:alpha" maskUnits="userSpaceOnUse" x="12" y="21" width="30" height="35">
<path d="M41.9548 38.6483C41.9548 48.105 35.3764 55.7711 27.2616 55.7711C19.1467 55.7711 12.5684 48.105 12.5684 38.6483C12.5684 29.1917 19.1467 21.5256 27.2616 21.5256C35.3764 21.5256 41.9548 29.1917 41.9548 38.6483Z" fill="#FBC6D7"/>
</mask>
<g mask="url(#mask2_28_1113)">
<path d="M41.9273 46.1642C41.9273 48.3812 40.13 50.1785 37.913 50.1785C35.6959 50.1785 33.8987 48.3812 33.8987 46.1642C33.8987 43.9472 35.6959 42.1499 37.913 42.1499C40.13 42.1499 41.9273 43.9472 41.9273 46.1642Z" fill="#FF5E5E"/>
<path d="M21.1873 46.1642C21.1873 48.3812 19.39 50.1785 17.173 50.1785C14.9559 50.1785 13.1587 48.3812 13.1587 46.1642C13.1587 43.9472 14.9559 42.1499 17.173 42.1499C19.39 42.1499 21.1873 43.9472 21.1873 46.1642Z" fill="#FF5E5E"/>
</g>
<path fill-rule="evenodd" clip-rule="evenodd" d="M30.2679 49.9503C30.3939 50.1619 30.3246 50.4356 30.1129 50.5617C29.1377 51.1427 28.3066 51.5026 27.4384 51.5162C26.5626 51.53 25.7258 51.1912 24.7366 50.5534C24.5296 50.4199 24.47 50.1438 24.6035 49.9368C24.7369 49.7298 25.013 49.6702 25.22 49.8037C26.1477 50.4018 26.8055 50.634 27.4244 50.6243C28.051 50.6144 28.7146 50.3563 29.6564 49.7953C29.868 49.6693 30.1418 49.7386 30.2679 49.9503Z" fill="#FF7FA8"/>
<path d="M21.6332 38.5817C21.6332 39.6902 21.134 40.5889 20.5182 40.5889C19.9023 40.5889 19.4031 39.6902 19.4031 38.5817C19.4031 37.4732 19.9023 36.5746 20.5182 36.5746C21.134 36.5746 21.6332 37.4732 21.6332 38.5817Z" fill="#361AE7"/>
<path d="M35.0143 38.5817C35.0143 39.6902 34.5151 40.5889 33.8993 40.5889C33.2834 40.5889 32.7842 39.6902 32.7842 38.5817C32.7842 37.4732 33.2834 36.5746 33.8993 36.5746C34.5151 36.5746 35.0143 37.4732 35.0143 38.5817Z" fill="#361AE7"/>
<path fill-rule="evenodd" clip-rule="evenodd" d="M26.6509 37.3551C26.8972 37.3551 27.0969 37.5548 27.0969 37.8011V43.9613L29.1391 43.6061C29.3818 43.5639 29.6128 43.7265 29.655 43.9692C29.6972 44.2119 29.5347 44.4428 29.292 44.485L26.7273 44.931C26.5976 44.9536 26.4645 44.9177 26.3638 44.833C26.263 44.7482 26.2048 44.6233 26.2048 44.4916V37.8011C26.2048 37.5548 26.4045 37.3551 26.6509 37.3551Z" fill="#FF7FA8"/>
<path d="M12.7122 28.6716C12.7122 27.3119 13.9213 26.2709 15.2693 26.4488C24.469 27.6624 30.6274 27.6834 40.04 26.4473C41.3877 26.2703 42.5963 27.3111 42.5963 28.6704V31.3116C42.5963 32.3965 41.8125 33.3263 40.7418 33.501C30.4471 35.1805 24.1305 35.2509 14.5228 33.5271C13.4715 33.3384 12.7122 32.4174 12.7122 31.3493V28.6716Z" fill="white"/>
<mask id="mask3_28_1113" style="mask-type:alpha" maskUnits="userSpaceOnUse" x="12" y="26" width="31" height="9">
<path d="M12.7122 28.6716C12.7122 27.3119 13.9213 26.2709 15.2693 26.4488C24.469 27.6624 30.6274 27.6834 40.04 26.4473C41.3877 26.2703 42.5963 27.3111 42.5963 28.6704V31.3116C42.5963 32.3965 41.8125 33.3263 40.7418 33.501C30.4471 35.1805 24.1305 35.2509 14.5228 33.5271C13.4715 33.3384 12.7122 32.4174 12.7122 31.3493V28.6716Z" fill="white"/>
</mask>
<g mask="url(#mask3_28_1113)">
<path d="M19.1474 38.7524C17.8145 37.2821 18.9854 34.8167 20.9655 34.684C33.4438 33.8473 42.7336 27.0068 47.5907 26.3796C52.0774 25.8002 50.2682 30.6917 49.4087 32.5902C49.1914 33.0701 48.7827 33.4316 48.2926 33.6246C37.6987 37.7973 31.3924 39.218 20.8031 39.4663C20.174 39.481 19.5701 39.2186 19.1474 38.7524Z" fill="#E9E9E9"/>
</g>
<path d="M13.3027 31.7994C13.7925 31.5547 16.4863 24.461 24.8124 21.7703C28.0776 26.2549 35.9792 35.175 41.4647 34.9793C43.1789 30.9025 44.3544 22.3085 35.3425 20.5473C24.0777 18.3458 13.3027 20.0581 13.3027 25.9287V31.7994Z" fill="#5236FF"/>
<defs>
<linearGradient id="paint0_linear_28_1113" x1="24.8661" y1="104.595" x2="34.2328" y2="63.5597" gradientUnits="userSpaceOnUse">
<stop stop-color="#8300D3"/>
<stop offset="1" stop-color="#E43FFF"/>
</linearGradient>
<linearGradient id="paint1_linear_28_1113" x1="41.9269" y1="97.0121" x2="41.9269" y2="84.3002" gradientUnits="userSpaceOnUse">
<stop stop-color="#FF77FA"/>
<stop offset="1" stop-color="#FF77E9" stop-opacity="0"/>
</linearGradient>
<linearGradient id="paint2_linear_28_1113" x1="13.669" y1="96.381" x2="13.669" y2="83.669" gradientUnits="userSpaceOnUse">
<stop stop-color="#FF77FA"/>
<stop offset="1" stop-color="#FF77E9" stop-opacity="0"/>
</linearGradient>
<clipPath id="clip0_28_1113">
<rect width="55.754" height="33.4524" fill="white" transform="translate(0 63.5597)"/>
</clipPath>
</defs>
</svg>
