<svg width="567" height="1012" viewBox="0 0 567 1012" fill="none" xmlns="http://www.w3.org/2000/svg">
<path d="M79.9999 956.5C97.4999 953 117 956.5 241.5 956.5C366 956.5 437.5 952.5 472 947C506.5 941.5 583.5 954.5 562.5 973C541.5 991.5 336 1018 301 1003C266 988 -7.00013 1020 14.9999 983.5C32.5999 954.3 65.6665 953.333 79.9999 956.5Z" fill="black" fill-opacity="0.13"/>
<g clip-path="url(#clip0_30_459)">
<path d="M186.668 228.707C184.15 230.13 181.575 230.311 180.893 229.116L173.437 215.966C172.755 214.771 174.246 212.652 176.755 211.224C179.274 209.801 181.862 209.616 182.535 210.806L189.991 223.956C190.673 225.151 189.178 227.279 186.668 228.707Z" fill="#2B242A"/>
<path d="M177.251 208.815C177.251 208.815 174.026 212.6 179.055 221.466C184.084 230.332 188.994 229.507 188.994 229.507C188.994 229.507 246.382 193.997 254.004 189.682C261.627 185.367 254.498 169.111 245.302 174.334C236.106 179.558 177.251 208.815 177.251 208.815Z" fill="#BC7BFB"/>
<g style="mix-blend-mode:soft-light">
<path d="M188.156 227.612C198.08 221.476 244.51 192.796 251.308 188.933L251.45 188.847C244.253 184.765 187.417 225.943 188.156 227.612Z" fill="white"/>
</g>
<g style="mix-blend-mode:multiply">
<path d="M188.826 225.98C187.727 222.261 187.512 218.398 189.209 214.797C191.356 210.214 195.114 206.659 198.933 203.435C207.972 195.816 217.545 189.262 229.219 186.543C237.817 184.548 247.274 184.292 255.047 188.925C260.929 183.774 254.03 169.382 245.302 174.334C236.115 179.54 177.256 208.806 177.256 208.806C177.256 208.806 174.031 212.591 179.06 221.457C184.088 230.323 188.999 229.498 188.999 229.498L189.948 228.907C189.503 227.96 189.128 226.982 188.826 225.98Z" fill="#BC7BFB"/>
</g>
<g style="mix-blend-mode:soft-light">
<g style="mix-blend-mode:soft-light">
<path d="M193.415 226.781L176.78 216.197C177.109 217.339 177.534 218.451 178.051 219.522L191.401 228.018C191.958 227.701 192.653 227.241 193.415 226.781Z" fill="white"/>
</g>
<g style="mix-blend-mode:soft-light">
<path d="M201.735 221.639L179.668 207.598L177.439 208.729L199.712 222.894C200.376 222.474 201.048 222.058 201.735 221.639Z" fill="white"/>
</g>
<g style="mix-blend-mode:soft-light">
<path d="M212.791 214.813L191.882 201.521C191.12 201.893 190.397 202.272 189.653 202.652L210.772 216.081L212.791 214.813Z" fill="white"/>
</g>
<g style="mix-blend-mode:soft-light">
<path d="M223.86 208.005L204.029 195.4L201.809 196.536L221.797 209.251L223.86 208.005Z" fill="white"/>
</g>
<g style="mix-blend-mode:soft-light">
<path d="M234.948 201.205L216.279 189.319L214.059 190.454L232.902 202.416L234.948 201.205Z" fill="white"/>
</g>
<g style="mix-blend-mode:soft-light">
<path d="M246.062 194.419L228.337 183.198C227.614 183.556 226.865 183.922 226.125 184.338L244.039 195.652L246.062 194.419Z" fill="white"/>
</g>
<g style="mix-blend-mode:soft-light">
<path d="M252.796 184.85L240.394 176.966L238.209 178.119L255.019 188.8L252.796 184.85Z" fill="white"/>
</g>
</g>
<path d="M264.162 182.937C272.658 178.116 341.75 178.987 360.559 179.616C356.89 174.619 317.755 161.755 317.755 161.755C317.755 161.755 325.317 169.328 313.867 169.873C298.165 170.63 279.884 170.964 276.235 171.038C270.435 171.135 269.872 168.115 272.364 164.303C273.875 161.982 283.637 146.313 292.884 132.866C297.523 126.122 301.933 133.981 301.933 133.981C301.933 133.981 316.701 79.285 308.49 87.8029C299.034 107.535 265.324 163.521 256.106 168.722C246.887 173.923 255.661 187.745 264.162 182.937Z" fill="#352E35"/>
<path d="M352.134 52.8103C389.176 31.8003 432.821 38.7928 449.638 68.4402C465.569 96.5364 451.623 134.926 418.588 156.696C419.972 158.615 421.548 160.484 422.731 162.517C459.643 138.198 475.164 95.3897 457.394 64.0349C438.647 30.973 389.949 23.151 348.618 46.5964C343.747 49.3505 339.101 52.4848 334.724 55.97C336.13 57.911 337.643 59.773 339.255 61.5475C343.304 58.2912 347.611 55.3692 352.134 52.8103Z" fill="#BC7BFB"/>
<path d="M456.1 97.745L454.45 98.6714L450.678 92.0967L455.996 89.0427C455.957 88.5778 455.905 88.1175 455.853 87.6571L450.063 90.9464L446.313 84.3716L452.924 80.6169L455.499 85.1413C455.267 83.7786 454.991 82.4386 454.662 81.0943L454.078 80.0154L454.373 79.8483C454.258 79.4241 454.14 79.0088 454.025 78.5623L453.468 78.8786L449.713 72.268L451.247 71.4183L450.69 70.2856L449.13 71.1891L445.38 64.5696L446.713 63.8105L445.96 62.7818L444.752 63.4685L441.378 57.625C440.406 56.6557 439.394 55.7224 438.302 54.8163L439.134 56.341L432.514 60.0913L428.818 53.4535L433.195 50.973C432.8 50.7114 432.396 50.4454 431.992 50.2018L428.199 52.3569L424.828 46.415C424.057 46.0348 423.245 45.7354 422.443 45.4181L416.113 48.9877L412.359 42.3771L410.478 41.9855L403.997 45.6813L401.259 40.8537L399.751 40.7685L402.918 46.2644L396.298 50.0147L392.548 43.3951L397.327 40.6886C396.463 40.6757 395.605 40.6762 394.737 40.6947L391.876 42.3167L391.044 40.8591L389.654 40.9656L390.775 42.9447L384.155 46.695L381.516 42.0502L380.203 42.2948L383.05 47.3319L376.47 51.0685L372.72 44.449L373.928 43.7622C372.057 44.2784 370.182 44.8483 368.33 45.4627L364.385 47.6993L364.033 47.1691L362.828 47.6904L363.271 48.466L356.655 52.1178L355.896 50.785C355.513 50.9751 355.141 51.1636 354.782 51.3505L355.554 52.7235L348.953 56.4602L348.198 55.1408L347.129 55.8178L347.843 57.0838L341.232 60.8384L340.853 60.2726C340.51 60.5385 340.172 60.7953 339.838 61.0656L340.082 61.498L337.546 62.9348C335.994 64.2586 334.499 65.6253 333.061 67.035L336.78 73.6055L330.16 77.3557L327.585 72.809C327.287 73.1416 326.994 73.4877 326.714 73.8292L329.064 77.9747L322.471 81.7382L321.717 80.4188C321.455 80.8139 321.185 81.2045 320.923 81.5996L321.361 82.3618L319.904 83.1931C319.443 83.9248 319 84.6653 318.566 85.4101L321.989 83.4628L325.739 90.0824L319.084 93.8149L316.454 89.1745C316.229 89.632 316.012 90.0715 315.778 90.547L317.992 94.4473L312.888 97.3391C312.545 98.2847 312.219 99.2392 311.903 100.198L315.305 106.189L309.693 109.365C309.607 109.903 309.538 110.404 309.452 110.963L315.924 107.286L319.683 113.91L313.064 117.66L309.413 111.223C309.319 111.935 309.233 112.651 309.184 113.34L311.967 118.256L308.887 119.983C308.898 120.457 308.91 120.931 308.931 121.409L312.568 119.344L316.318 125.964L309.917 129.587C310.315 131.534 310.823 133.455 311.44 135.343L312.976 138.063L312.517 138.316L313.038 139.52L313.64 139.181L317.39 145.801L316.561 146.262C316.782 146.627 317.008 146.984 317.247 147.336L318.018 146.902L321.271 152.652C322.393 153.94 323.581 155.169 324.83 156.334L323.497 153.994L330.117 150.244L333.858 156.859L328.812 159.724C329.172 160.012 329.54 160.283 329.917 160.558L334.531 157.982L338.281 164.602L337.381 165.117L338.753 165.793L338.909 165.703L339.04 165.935C339.686 166.253 340.332 166.571 341.009 166.827L340.01 165.075L346.63 161.325L350.38 167.944L347.937 169.327C348.511 169.498 349.075 169.665 349.648 169.813L351.008 169.045L351.749 170.347L353.415 170.722L352.06 168.359L358.015 164.984L361.765 171.604L361.315 171.861C362.062 171.928 362.809 171.996 363.565 172.045L370.1 168.331L372.251 172.133L373.673 172.054L371.188 167.752L377.808 164.002L381.183 169.957L378.094 171.701C379.26 171.596 380.337 171.425 381.472 171.248L381.797 171.063L381.87 171.188L383.197 170.961L382.898 170.435L389.518 166.685L390.964 169.225L392.245 168.887L390.646 166.07L397.265 162.32L399.601 166.447L400.797 165.989L398.366 161.692L404.986 157.941L407.792 162.903L408.925 162.346L406.078 157.331L412.698 153.581L415.562 158.65L416.645 157.99L413.794 152.962L420.414 149.212L422.949 153.683C423.296 153.43 423.634 153.174 423.973 152.917L421.515 148.584L428.134 144.834L429.941 147.954C430.266 147.657 430.577 147.364 430.898 147.076L429.258 144.183L435.877 140.433L436.487 141.458C436.794 141.13 437.082 140.793 437.38 140.46L437.023 139.827L438.753 138.851C439.476 137.97 440.191 137.085 440.879 136.187L436.395 138.726L433.02 132.771L439.568 128.985L442.405 133.995C442.68 133.618 442.951 133.228 443.217 132.846L440.669 128.357L447.288 124.607L447.772 125.458C447.993 125.01 448.214 124.561 448.435 124.113L448.353 123.961L448.581 123.839C448.917 123.157 449.248 122.485 449.58 121.812L447.725 122.86L443.975 116.241L450.595 112.49L452.257 115.428C452.451 114.899 452.636 114.366 452.807 113.837L451.696 111.862L453.8 110.67C453.957 110.101 454.11 109.518 454.255 108.954L451.081 110.735L447.331 104.115L453.973 100.409L455.496 103.111C455.612 102.421 455.707 101.732 455.797 101.029L455.078 99.7724L455.979 99.2573C456.025 98.7562 456.071 98.255 456.1 97.745ZM337.89 72.9372L334.139 66.3176L340.759 62.5674L344.509 69.187L337.89 72.9372ZM345.619 68.5634L341.869 61.9438L348.489 58.1936L352.239 64.8131L345.619 68.5634ZM353.349 64.1896L349.598 57.57L356.218 53.8198L359.968 60.4393L353.349 64.1896ZM361.078 59.8158L357.324 53.2052L363.943 49.455L367.698 56.0655L361.078 59.8158ZM368.803 55.4509L364.991 48.8451L371.61 45.0949L375.36 51.7145L368.803 55.4509ZM326.872 89.4139L323.05 82.8261L329.669 79.0759L333.424 85.6865L326.872 89.4139ZM334.597 85.0491L330.779 78.4523L337.399 74.7021L341.149 81.3216L334.597 85.0491ZM342.326 80.6753L338.509 74.0785L345.129 70.3283L348.879 76.9478L342.326 80.6753ZM350.056 76.3015L346.238 69.7047L352.858 65.9544L356.608 72.574L350.056 76.3015ZM357.785 71.9277L353.968 65.3309L360.588 61.5806L364.338 68.2002L357.785 71.9277ZM365.515 67.5538L361.693 60.966L368.313 57.2158L372.067 63.8264L365.515 67.5538ZM373.244 63.18L369.49 56.5695L376.109 52.8192L379.864 59.4298L373.244 63.18ZM380.969 58.8152L377.219 52.1957L383.839 48.4454L387.589 55.065L380.969 58.8152ZM388.699 54.4414L384.949 47.8218L391.568 44.0716L395.318 50.6912L388.699 54.4414ZM316.406 105.539L312.656 98.9191L318.611 95.5439L322.361 102.163L316.406 105.539ZM323.462 101.535L319.712 94.9159L326.332 91.1657L330.082 97.7852L323.462 101.535ZM331.192 97.1616L327.437 90.5511L334.057 86.8008L337.811 93.4114L331.192 97.1616ZM338.917 92.7968L335.167 86.1773L341.786 82.427L345.536 89.0466L338.917 92.7968ZM346.646 88.423L342.896 81.8035L349.516 78.0532L353.266 84.6728L346.646 88.423ZM354.376 84.0492L350.626 77.4296L357.245 73.6794L360.995 80.2989L354.376 84.0492ZM362.105 79.6754L358.355 73.0558L364.975 69.3056L368.725 75.9251L362.105 79.6754ZM369.835 75.3016L366.08 68.691L372.7 64.9408L376.454 71.5513L369.835 75.3016ZM377.564 70.9277L373.81 64.3172L380.429 60.567L384.139 67.1107L377.564 70.9277ZM385.29 66.5629L381.539 59.9434L388.159 56.1931L391.909 62.8127L385.29 66.5629ZM393.019 62.1891L389.269 55.5696L395.888 51.8193L399.639 58.4389L393.019 62.1891ZM400.749 57.8153L396.926 51.1157L403.546 47.3654L407.292 53.994L400.749 57.8153ZM408.478 53.4415L404.728 46.8219L411.347 43.0717L415.098 49.6913L408.478 53.4415ZM320.784 113.259L317.034 106.64L323.007 103.273L326.757 109.893L320.784 113.259ZM327.858 109.265L324.108 102.645L330.737 98.8995L334.487 105.519L327.858 109.265ZM335.588 104.891L331.833 98.2805L338.462 94.5347L342.216 101.145L335.588 104.891ZM343.322 100.508L339.572 93.8887L346.191 90.1608L349.942 96.7804L343.322 100.508ZM351.051 96.1344L347.301 89.5149L353.921 85.7647L357.671 92.3842L351.051 96.1344ZM358.781 91.7606L355.031 85.1411L361.641 81.3864L365.4 88.0104L358.781 91.7606ZM366.51 87.3868L362.76 80.7673L369.371 77.0126L373.13 83.6366L366.51 87.3868ZM374.24 83.013L370.485 76.4024L377.105 72.6522L380.859 79.2628L374.24 83.013ZM381.969 78.6392L378.215 72.0286L384.825 68.274L388.589 74.889L381.969 78.6392ZM389.695 74.2744L385.944 67.6548L392.555 63.9002L396.305 70.5197L389.695 74.2744ZM397.424 69.9005L393.674 63.281L400.284 59.5264L404.035 66.1459L397.424 69.9005ZM405.154 65.5267L401.3 58.8452L407.911 55.0905L411.657 61.719L405.154 65.5267ZM412.883 61.1529L409.133 54.5334L415.743 50.7787L419.494 57.3983L412.883 61.1529ZM420.613 56.7791L416.858 50.1685L423.469 46.4139L427.223 53.0245L420.613 56.7791ZM317.567 125.397L313.817 118.778L320.437 115.028L324.017 121.586L317.567 125.397ZM325.297 121.024L321.556 114.409L327.511 111.033L331.252 117.648L325.297 121.024ZM332.362 117.025L328.442 110.344L335.052 106.589L338.802 113.209L332.362 117.025ZM340.092 112.651L336.167 105.979L342.777 102.224L346.532 108.835L340.092 112.651ZM347.821 108.277L343.896 101.605L350.507 97.8504L354.261 104.461L347.821 108.277ZM355.546 103.912L351.626 97.2313L358.236 93.4766L361.987 100.096L355.546 103.912ZM363.276 99.5386L359.355 92.8575L365.966 89.1028L369.725 95.6821L363.276 99.5386ZM371.005 95.1648L367.085 88.4837L373.695 84.729L377.446 91.3485L371.005 95.1648ZM378.735 90.791L374.81 84.1188L381.42 80.3642L385.175 86.9747L378.735 90.791ZM386.464 86.4172L382.557 79.7091L389.168 75.9545L392.878 82.5653L386.464 86.4172ZM394.189 82.0524L390.269 75.3712L396.879 71.6165L400.634 78.2271L394.189 82.0524ZM401.919 77.6785L398.169 71.059L404.788 67.3088L408.538 73.9283L401.919 77.6785ZM409.648 73.3047L405.665 66.5703L412.285 62.82L416.03 69.4486L409.648 73.3047ZM417.378 68.9309L413.628 62.3114L420.247 58.5612L423.997 65.1807L417.378 68.9309ZM425.107 64.5571L421.353 57.9465L427.972 54.1963L431.727 60.8069L425.107 64.5571ZM314.091 137.452L310.34 130.833L316.96 127.083L320.71 133.702L314.091 137.452ZM321.82 133.079L318.07 126.459L324.689 122.709L328.44 129.328L321.82 133.079ZM329.55 128.705L325.781 122.076L331.737 118.701L335.487 125.321L329.55 128.705ZM336.615 124.706L332.865 118.086L339.475 114.332L343.225 120.951L336.615 124.706ZM344.344 120.332L340.599 113.726L347.209 109.971L350.964 116.582L344.344 120.332ZM352.074 115.958L348.319 109.348L354.939 105.598L358.693 112.208L352.074 115.958ZM359.799 111.593L356.049 104.974L362.668 101.224L366.419 107.843L359.799 111.593ZM367.529 107.22L363.742 100.538L370.353 96.7831L374.099 103.412L367.529 107.22ZM375.258 102.846L371.508 96.2263L378.127 92.4761L381.878 99.0956L375.258 102.846ZM382.988 98.472L379.237 91.8525L385.852 88.1112L389.607 94.7218L382.988 98.472ZM390.717 94.0982L386.886 87.4165L393.506 83.6663L397.251 90.2948L390.717 94.0982ZM398.442 89.7334L394.692 83.1138L401.311 79.3636L405.066 85.9742L398.442 89.7334ZM406.172 85.3596L402.421 78.74L409.041 74.9898L412.791 81.6093L406.172 85.3596ZM413.901 80.9858L410.039 74.2998L416.658 70.5496L420.404 77.1781L413.901 80.9858ZM421.631 76.6119L417.88 69.9924L424.5 66.2422L428.25 72.8617L421.631 76.6119ZM429.36 72.2381L425.606 65.6276L432.225 61.8773L435.98 68.4879L429.36 72.2381ZM437.09 67.8643L433.192 61.183L439.811 57.4328L443.557 64.0613L437.09 67.8643ZM318.469 145.173L314.719 138.553L321.338 134.803L325.088 141.423L318.469 145.173ZM326.198 140.799L322.448 134.18L329.068 130.429L332.818 137.049L326.198 140.799ZM333.928 136.425L330.178 129.806L336.133 126.431L339.883 133.05L333.928 136.425ZM340.984 132.422L337.234 125.803L343.853 122.052L347.604 128.672L340.984 132.422ZM348.714 128.048L344.959 121.438L351.579 117.687L355.333 124.298L348.714 128.048ZM356.439 123.683L352.689 117.064L359.308 113.314L363.063 119.924L356.439 123.683ZM364.168 119.31L360.418 112.69L367.038 108.94L370.788 115.559L364.168 119.31ZM371.898 114.936L368.107 108.263L374.727 104.513L378.472 111.141L371.898 114.936ZM379.627 110.562L375.877 103.942L382.497 100.192L386.247 106.812L379.627 110.562ZM387.357 106.188L383.607 99.5686L390.222 95.8274L393.976 102.438L387.357 106.188ZM395.086 101.814L391.26 95.1461L397.879 91.3958L401.625 98.0243L395.086 101.814ZM402.811 97.4495L399.061 90.83L405.681 87.0797L409.431 93.6993L402.811 97.4495ZM410.541 93.0757L406.791 86.4562L413.41 82.7059L417.16 89.3255L410.541 93.0757ZM418.27 88.7019L414.413 82.0293L421.032 78.2791L424.778 84.9076L418.27 88.7019ZM426 84.3281L422.25 77.7085L428.869 73.9583L432.62 80.5778L426 84.3281ZM433.729 79.9543L429.975 73.3437L436.599 69.5845L440.349 76.204L433.729 79.9543ZM441.459 75.5805L437.565 68.9126L444.185 65.1623L447.931 71.7908L441.459 75.5805ZM322.865 152.858L319.114 146.238L325.734 142.488L329.484 149.107L322.865 152.858ZM330.594 148.484L326.844 141.864L333.464 138.114L337.214 144.733L330.594 148.484ZM338.324 144.11L334.574 137.49L340.529 134.115L344.279 140.735L338.324 144.11ZM345.38 140.107L341.558 133.497L348.178 129.746L351.928 136.366L345.38 140.107ZM353.11 135.733L349.301 129.096L355.921 125.346L359.693 131.987L353.11 135.733ZM360.839 131.359L357.013 124.758L363.632 121.008L367.387 127.618L360.839 131.359ZM368.564 126.994L364.742 120.384L371.362 116.634L375.112 123.253L368.564 126.994ZM376.294 122.62L372.481 115.992L379.1 112.242L382.846 118.871L376.294 122.62ZM384.023 118.247L380.202 111.636L386.821 107.886L390.571 114.506L384.023 118.247ZM391.753 113.873L387.931 107.263L394.551 103.512L398.301 110.132L391.753 113.873ZM399.482 109.499L395.661 102.889L402.28 99.1386L405.999 105.754L399.482 109.499ZM407.212 105.125L403.386 98.524L410.005 94.7738L413.76 101.384L407.212 105.125ZM414.937 100.76L411.115 94.1502L417.708 90.342L421.458 96.9615L414.937 100.76ZM422.666 96.3865L418.786 89.7588L425.406 86.0086L429.152 92.6371L422.666 96.3865ZM430.396 92.0127L426.646 85.3932L433.265 81.643L437.015 88.2625L430.396 92.0127ZM438.125 87.6389L434.371 81.0284L440.86 77.2252L444.611 83.8448L438.125 87.6389ZM445.855 83.2651L441.939 76.6421L448.559 72.8918L452.305 79.5203L445.855 83.2651ZM334.946 156.236L331.196 149.616L337.815 145.866L341.556 152.481L334.946 156.236ZM342.675 151.862L338.925 145.242L344.88 141.867L348.631 148.487L342.675 151.862ZM349.732 147.859L345.981 141.239L352.601 137.489L356.351 144.108L349.732 147.859ZM357.461 143.485L353.702 136.839L360.321 133.088L364.076 139.699L357.461 143.485ZM365.191 139.111L361.436 132.501L368.056 128.75L371.81 135.361L365.191 139.111ZM372.916 134.746L369.166 128.127L375.785 124.376L379.535 130.996L372.916 134.746ZM380.645 130.372L376.855 123.722L383.474 119.972L387.22 126.6L380.645 130.372ZM388.375 125.999L384.625 119.379L391.244 115.629L394.994 122.248L388.375 125.999ZM396.104 121.625L392.354 115.005L398.929 111.188L402.67 117.803L396.104 121.625ZM403.834 117.251L400.007 110.605L406.627 106.855L410.364 113.479L403.834 117.251ZM411.563 112.877L407.809 106.267L414.428 102.516L418.174 109.123L411.563 112.877ZM419.288 108.512L415.538 101.893L422.081 98.0715L425.823 104.687L419.288 108.512ZM427.018 104.139L423.16 97.4883L429.78 93.7381L433.517 100.362L427.018 104.139ZM434.747 99.7647L430.997 93.1452L437.617 89.395L441.358 96.0101L434.747 99.7647ZM442.477 95.3909L438.722 88.7804L445.346 85.0212L449.088 91.6363L442.477 95.3909ZM339.441 164.014L335.69 157.394L342.301 153.64L346.051 160.259L339.441 164.014ZM347.17 159.64L343.42 153.02L349.241 149.579L352.991 156.198L347.17 159.64ZM354.226 155.637L350.476 149.017L357.096 145.267L360.846 151.886L354.226 155.637ZM361.956 151.263L358.076 144.568L364.691 140.827L368.436 147.433L361.956 151.263ZM369.686 146.889L365.931 140.279L372.55 136.528L376.296 143.134L369.686 146.889ZM377.415 142.515L373.66 135.905L380.271 132.15L384.021 138.77L377.415 142.515ZM385.14 138.15L381.228 131.451L387.884 127.719L391.625 134.334L385.14 138.15ZM392.87 133.777L389.119 127.157L395.73 123.402L399.48 130.022L392.87 133.777ZM400.599 129.403L396.849 122.783L403.293 118.913L407.044 125.533L400.599 129.403ZM408.329 125.029L404.381 118.335L410.992 114.58L414.738 121.208L408.329 125.029ZM416.058 120.655L412.304 114.045L418.914 110.29L422.669 116.901L416.058 120.655ZM423.783 116.29L420.042 109.675L426.446 105.797L430.196 112.416L423.783 116.29ZM431.513 111.917L427.534 105.218L434.145 101.463L437.89 108.092L431.513 111.917ZM439.242 107.543L435.492 100.923L442.103 97.1686L445.853 103.788L439.242 107.543ZM446.972 103.169L443.217 96.5584L449.841 92.7992L453.591 99.4187L446.972 103.169ZM432.094 133.474L435.469 139.429L428.849 143.179L425.474 137.224L432.094 133.474ZM424.369 137.839L427.744 143.794L421.124 147.544L417.494 141.519L424.369 137.839ZM416.46 142.124L419.835 148.079L413.215 151.83L409.84 145.874L416.46 142.124ZM408.73 146.498L412.105 152.453L405.486 156.203L402.111 150.248L408.73 146.498ZM401.001 150.872L404.376 156.827L397.756 160.577L394.341 154.635L401.001 150.872ZM393.28 155.227L396.655 161.183L390.036 164.933L386.66 158.978L393.28 155.227ZM385.55 159.601L388.93 165.548L382.311 169.298L378.931 163.352L385.55 159.601ZM442.932 116.864L446.682 123.483L440.063 127.234L436.273 120.672L442.932 116.864ZM435.203 121.238L438.953 127.857L432.333 131.607L428.583 124.988L435.203 121.238ZM427.473 125.611L431.228 132.222L424.608 135.995L420.854 129.384L427.473 125.611ZM419.744 129.985L423.485 136.667L416.866 140.418L413.12 133.789L419.744 129.985ZM412.019 134.35L415.769 140.97L409.149 144.72L405.399 138.1L412.019 134.35ZM404.289 138.724L408.039 145.343L401.42 149.094L397.669 142.474L404.289 138.724ZM396.559 143.098L400.31 149.717L393.699 153.472L389.94 146.848L396.559 143.098ZM388.83 147.472L392.58 154.091L385.961 157.841L382.21 151.222L388.83 147.472ZM381.1 151.845L384.855 158.456L378.236 162.206L374.481 155.596L381.1 151.845ZM373.375 156.21L377.225 162.923L370.614 166.678L366.823 160.027L373.375 156.21ZM365.646 160.584L369.396 167.204L362.785 170.958L359.035 164.339L365.646 160.584ZM351.351 167.241L347.601 160.621L353.547 157.242L357.297 163.861L351.351 167.241ZM358.407 163.238L354.657 156.618L361.268 152.863L365.018 159.483L358.407 163.238ZM366.137 158.864L362.449 152.298L369.056 148.552L372.81 155.163L366.137 158.864ZM373.866 154.49L370.13 147.911L376.74 144.156L380.495 150.767L373.866 154.49ZM381.591 150.125L377.859 143.537L384.514 139.76L388.265 146.379L381.591 150.125ZM389.321 145.751L385.584 139.172L392.195 135.417L395.945 142.037L389.321 145.751ZM397.05 141.378L393.291 134.754L399.911 131.003L403.661 137.623L397.05 141.378ZM404.78 137.004L401.048 130.415L407.667 126.643L411.417 133.262L404.78 137.004ZM412.509 132.63L408.764 126.069L415.375 122.314L419.111 128.938L412.509 132.63ZM420.239 128.256L416.502 121.677L423.122 117.927L426.877 124.537L420.239 128.256ZM427.964 123.891L424.232 117.303L430.82 113.526L434.57 120.146L427.964 123.891ZM435.694 119.517L431.944 112.965L438.563 109.215L442.264 115.821L435.694 119.517ZM450.025 111.385L443.414 115.139L439.655 108.515L446.274 104.765L450.025 111.385Z" fill="url(#paint0_linear_30_459)"/>
<path d="M426.678 159.846C424.763 158.341 422.968 156.689 421.31 154.904C418.645 156.795 415.886 158.549 413.044 160.162C375.952 181.137 332.353 174.166 315.54 144.532C300.165 117.479 312.449 80.9912 342.799 58.8347C341.158 57.0899 339.716 55.1678 338.5 53.1039C304.416 77.7908 290.579 118.675 307.726 148.898C326.468 181.969 375.144 189.768 416.501 166.336C420.013 164.366 423.411 162.2 426.678 159.846Z" fill="#352E35"/>
<path d="M349.749 54.2105L345.075 48.6965C340.361 51.6093 335.885 54.8906 331.688 58.5099L336.344 64.0151C340.519 60.3638 345.005 57.0832 349.749 54.2105Z" fill="#D1D1D1"/>
<path d="M416.101 158.28L420.766 163.789C425.456 160.836 429.908 157.52 434.081 153.873L429.407 148.359C425.271 152.049 420.818 155.369 416.101 158.28Z" fill="#D1D1D1"/>
<g style="mix-blend-mode:soft-light">
<path d="M451.494 66.9805C468.027 96.1421 453.03 136.076 418.029 157.513C419.016 157.018 419.988 156.494 420.945 155.94C457.199 135.444 471.171 95.4173 454.231 65.4754C437.292 35.5336 393.309 30.2916 362.577 45.2366C353.336 49.7577 344.627 55.2919 336.608 61.7372C340.739 59.0345 356.37 48.4657 368.223 44.1172C401.439 31.868 436.679 40.8724 451.494 66.9805Z" fill="white"/>
</g>
<path d="M310.608 147.709C293.312 117.202 310.942 86.3353 317.682 74.1498C298.86 95.9444 294.397 125.451 307.916 149.237C322.718 175.349 356.068 184.114 384.604 177.674C367.925 179.667 326.101 175.043 310.608 147.709Z" fill="#2B242A"/>
<path d="M265.188 184.747C264.629 185.012 263.988 185.047 263.404 184.842C262.82 184.638 262.34 184.212 262.069 183.656L254.614 170.506C254.274 169.988 254.153 169.356 254.279 168.749C254.405 168.142 254.766 167.61 255.284 167.269C255.842 167.001 256.484 166.965 257.069 167.17C257.653 167.374 258.133 167.802 258.403 168.36L265.853 181.496C266.192 182.017 266.313 182.65 266.188 183.258C266.064 183.867 265.704 184.402 265.188 184.747Z" fill="#2B242A"/>
<path d="M254.572 169.064L247.205 173.242L255.906 188.587L263.274 184.409L254.572 169.064Z" fill="#161013"/>
<path d="M256.509 189.667C255.948 189.935 255.305 189.97 254.719 189.765C254.133 189.56 253.652 189.131 253.381 188.572L245.93 175.435C245.591 174.915 245.471 174.282 245.595 173.673C245.72 173.065 246.079 172.53 246.596 172.185C247.157 171.919 247.8 171.886 248.385 172.093C248.97 172.3 249.45 172.73 249.719 173.289L257.17 186.426C257.507 186.945 257.626 187.576 257.502 188.182C257.379 188.788 257.022 189.322 256.509 189.667Z" fill="#2B242A"/>
</g>
<path d="M179.767 397C176.567 387 178.434 309.5 179.767 272L198 278.5C196.5 293.5 214.267 341 214.267 345.069C224.897 338.287 242.886 333.168 254.267 331C261.434 338.833 275.267 355.1 273.267 357.5C270.767 360.5 183.767 409.5 179.767 397Z" fill="#FF7CA6"/>
<mask id="mask0_30_459" style="mask-type:alpha" maskUnits="userSpaceOnUse" x="178" y="272" width="96" height="128">
<path d="M179.767 397C176.567 387 178.434 309.5 179.767 272L198 278.5C196.5 293.5 214.267 341 214.267 345.069C224.897 338.287 242.886 333.168 254.267 331C261.434 338.833 275.267 355.1 273.267 357.5C270.767 360.5 183.767 409.5 179.767 397Z" fill="#FF7CA6"/>
</mask>
<g mask="url(#mask0_30_459)">
<path d="M173.767 404C170.567 394 172.434 316.5 173.767 279L192 285.5C190.5 300.5 208.267 348 208.267 352.069C218.897 345.287 236.886 340.168 248.267 338C255.434 345.833 269.267 362.1 267.267 364.5C264.767 367.5 177.767 416.5 173.767 404Z" fill="#FB94B5"/>
<path d="M170.767 414C167.567 404 169.434 326.5 170.767 289L188 282C186.5 297 205.267 358 205.267 362.069C215.897 355.287 233.886 350.168 245.267 348C252.434 355.833 266.267 372.1 264.267 374.5C261.767 377.5 174.767 426.5 170.767 414Z" fill="#FFAFC9"/>
<path d="M181 297C181.4 294.2 179.5 285.5 178.5 281.5L164 397.5C171.167 399.667 186.2 404.2 189 405C192.5 406 217.631 389.741 214 390C200 391 184.5 397 183 395C181.5 393 182 389.5 182 383C182 377.78 181.5 352 181 348C180.5 344 181 334 181 331.5C181 329 180.5 300.5 181 297Z" fill="#FEF2F7"/>
</g>
<path d="M282.375 827.967C270.723 813.609 293.874 643.591 306.906 560.377C331.672 551.087 358.097 521.024 368.213 507.154C368.389 509.487 371.654 518.242 383.313 534.6C394.972 550.958 402.265 567.365 404.454 573.523C406.267 632.317 375.713 736.949 360.209 781.916C408.183 786.077 462.437 838.121 484.008 864.237L473.142 901.277C466.292 896.635 441.275 882.792 396.008 864.556C339.425 841.761 296.94 845.915 282.375 827.967Z" fill="url(#paint1_linear_30_459)"/>
<mask id="mask1_30_459" style="mask-type:alpha" maskUnits="userSpaceOnUse" x="279" y="507" width="206" height="395">
<path d="M282.375 827.967C270.723 813.609 293.874 643.591 306.906 560.377C331.672 551.087 358.097 521.024 368.213 507.154C368.389 509.487 371.654 518.242 383.313 534.6C394.972 550.958 402.265 567.365 404.454 573.523C406.267 632.317 375.713 736.949 360.209 781.916C408.183 786.077 462.437 838.121 484.008 864.237L473.142 901.277C466.292 896.635 441.275 882.792 396.008 864.556C339.425 841.761 296.94 845.915 282.375 827.967Z" fill="#F89AB8"/>
</mask>
<g mask="url(#mask1_30_459)">
<path d="M270.411 838.011C258.759 823.653 281.91 653.635 294.942 570.42C319.709 561.13 342.522 527.081 352.638 513.211C352.814 515.544 359.69 528.285 371.349 544.643C383.009 561.001 369.253 563.984 371.442 570.143C373.203 627.261 367.356 730.42 352.597 777.713C351.297 779.897 351.097 782.244 350.774 783.659C350.695 784.01 350.766 784.386 351.014 784.647C351.846 785.524 353.815 787.468 355.133 787.704C404.661 795.524 483.179 868.933 504.019 894.165L461.178 911.32C454.328 906.678 429.311 892.836 384.045 874.599C327.462 851.804 284.976 855.958 270.411 838.011Z" fill="#FBC6D7"/>
<mask id="mask2_30_459" style="mask-type:alpha" maskUnits="userSpaceOnUse" x="267" y="513" width="238" height="399">
<path d="M270.411 838.011C258.759 823.653 281.91 653.635 294.942 570.42C319.709 561.13 342.522 527.081 352.638 513.211C352.814 515.544 359.69 528.285 371.349 544.643C383.009 561.001 369.253 563.984 371.442 570.143C373.203 627.261 367.356 730.42 352.597 777.713C351.297 779.897 351.097 782.244 350.774 783.659C350.695 784.01 350.766 784.386 351.014 784.647C351.846 785.524 353.815 787.468 355.133 787.704C404.661 795.524 483.179 868.933 504.019 894.165L461.178 911.32C454.328 906.678 429.311 892.836 384.045 874.599C327.462 851.804 284.976 855.958 270.411 838.011Z" fill="#FBC6D7"/>
</mask>
<g mask="url(#mask2_30_459)">
<path d="M339.873 746.259C350.095 669.721 330.954 600.29 340.425 592.256C381.673 706.774 504.91 891.462 496.492 886.692L478.492 886.757C467.871 853.296 364.727 813.669 345.655 793.738C338.33 786.083 338.078 757.098 339.873 746.259Z" fill="#FEB3CB"/>
</g>
<path d="M310.066 631.366C316.007 614.944 322.846 570.652 320.269 549.328C278.383 580.98 268.2 806.519 268.267 825.018C268.321 839.818 384.568 907.764 442.685 939.887L495.045 901.198C471.98 883.448 382.759 850.104 372.33 842.142C359.294 832.189 303.782 828.89 297.251 820.413C290.72 811.937 297.077 772.414 296.983 746.414C296.889 720.414 302.64 651.893 310.066 631.366Z" fill="#FEF2F7"/>
</g>
<path d="M311.016 584.5L253.016 525C180.516 591 168.016 648 154.016 674C140.016 700 144.016 693 132.516 731C121.016 769 76.0164 868 77.0164 884C77.8164 896.8 97.3497 897.333 107.016 896C192.216 769.6 200.683 726.667 193.516 720.5C251.516 683.7 295.516 614.166 311.016 584.5Z" fill="#FF7CA6"/>
<mask id="mask3_30_459" style="mask-type:alpha" maskUnits="userSpaceOnUse" x="77" y="525" width="235" height="372">
<path d="M311.016 584.5L253.016 525C180.516 591 168.016 648 154.016 674C140.016 700 144.016 693 132.516 731C121.016 769 76.0164 868 77.0164 884C77.8164 896.8 97.3497 897.333 107.016 896C192.216 769.6 200.683 726.667 193.516 720.5C251.516 683.7 295.516 614.166 311.016 584.5Z" fill="#FF7CA6"/>
</mask>
<g mask="url(#mask3_30_459)">
<path d="M301.016 584.5L243.016 525C170.516 591 158.016 648 144.016 674C130.016 700 134.016 693 122.516 731C111.016 769 66.0164 868 67.0164 884C67.8164 896.8 87.3497 897.333 97.0164 896C171.598 785.354 182.714 746.667 184.5 725.5C184.754 722.486 187 719.5 186.5 716.5C189.045 714.885 193.017 713.717 195.5 712C249.594 674.603 286.197 612.865 301.016 584.5Z" fill="#FEB3CB"/>
<path d="M280.5 555.5L237.016 518C164.516 584 152.016 641 138.016 667C124.016 693 128.016 686 116.516 724C105.016 762 60.0164 861 61.0164 877C61.8164 889.8 83.3333 892.833 93 891.5C124 843.5 170.214 745.167 172 724C172.254 720.986 174.5 718 174 715C176.545 713.385 187.017 706.717 189.5 705C243.594 667.603 265.68 583.865 280.5 555.5Z" fill="#FBC6D7"/>
<path d="M203.5 599.5C207.9 593.9 242.333 551.5 259 531C256.833 527.333 250.8 520.6 244 523C235.5 526 206.5 544 162.5 585.5C118.5 627 61 876.5 58 883C55.6 888.2 70.3334 889.833 78 890C92.1667 853.5 121.7 777.7 126.5 766.5C132.5 752.5 150.5 697.5 153 691C155.5 684.5 198 606.5 203.5 599.5Z" fill="#FEF2F7"/>
</g>
<path d="M325 668C279.8 608.8 233.167 573.333 215.5 563C217.9 555.4 239.5 534.833 250 525.5C290.4 593.5 346.5 548.5 369.5 517.5C424.7 548.3 409.5 620.333 395 652.5C378.833 659.167 346.5 671.6 346.5 668V635C339.7 644.6 329.333 661 325 668Z" fill="url(#paint2_linear_30_459)"/>
<mask id="mask4_30_459" style="mask-type:alpha" maskUnits="userSpaceOnUse" x="215" y="517" width="194" height="152">
<path d="M325 668C279.8 608.8 233.167 573.333 215.5 563C217.9 555.4 239.5 534.833 250 525.5C290.4 593.5 346.5 548.5 369.5 517.5C424.7 548.3 409.5 620.333 395 652.5C378.833 659.167 346.5 671.6 346.5 668V635C339.7 644.6 329.333 661 325 668Z" fill="url(#paint3_linear_30_459)"/>
</mask>
<g mask="url(#mask4_30_459)">
<path d="M213 549C230.232 561.681 241.154 566.934 270 596.5C302.5 623.5 323.725 648.251 331 655.5C343.048 667.505 339.2 663.914 340 667C371 659 395.9 649.7 411.5 638.5" stroke="white" stroke-opacity="0.5"/>
<path d="M357 528.017C368.667 527.017 409 569.517 376 667.017" stroke="white" stroke-opacity="0.49"/>
<path d="M342 579.5C340 589 327.667 594 321 596V588.5C327 591.3 335.5 586.5 342 579.5Z" fill="url(#paint4_linear_30_459)"/>
<path d="M272.5 570C285.833 576.333 317.8 585.2 339 570C334.5 582.667 314.9 600.4 272.5 570Z" fill="url(#paint5_linear_30_459)"/>
<path d="M366 516.196C373.474 520.359 386.174 541.881 391 576.5C393.019 590.985 399.351 604.476 395.5 621C392.342 634.552 384.558 655.463 375.5 669.196L433 645.696C429.333 605.696 418.2 523.796 403 516.196C387.8 508.596 372 513.03 366 516.196Z" fill="#0017DF" fill-opacity="0.5"/>
<path d="M225.5 561C232 568 263.5 597 263 601.5L211 562.5L216 545.5L249.5 520.5C259.5 525.333 278.1 536.5 272.5 542.5C266.9 548.5 258.833 542 255.5 538C245.5 542.5 243.5 542.5 240 545.5C236.5 555 225.5 560 225.5 561Z" fill="url(#paint6_linear_30_459)"/>
</g>
<path d="M352.143 423C355.343 459.4 368.476 504.167 374.643 522C313.143 608.5 257.143 554.5 251.143 535C246.343 519.4 246.809 458.167 247.643 429.5C234.143 423 206.643 388.5 227.643 371.5C244.443 357.9 275.667 332 292 317.5H320C353 342 348.143 377.5 352.143 423Z" fill="url(#paint7_linear_30_459)"/>
<mask id="mask5_30_459" style="mask-type:alpha" maskUnits="userSpaceOnUse" x="220" y="317" width="155" height="253">
<path d="M352.143 423C355.343 459.4 368.476 504.167 374.643 522C313.143 608.5 257.143 554.5 251.143 535C246.343 519.4 246.809 458.167 247.643 429.5C234.143 423 206.643 388.5 227.643 371.5C244.443 357.9 275.667 332 292 317.5H320C353 342 348.143 377.5 352.143 423Z" fill="url(#paint8_linear_30_459)"/>
</mask>
<g mask="url(#mask5_30_459)">
<path d="M328 356.497C328 379.967 310.559 392 288.377 392C266.195 392 245 372.974 245 349.503C245 326.033 262.441 314 284.623 314C306.805 314 328 333.026 328 356.497Z" fill="#6B85FF"/>
<path d="M324.259 355.183C324.259 376.547 308.078 387.5 287.5 387.5C266.922 387.5 245 368.681 245 347.317C245 325.953 261.18 315 281.759 315C302.337 315 324.259 333.819 324.259 355.183Z" fill="#4464FE"/>
<path d="M256 461.36C258.797 449.963 242.162 432.249 238 427.5L230 532.737L241.985 548C258.465 543.421 246.17 519.363 256 498.5C261.993 485.781 252.504 475.605 256 461.36Z" fill="url(#paint9_linear_30_459)"/>
<path d="M265.959 479C269.459 495.833 256.459 518 297.959 544C271.959 544 253.559 532.6 265.959 479Z" fill="url(#paint10_linear_30_459)"/>
<path d="M269.28 486.632C271.817 491.866 269.462 500.207 285.053 505.321C276.644 507.46 269.742 505.234 269.28 486.632Z" fill="url(#paint11_linear_30_459)"/>
<path d="M334.224 383.862C334.224 368.862 333.923 353.024 323.942 340C332.09 342.982 343.724 362.862 334.224 383.862Z" fill="url(#paint12_linear_30_459)"/>
<path d="M246 429.5C259.256 427.456 266 431 287.672 418C284.08 421.979 251 453 246 429.5Z" fill="#4262FE"/>
<path d="M416 482.787C406.772 501.267 391.926 482.787 374.873 482.787C343.777 443.616 349.366 395.709 343.777 361.288C327.226 302.031 277.071 325.604 254 310.538C268.712 298.653 326.524 286.714 343.777 302.784C365.344 322.871 416 461.193 416 482.787Z" fill="#2D42FF"/>
<path d="M217 388.971L237 344.471L249 350.836L245.5 360C242.373 366.822 235.406 377.619 226.5 383.531C222 383.531 225.232 402.233 224 402.971C221.877 404.241 218.587 388.269 217 388.971Z" fill="url(#paint13_linear_30_459)"/>
</g>
<path d="M536.466 879.547L525.947 874.085C509.898 998.644 467.892 997.296 450.829 979.858C493.521 1032.7 526.64 927.583 527.137 926.581C538.679 910.539 543.506 890.522 543.966 879.52L536.466 879.547Z" fill="#CAF4F3"/>
<path d="M483.382 856.239C483.007 861.764 481.272 869.856 474.707 881.295C470.782 876.658 465.301 870.55 462.427 868.815C457.44 872.333 451.512 892.355 450.02 894.36C453.231 897.549 459.715 902.325 462.556 904.315C452.221 922.353 450.099 962.194 450.329 979.86C492.481 1021.71 521.652 930.768 530.968 880.067C525.728 868.886 502.406 862.837 491.4 861.21L483.382 856.239Z" fill="#F6FEFD"/>
<path d="M456 963C460 967 469.5 971 482 963" stroke="#14D1A4" stroke-width="3" stroke-linecap="round" stroke-linejoin="round"/>
<path d="M458 949C462 953 474.5 956 484 949" stroke="#14D1A4" stroke-width="3" stroke-linecap="round" stroke-linejoin="round"/>
<path d="M462 936C465.077 938.598 472 941.5 482 936" stroke="#14D1A4" stroke-width="3" stroke-linecap="round" stroke-linejoin="round"/>
<path d="M450.815 975.858C462.518 985.816 490.268 990.515 507.648 929.652" stroke="#CEF4F4" stroke-width="2" stroke-linecap="round" stroke-linejoin="round"/>
<path d="M500.398 901.71C484.988 904.907 477.771 905.871 467.913 905.828C467.924 909.028 469.6 911.489 470.436 912.319C482.046 915.077 495.248 906.396 500.398 901.71Z" stroke="#14D1A4" stroke-linecap="round"/>
<path d="M467.924 908.828C473.94 913.306 485.58 924.364 484.011 932.77C480.001 930.118 471.17 921.616 467.924 908.828Z" stroke="#14D1A4"/>
<path d="M434.466 920.565C448.582 913.955 451.729 912.02 464.913 905.972C465.635 909.433 464.787 909.394 464.636 910.563C455.484 925.506 441.407 921.106 434.466 920.565Z" stroke="#14D1A4" stroke-linecap="round"/>
<path d="M465.509 908.004C461.186 914.133 453.567 928.265 457.675 935.765C460.66 931.996 466.405 921.168 465.509 908.004Z" stroke="#14D1A4"/>
<circle cx="466.917" cy="906.832" r="2" transform="rotate(-0.207545 466.917 906.832)" fill="#14D1A4" stroke="#14D1A4"/>
<path d="M36.0561 991.985C0.415319 999.832 1.88189 974.466 7.07027 960.803C15.0498 1001 75.38 975.426 104.548 957.613C104.642 959.35 104.761 963.117 104.479 964.283C104.126 965.742 80.6071 982.176 36.0561 991.985Z" fill="#C5F4F2"/>
<path d="M100.648 939.695C105.881 926.557 108.237 904.659 108 895C103.736 895.616 83.6396 889.461 74.8861 886.659C72.302 897.351 61.4191 916.84 56.49 922.336C27.6727 934.301 11.5363 952.966 7.07032 960.803C2.37944 1012.14 100.505 967.953 103.96 960.043C106.724 953.715 102.904 943.841 100.648 939.695Z" fill="#F1FEFC"/>
<path d="M25 942C27.8333 942.5 34.9 945.5 40.5 953.5" stroke="#14D1A4" stroke-width="3" stroke-linecap="round" stroke-linejoin="round"/>
<path d="M37.9999 932C40.8332 932.5 47.8999 935.5 53.4999 943.5" stroke="#14D1A4" stroke-width="3" stroke-linecap="round" stroke-linejoin="round"/>
<path d="M52.9999 923C55.8332 923.5 59.3999 924 64.9999 932" stroke="#14D1A4" stroke-width="3" stroke-linecap="round" stroke-linejoin="round"/>
<path d="M78.9972 869.649L74.8861 886.659C82.5519 899.211 97.9551 900.465 105.302 899.154C106.041 894.395 109.568 886.468 111.24 883.1C104.27 872.774 86.8409 869.83 78.9972 869.649Z" fill="#F7FFFD"/>
<path d="M11.1932 960.77C12.5985 969.855 22.955 985.321 53.1396 974.509" stroke="#AAFEE7" stroke-width="3"/>
<path d="M89.5827 951.424C72.4184 958.593 62.3415 972.618 57.295 978.6C61.9478 978.078 73.9058 973.012 79.3033 970.544L89.5827 951.424Z" fill="#AAFEE7" stroke="#DAFFF5"/>
<path d="M75.7348 889.842C82.6149 891.294 97.0671 895.672 99.8348 901.566C103.294 908.933 79.4328 901.475 75.7348 889.842Z" fill="white" stroke="#14D1A4"/>
<path d="M75.507 890.464C78.5794 897.519 84.2404 912.893 82.3045 917.956C77.8896 914.313 70.3492 903.713 75.507 890.464Z" fill="white" stroke="#14D1A4"/>
<path d="M74.0969 889.33C67.6145 886.606 53.2419 881.974 47.6103 885.242C40.5708 889.328 64.4323 896.787 74.0969 889.33Z" stroke="#14D1A4"/>
<path d="M73.9298 889.971C67.3868 894.02 53.978 903.435 52.6861 908.699C58.3902 908.218 70.6246 903.799 73.9298 889.971Z" stroke="#14D1A4"/>
<path d="M75.9217 887.396C76.3506 887.55 76.7099 887.994 76.8701 888.731C77.0285 889.46 76.9683 890.4 76.6218 891.366C76.2753 892.331 75.724 893.095 75.1382 893.557C74.5459 894.024 73.986 894.138 73.5571 893.985C73.1281 893.831 72.7689 893.386 72.6087 892.649C72.4502 891.92 72.5104 890.98 72.8569 890.015C73.2035 889.049 73.7548 888.285 74.3406 887.824C74.9329 887.357 75.4927 887.242 75.9217 887.396Z" fill="#14D1A4" stroke="#14D1A4"/>
<path d="M293.715 265.202C316.87 292.829 303.363 320.948 293.715 326.344C266.307 364.763 247.05 327.255 240.553 307.29C237.009 289.484 242.679 279.339 253.548 268.979C264.417 258.619 282.492 255.489 293.715 265.202Z" fill="#FF7CA6"/>
<mask id="mask6_30_459" style="mask-type:alpha" maskUnits="userSpaceOnUse" x="240" y="259" width="68" height="84">
<path d="M294.712 264.884C317.867 292.635 304.36 320.88 294.712 326.3C267.304 364.89 247.495 327.054 240.997 307C237.453 289.114 243.677 279.085 254.546 268.678C265.414 258.272 283.489 255.128 294.712 264.884Z" fill="#FF7CA6"/>
</mask>
<g mask="url(#mask6_30_459)">
<path d="M289.497 268C314.497 293.5 303.511 317.311 293.916 322.698C266.661 361.051 243.481 322.319 237.019 302.389C233.495 284.613 235.655 300.173 251.439 294.403C283.997 282.5 287.997 265 289.497 268Z" fill="#FEB3CB"/>
<path d="M289.498 271.5C315.998 307.5 298.645 321.604 288.998 327C261.59 365.419 239.995 317.965 233.498 298C239.498 299 244.492 307.731 260.498 299.5C277.998 290.5 277.998 293 289.498 271.5Z" fill="#FBC6D7"/>
<path d="M287.615 286.955C286.322 282.674 286.763 274.126 289.974 275.894C291.837 275.894 294.052 285.394 294.052 285.394C297.488 294.668 299.708 311.624 296 314.5C290.365 307.923 287.38 304.105 273.785 303.5C267.863 295.5 289.974 294.764 287.615 286.955Z" fill="#FEF2F7" fill-opacity="0.3"/>
</g>
<path d="M256 217.344C254.4 219.344 248 221.511 245 222.344C254 234.344 275.1 259.744 287.5 265.344C299.9 270.944 303.333 291.011 303.5 300.344C304.3 301.944 304.833 313.011 305 318.344C310.2 317.944 311.724 309.844 311.836 305.844C312.884 312.032 312.151 320.545 311.5 324.844C318.7 325.244 328.463 315.677 332.445 310.844C333.396 321.645 332.037 327.53 331 329.344C335 327.344 345 320.844 353 310.844C363 298.344 350.5 285.844 346 283.844C341.5 281.844 340.5 239.844 339 229.344C337.8 220.944 325.833 210.177 320 205.844C272.5 183.844 258 214.844 256 217.344Z" fill="url(#paint14_linear_30_459)"/>
<path d="M310.012 282.025C307.212 279.225 300.179 285.691 297.512 290.025C295.86 292.525 295.012 300.525 305.012 296.025C315.012 291.525 313.512 285.525 310.012 282.025Z" fill="#FBC6D7" stroke="url(#paint15_linear_30_459)"/>
<path fill-rule="evenodd" clip-rule="evenodd" d="M304.567 286.383C302.877 287.863 301.334 290.037 300.433 291.595C300.294 291.834 299.988 291.915 299.749 291.777C299.51 291.638 299.429 291.333 299.567 291.094C300.499 289.484 302.106 287.209 303.908 285.63C304.807 284.843 305.789 284.198 306.789 283.92C307.812 283.636 308.857 283.737 309.8 284.444C310.021 284.61 310.066 284.923 309.9 285.144C309.734 285.365 309.421 285.41 309.2 285.244C308.543 284.751 307.83 284.669 307.057 284.884C306.263 285.105 305.413 285.641 304.567 286.383ZM307.683 285.957C307.897 285.782 308.212 285.814 308.387 286.027C308.785 286.514 309.178 287.118 309.429 287.749C309.675 288.37 309.809 289.083 309.586 289.742C309.352 290.433 308.769 290.941 307.847 291.216C306.942 291.485 305.671 291.544 303.942 291.341C303.667 291.308 303.471 291.06 303.503 290.786C303.536 290.511 303.784 290.315 304.058 290.347C305.729 290.544 306.845 290.47 307.562 290.257C308.262 290.049 308.536 289.726 308.639 289.421C308.753 289.084 308.706 288.637 308.499 288.118C308.297 287.607 307.965 287.091 307.613 286.661C307.438 286.447 307.47 286.132 307.683 285.957Z" fill="#FC719A"/>
<path d="M256.5 285.5C226.1 304.7 205 279 198 263C215 246 212.014 248.649 226.5 240.5C234.5 236 238.5 237.5 241.5 220C247.9 221.2 279.5 225.5 290.5 248L294 248.5C336 255.7 341.333 236.333 338.5 226C358.1 258.8 314.167 262.5 290.5 260C288.5 264.5 286.9 266.3 256.5 285.5Z" fill="url(#paint16_linear_30_459)"/>
<mask id="mask7_30_459" style="mask-type:alpha" maskUnits="userSpaceOnUse" x="198" y="220" width="146" height="73">
<path d="M256.5 285.5C226.1 304.7 205 279 198 263C215 246 212.014 248.649 226.5 240.5C234.5 236 238.5 237.5 241.5 220C247.9 221.2 279.5 225.5 290.5 248L294 248.5C336 255.7 341.333 236.333 338.5 226C358.1 258.8 314.167 262.5 290.5 260C288.5 264.5 286.9 266.3 256.5 285.5Z" fill="url(#paint17_linear_30_459)"/>
</mask>
<g mask="url(#mask7_30_459)">
<path d="M225.5 303.5L276.5 279C267 270 247.5 278.981 234.5 266.481C221.5 253.981 235.5 244.981 222.5 240.981L182 260.5L225.5 303.5Z" fill="url(#paint18_linear_30_459)" fill-opacity="0.3"/>
<path d="M219.367 249.285C201.674 255.952 203.796 259.287 198.5 265.546L195 260.546L211.5 242.046L238.5 213.5C249 219.5 238.743 234.922 236 237C230.502 241.166 227.523 240.597 222.832 246.663C221.931 247.828 220.744 248.766 219.367 249.285Z" fill="#C1DBF7"/>
</g>
<path d="M241 238.5C241.5 244.833 254.5 255.656 285.5 260.156" stroke="#BAD4F6" stroke-linecap="round" stroke-linejoin="round"/>
<path d="M264.376 237.264C256.465 235.362 253.298 233.638 249.376 229.156C247.952 233.071 250.894 241.021 252.814 241.156C253.219 241.184 260.653 237.058 264.376 237.264Z" fill="#B8D2F6"/>
<path d="M254.5 362.5C235.608 342.428 188.545 296.345 168.462 279.311C167.835 278.779 167.454 278.053 167.569 277.238C169.024 266.947 190.752 229.27 217.5 203C222 192 225.5 192.5 230.5 178.5C234.5 167.3 245.5 165.833 251.5 168C253.5 168.722 252.03 171.794 248.5 172.5C243.5 173.5 240 178.5 240 181.5C240 183.562 238 196.5 252.5 190.5C256.5 185.5 259 194 243 205.5C230.5 211 195 263.94 199 266.5C209.528 269.626 224.649 293.964 258.5 303.5C294 313.5 327 334.5 315 362.5C303 390.5 278.5 388 254.5 362.5Z" fill="#FF7CA6"/>
<mask id="mask8_30_459" style="mask-type:alpha" maskUnits="userSpaceOnUse" x="167" y="167" width="151" height="216">
<path d="M254.5 362.5C235.608 342.428 188.545 296.345 168.462 279.311C167.835 278.779 167.454 278.053 167.569 277.238C169.024 266.947 190.752 229.27 217.5 203C222 192 225.5 192.5 230.5 178.5C234.5 167.3 245.5 165.833 251.5 168C253.5 168.722 252.03 171.794 248.5 172.5C243.5 173.5 240 178.5 240 181.5C240 183.562 238 196.5 252.5 190.5C256.5 185.5 259 194 243 205.5C230.5 211 195 263.94 199 266.5C209.528 269.626 224.649 293.964 258.5 303.5C294 313.5 327 334.5 315 362.5C303 390.5 278.5 388 254.5 362.5Z" fill="#FF7CA6"/>
</mask>
<g mask="url(#mask8_30_459)">
<path d="M248.008 366.349C229.117 346.276 182.053 300.194 161.97 283.16C161.343 282.628 160.962 281.901 161.077 281.087C162.532 270.795 184.26 233.119 211.008 206.849C215.508 195.849 219.008 196.349 224.008 182.349C228.008 171.149 245.5 163.833 251.5 166C253.5 166.722 254.03 172.294 250.5 173C245.5 174 242.5 177.872 241.5 181.372C240.934 183.354 237 195.024 251.5 189.024C255.5 184.024 257.5 195.5 237.5 206.849C225 212.349 188.508 267.789 192.508 270.349C203.036 273.474 218.157 297.813 252.008 307.349C287.508 317.349 320.508 338.349 308.508 366.349C296.508 394.349 272.008 391.849 248.008 366.349Z" fill="#FEB3CB"/>
<mask id="mask9_30_459" style="mask-type:alpha" maskUnits="userSpaceOnUse" x="161" y="165" width="151" height="222">
<path d="M248.008 366.349C229.117 346.276 182.053 300.194 161.97 283.16C161.343 282.628 160.962 281.901 161.077 281.087C162.532 270.795 184.26 233.119 211.008 206.849C215.508 195.849 219.008 196.349 224.008 182.349C228.008 171.149 245.5 163.833 251.5 166C253.5 166.722 254.03 172.294 250.5 173C245.5 174 242.5 177.872 241.5 181.372C240.934 183.354 237 195.024 251.5 189.024C255.5 184.024 257.5 195.5 237.5 206.849C225 212.349 188.508 267.789 192.508 270.349C203.036 273.474 218.157 297.813 252.008 307.349C287.508 317.349 320.508 338.349 308.508 366.349C296.508 394.349 272.008 391.849 248.008 366.349Z" fill="#FEB3CB"/>
</mask>
<g mask="url(#mask9_30_459)">
<path d="M243.008 366.729C224.117 346.656 177.053 300.574 156.97 283.54C156.343 283.008 155.962 282.281 156.077 281.467C157.532 271.175 179.26 233.499 206.008 207.229C210.508 196.229 214.008 196.729 219.008 182.729C223.008 171.529 252 162.833 258 165C260 165.722 262 177.12 252.5 175.5C247.473 174.643 248.008 179.229 247.008 182.729C246.442 184.711 240.5 192 255 186C259 181 259.5 190.651 239.5 202C227 207.5 183.508 268.169 187.508 270.729C198.036 273.854 213.157 298.193 247.008 307.729C282.508 317.729 315.508 338.729 303.508 366.729C291.508 394.729 267.008 392.229 243.008 366.729Z" fill="#FBC6D7"/>
<path d="M249 169.5C260.5 178.5 260.121 162.5 252.5 161C244 164.333 219.179 175.3 216.379 176.5C212.879 178 162.5 281 158.5 284C155.3 286.4 180.667 302 190 316L294 394.5C296.5 384 289.7 379.4 280.5 375C269 369.5 261.5 366.5 256.5 357.5C251.5 348.5 228.5 326 218 316C207.5 306 173.5 282 173.5 274.5C173.5 269.285 189.5 244 207.5 217C230.5 196.5 237.465 160.473 249 169.5Z" fill="#FEF2F7"/>
</g>
</g>
<path d="M443.5 457.5C458.892 493.802 451.061 494.319 407 513C362.939 531.682 315.392 561.516 300 525.214C284.609 488.913 258.923 403.111 302.983 384.429C347.044 365.748 428.108 421.198 443.5 457.5Z" fill="url(#paint19_linear_30_459)"/>
<ellipse cx="373.578" cy="491.189" rx="90.22" ry="78.1728" transform="rotate(-22.9766 373.578 491.189)" fill="url(#paint20_radial_30_459)" fill-opacity="0.5"/>
<ellipse cx="373.129" cy="492.347" rx="83.9963" ry="71.2081" transform="rotate(-22.9766 373.129 492.347)" fill="#38FF26" fill-opacity="0.2"/>
<ellipse cx="372.761" cy="490.337" rx="79.5" ry="65.5" transform="rotate(-22.9766 372.761 490.337)" fill="url(#paint21_radial_30_459)"/>
<mask id="mask10_30_459" style="mask-type:alpha" maskUnits="userSpaceOnUse" x="295" y="422" width="156" height="137">
<ellipse cx="372.761" cy="490.337" rx="79.5" ry="65.5" transform="rotate(-22.9766 372.761 490.337)" fill="#68FF92"/>
</mask>
<g mask="url(#mask10_30_459)">
<path d="M305.04 353.251C344.962 336.324 388.138 349.422 401.834 381.726C415.531 414.03 394.928 454.169 355.005 471.096C315.082 488.023 271.907 474.925 258.211 442.621C244.514 410.318 265.117 370.178 305.04 353.251Z" stroke="url(#paint22_radial_30_459)" stroke-width="3"/>
<path d="M398.332 531.287C431.551 517.202 469.631 532.209 483.418 564.726C497.205 597.243 481.517 635.047 448.297 649.132C415.077 663.217 376.997 648.21 363.211 615.693C349.424 583.176 365.112 545.372 398.332 531.287Z" stroke="url(#paint23_linear_30_459)" stroke-width="3"/>
</g>
<defs>
<linearGradient id="paint0_linear_30_459" x1="428.5" y1="12" x2="345.5" y2="182.5" gradientUnits="userSpaceOnUse">
<stop stop-color="#FFFF97" stop-opacity="0.945806"/>
<stop offset="0.456015" stop-color="white"/>
<stop offset="1" stop-color="white" stop-opacity="0.4"/>
</linearGradient>
<linearGradient id="paint1_linear_30_459" x1="421.585" y1="636.462" x2="381.844" y2="901.608" gradientUnits="userSpaceOnUse">
<stop stop-color="#FF78A3"/>
<stop offset="1" stop-color="#FF8EB2"/>
</linearGradient>
<linearGradient id="paint2_linear_30_459" x1="312.017" y1="517.5" x2="269.5" y2="669" gradientUnits="userSpaceOnUse">
<stop stop-color="#78AEEC"/>
<stop offset="1" stop-color="#142AE9"/>
</linearGradient>
<linearGradient id="paint3_linear_30_459" x1="312.017" y1="517.5" x2="269.5" y2="669" gradientUnits="userSpaceOnUse">
<stop stop-color="#78AEEC"/>
<stop offset="1" stop-color="#142AE9"/>
</linearGradient>
<linearGradient id="paint4_linear_30_459" x1="346" y1="591" x2="323.5" y2="588" gradientUnits="userSpaceOnUse">
<stop stop-color="#C1C5FF"/>
<stop offset="1" stop-color="#C1C5FF" stop-opacity="0"/>
</linearGradient>
<linearGradient id="paint5_linear_30_459" x1="324" y1="567" x2="315.5" y2="590" gradientUnits="userSpaceOnUse">
<stop stop-color="#C1C5FF"/>
<stop offset="1" stop-color="#C7CAFF" stop-opacity="0"/>
</linearGradient>
<linearGradient id="paint6_linear_30_459" x1="247" y1="556" x2="240" y2="524.5" gradientUnits="userSpaceOnUse">
<stop stop-color="#DBF3F8"/>
<stop offset="1" stop-color="#99B5F3"/>
</linearGradient>
<linearGradient id="paint7_linear_30_459" x1="297.643" y1="311" x2="304.143" y2="583.5" gradientUnits="userSpaceOnUse">
<stop stop-color="#94BFFF"/>
<stop offset="1" stop-color="#0D25FE"/>
</linearGradient>
<linearGradient id="paint8_linear_30_459" x1="297.643" y1="311" x2="304.143" y2="583.5" gradientUnits="userSpaceOnUse">
<stop stop-color="#94BFFF"/>
<stop offset="1" stop-color="#0D25FE"/>
</linearGradient>
<linearGradient id="paint9_linear_30_459" x1="234.994" y1="453.907" x2="257.756" y2="550.358" gradientUnits="userSpaceOnUse">
<stop stop-color="#99B5F3"/>
<stop offset="1" stop-color="#DBF3F8"/>
</linearGradient>
<linearGradient id="paint10_linear_30_459" x1="286.959" y1="556" x2="252.959" y2="506.5" gradientUnits="userSpaceOnUse">
<stop stop-color="#C1C5FF"/>
<stop offset="1" stop-color="#C1C5FF" stop-opacity="0"/>
</linearGradient>
<linearGradient id="paint11_linear_30_459" x1="289" y1="530" x2="266.935" y2="497.013" gradientUnits="userSpaceOnUse">
<stop stop-color="#C1C5FF"/>
<stop offset="1" stop-color="#C1C5FF" stop-opacity="0"/>
</linearGradient>
<linearGradient id="paint12_linear_30_459" x1="335" y1="333.5" x2="343.085" y2="377.893" gradientUnits="userSpaceOnUse">
<stop stop-color="#C1C5FF"/>
<stop offset="1" stop-color="#C1C5FF" stop-opacity="0"/>
</linearGradient>
<linearGradient id="paint13_linear_30_459" x1="251" y1="403.971" x2="239" y2="340.471" gradientUnits="userSpaceOnUse">
<stop stop-color="#99B5F3"/>
<stop offset="1" stop-color="#DBF3F8"/>
</linearGradient>
<linearGradient id="paint14_linear_30_459" x1="300.5" y1="247.344" x2="300.89" y2="329.344" gradientUnits="userSpaceOnUse">
<stop stop-color="#050753"/>
<stop offset="1" stop-color="#008294"/>
</linearGradient>
<linearGradient id="paint15_linear_30_459" x1="310" y1="285.844" x2="298.5" y2="291.344" gradientUnits="userSpaceOnUse">
<stop stop-color="#FC719A"/>
<stop offset="1" stop-color="#FC719A" stop-opacity="0"/>
</linearGradient>
<linearGradient id="paint16_linear_30_459" x1="204" y1="288" x2="346" y2="243" gradientUnits="userSpaceOnUse">
<stop stop-color="#2B02CD"/>
<stop offset="0.511301" stop-color="#5899FF"/>
<stop offset="0.857583" stop-color="#5EC0DF"/>
<stop offset="1" stop-color="white"/>
</linearGradient>
<linearGradient id="paint17_linear_30_459" x1="278" y1="256.5" x2="355" y2="247.5" gradientUnits="userSpaceOnUse">
<stop stop-color="#02C3CD"/>
<stop offset="1" stop-color="white"/>
</linearGradient>
<linearGradient id="paint18_linear_30_459" x1="227" y1="288" x2="231" y2="250.5" gradientUnits="userSpaceOnUse">
<stop stop-color="white"/>
<stop offset="1" stop-color="#003BD5" stop-opacity="0"/>
<stop offset="1" stop-color="white"/>
</linearGradient>
<linearGradient id="paint19_linear_30_459" x1="302.5" y1="410.5" x2="386.317" y2="555.993" gradientUnits="userSpaceOnUse">
<stop stop-color="#F5FF7C" stop-opacity="0"/>
<stop offset="0.544444" stop-color="#00FF47"/>
<stop offset="1" stop-color="#00A72F"/>
</linearGradient>
<radialGradient id="paint20_radial_30_459" cx="0" cy="0" r="1" gradientUnits="userSpaceOnUse" gradientTransform="translate(374.659 586.982) rotate(-84.1426) scale(115.395 133.241)">
<stop stop-color="#FFEC3E"/>
<stop offset="1" stop-color="#1EB910" stop-opacity="0"/>
</radialGradient>
<radialGradient id="paint21_radial_30_459" cx="0" cy="0" r="1" gradientUnits="userSpaceOnUse" gradientTransform="translate(368.498 434.398) rotate(91.0357) scale(152.549 185.155)">
<stop stop-color="#F5FF7C"/>
<stop offset="0.546875" stop-color="#00FF47"/>
<stop offset="1" stop-color="#00A72F"/>
</radialGradient>
<radialGradient id="paint22_radial_30_459" cx="0" cy="0" r="1" gradientUnits="userSpaceOnUse" gradientTransform="translate(348 499) rotate(-100.46) scale(99.1476 120.339)">
<stop stop-color="white"/>
<stop offset="1" stop-color="white" stop-opacity="0"/>
</radialGradient>
<linearGradient id="paint23_linear_30_459" x1="384.5" y1="504" x2="410" y2="552.5" gradientUnits="userSpaceOnUse">
<stop stop-color="white"/>
<stop offset="1" stop-color="white" stop-opacity="0"/>
</linearGradient>
<clipPath id="clip0_30_459">
<rect width="214.52" height="280.38" fill="white" transform="translate(292.937 -28) rotate(26.2336)"/>
</clipPath>
</defs>
</svg>
