<svg width="71" height="97" viewBox="0 0 71 97" fill="none" xmlns="http://www.w3.org/2000/svg">
<g clip-path="url(#clip0_9_3114)">
<path d="M2.2563 76.8407C3.1022 69.2783 9.49624 63.5596 17.1058 63.5596H38.6482C46.2577 63.5596 52.6518 69.2783 53.4977 76.8407L55.754 97.012H0L2.2563 76.8407Z" fill="#75FDAB"/>
<mask id="mask0_9_3114" style="mask-type:alpha" maskUnits="userSpaceOnUse" x="0" y="63" width="56" height="35">
<path d="M2.2563 76.8407C3.1022 69.2783 9.49624 63.5596 17.1058 63.5596H38.6482C46.2577 63.5596 52.6518 69.2783 53.4977 76.8407L55.754 97.012H0L2.2563 76.8407Z" fill="#00D355"/>
</mask>
<g mask="url(#mask0_9_3114)">
<path d="M3.59456 76.8407C4.44046 69.2783 10.8345 63.5596 18.444 63.5596H39.9865C47.596 63.5596 53.9901 69.2783 54.8359 76.8407L57.0923 97.012H1.33826L3.59456 76.8407Z" fill="#29D60C"/>
<path d="M4.93245 76.8407C5.77835 69.2783 12.1724 63.5596 19.7819 63.5596H41.3244C48.9339 63.5596 55.3279 69.2783 56.1738 76.8407L58.4301 97.012H2.67615L4.93245 76.8407Z" fill="url(#paint0_linear_9_3114)"/>
</g>
<path fill-rule="evenodd" clip-rule="evenodd" d="M41.927 83.6311C42.2965 83.6311 42.596 83.9306 42.596 84.3002V97.0121C42.596 97.3816 42.2965 97.6811 41.927 97.6811C41.5575 97.6811 41.2579 97.3816 41.2579 97.0121V84.3002C41.2579 83.9306 41.5575 83.6311 41.927 83.6311Z" fill="url(#paint1_linear_9_3114)"/>
</g>
<path d="M51.6038 22.7695C55.7912 34.9028 80.6474 62.428 55.3963 69.5705C31.5705 76.3097 19.802 52.2112 15.6146 40.0779C11.4272 27.9447 10.6677 10.7329 26.6661 7.55275C31.8872 4.50413 47.1345 9.81921 51.6038 22.7695Z" fill="#5236FF"/>
<path d="M49.0306 30.0722C52.2263 39.332 68.0431 61.6904 49.0306 68.7354C32.5272 74.8507 21.9971 54.5481 21.2064 43.4049C18.0107 34.1451 17.4753 20.9944 29.8308 18.5171C33.8689 16.1721 45.6197 20.189 49.0306 30.0722Z" fill="#4021FE"/>
<path d="M43.9134 34.7347C43.9134 48.6775 38.2417 45.4975 27.0162 45.4975C12.8128 52.8358 10.3639 42.479 10.3639 33.0224C7.91507 23.4826 12.5679 12.4752 27.0162 12.4752C49.5458 14.9213 46.1174 30.0871 43.9134 34.7347Z" fill="#5236FF"/>
<path d="M24.323 51.3681H30.2002L31.7477 63.3903C32.0959 66.0952 29.9889 68.4908 27.2616 68.4908C24.5343 68.4908 22.4273 66.0952 22.7755 63.3903L24.323 51.3681Z" fill="#FBC6D7"/>
<mask id="mask1_9_3114" style="mask-type:alpha" maskUnits="userSpaceOnUse" x="22" y="51" width="10" height="18">
<path d="M24.323 51.3681H30.2002L31.7477 63.3903C32.0959 66.0952 29.9889 68.4908 27.2616 68.4908C24.5343 68.4908 22.4273 66.0952 22.7755 63.3903L24.323 51.3681Z" fill="#FF7CA6"/>
</mask>
<g mask="url(#mask1_9_3114)">
<path d="M24.5676 51.3681H30.4449L31.1796 55.2819C29.1755 58.3916 26.5267 58.7064 22.6085 59.6848L24.5676 51.3681Z" fill="#FF7CA6"/>
</g>
<path d="M13.8434 36.5329C14.4169 38.3358 13.7325 40.1611 12.3146 40.6097C10.8968 41.0583 9.28251 39.9605 8.70899 38.1576C8.13547 36.3546 8.8199 34.5294 10.2377 34.0808C11.6555 33.6321 13.2698 34.73 13.8434 36.5329Z" fill="#FBC6D7"/>
<path d="M13.2598 36.7354C13.6335 37.9113 13.1426 39.116 12.1634 39.4262C11.1843 39.7363 10.0876 39.0345 9.71393 37.8586C9.34027 36.6827 9.83112 35.4781 10.8103 35.1679C11.7895 34.8578 12.8861 35.5596 13.2598 36.7354Z" fill="#FF7CA6"/>
<path d="M41.0316 37.5114C40.4581 39.3143 41.1425 41.1395 42.5604 41.5882C43.9782 42.0368 45.5925 40.9389 46.166 39.136C46.7395 37.3331 46.0551 35.5078 44.6373 35.0592C43.2195 34.6106 41.6052 35.7085 41.0316 37.5114Z" fill="#FBC6D7"/>
<path d="M41.6152 37.7139C41.2415 38.8898 41.7324 40.0945 42.7116 40.4046C43.6907 40.7148 44.7874 40.013 45.1611 38.8371C45.5347 37.6612 45.0439 36.4565 44.0647 36.1464C43.0855 35.8362 41.9889 36.538 41.6152 37.7139Z" fill="#FF7CA6"/>
<path d="M41.9545 38.6484C41.9545 48.105 35.3761 55.7711 27.2613 55.7711C19.1465 55.7711 12.5681 48.105 12.5681 38.6484C12.5681 29.1918 19.1465 21.5257 27.2613 21.5257C35.3761 21.5257 41.9545 29.1918 41.9545 38.6484Z" fill="#FBC6D7"/>
<mask id="mask2_9_3114" style="mask-type:alpha" maskUnits="userSpaceOnUse" x="12" y="21" width="30" height="35">
<path d="M41.9548 38.6484C41.9548 48.105 35.3764 55.7711 27.2616 55.7711C19.1467 55.7711 12.5684 48.105 12.5684 38.6484C12.5684 29.1918 19.1467 21.5257 27.2616 21.5257C35.3764 21.5257 41.9548 29.1918 41.9548 38.6484Z" fill="#FBC6D7"/>
</mask>
<g mask="url(#mask2_9_3114)">
<path d="M41.9273 46.1643C41.9273 48.3813 40.13 50.1786 37.913 50.1786C35.6959 50.1786 33.8987 48.3813 33.8987 46.1643C33.8987 43.9473 35.6959 42.15 37.913 42.15C40.13 42.15 41.9273 43.9473 41.9273 46.1643Z" fill="#FF5E5E"/>
<path d="M21.1871 46.1643C21.1871 48.3813 19.3899 50.1786 17.1729 50.1786C14.9558 50.1786 13.1586 48.3813 13.1586 46.1643C13.1586 43.9473 14.9558 42.15 17.1729 42.15C19.3899 42.15 21.1871 43.9473 21.1871 46.1643Z" fill="#FF5E5E"/>
</g>
<path fill-rule="evenodd" clip-rule="evenodd" d="M30.2679 49.9503C30.3939 50.1619 30.3246 50.4357 30.1129 50.5618C29.1377 51.1427 28.3066 51.5026 27.4384 51.5163C26.5626 51.53 25.7258 51.1912 24.7366 50.5534C24.5296 50.42 24.47 50.1439 24.6035 49.9369C24.7369 49.7298 25.013 49.6702 25.22 49.8037C26.1477 50.4019 26.8055 50.6341 27.4244 50.6243C28.051 50.6145 28.7146 50.3564 29.6564 49.7954C29.868 49.6693 30.1418 49.7387 30.2679 49.9503Z" fill="#FF7FA8"/>
<path d="M21.6332 38.5818C21.6332 39.6903 21.134 40.5889 20.5182 40.5889C19.9023 40.5889 19.4031 39.6903 19.4031 38.5818C19.4031 37.4733 19.9023 36.5746 20.5182 36.5746C21.134 36.5746 21.6332 37.4733 21.6332 38.5818Z" fill="#361AE7"/>
<path d="M35.0141 38.5818C35.0141 39.6903 34.5149 40.5889 33.899 40.5889C33.2832 40.5889 32.7839 39.6903 32.7839 38.5818C32.7839 37.4733 33.2832 36.5746 33.899 36.5746C34.5149 36.5746 35.0141 37.4733 35.0141 38.5818Z" fill="#361AE7"/>
<path fill-rule="evenodd" clip-rule="evenodd" d="M26.6507 37.3552C26.8971 37.3552 27.0968 37.5549 27.0968 37.8012V43.9614L29.139 43.6062C29.3817 43.564 29.6127 43.7265 29.6549 43.9692C29.6971 44.2119 29.5345 44.4429 29.2918 44.4851L26.7272 44.9311C26.5975 44.9537 26.4644 44.9178 26.3636 44.833C26.2629 44.7483 26.2047 44.6233 26.2047 44.4917V37.8012C26.2047 37.5549 26.4044 37.3552 26.6507 37.3552Z" fill="#FF7FA8"/>
<path d="M12.7122 28.6715C12.7122 27.3118 13.9213 26.2709 15.2693 26.4487C24.469 27.6624 30.6274 27.6833 40.04 26.4472C41.3877 26.2702 42.5963 27.3111 42.5963 28.6704V31.3115C42.5963 32.3964 41.8125 33.3262 40.7418 33.5009C30.4471 35.1804 24.1305 35.2509 14.5228 33.527C13.4715 33.3384 12.7122 32.4173 12.7122 31.3492V28.6715Z" fill="white"/>
<mask id="mask3_9_3114" style="mask-type:alpha" maskUnits="userSpaceOnUse" x="12" y="26" width="31" height="9">
<path d="M12.7122 28.6715C12.7122 27.3118 13.9213 26.2709 15.2693 26.4487C24.469 27.6624 30.6274 27.6833 40.04 26.4472C41.3877 26.2702 42.5963 27.3111 42.5963 28.6704V31.3115C42.5963 32.3964 41.8125 33.3262 40.7418 33.5009C30.4471 35.1804 24.1305 35.2509 14.5228 33.527C13.4715 33.3384 12.7122 32.4173 12.7122 31.3492V28.6715Z" fill="white"/>
</mask>
<g mask="url(#mask3_9_3114)">
<path d="M19.1474 38.7524C17.8145 37.282 18.9854 34.8167 20.9655 34.6839C33.4438 33.8472 42.7336 27.0067 47.5907 26.3795C52.0774 25.8002 50.2682 30.6917 49.4087 32.5901C49.1914 33.07 48.7827 33.4315 48.2926 33.6246C37.6987 37.7973 31.3924 39.218 20.8031 39.4662C20.174 39.481 19.5701 39.2186 19.1474 38.7524Z" fill="#E9E9E9"/>
</g>
<path d="M13.3027 31.7994C13.7925 31.5547 16.4863 24.461 24.8124 21.7703C28.0776 26.2549 35.9792 35.175 41.4647 34.9793C43.1789 30.9025 44.3544 22.3085 35.3425 20.5473C24.0777 18.3458 13.3027 20.0581 13.3027 25.9287V31.7994Z" fill="#5236FF"/>
<defs>
<linearGradient id="paint0_linear_9_3114" x1="24.8662" y1="104.595" x2="34.2329" y2="63.5596" gradientUnits="userSpaceOnUse">
<stop stop-color="#00D355"/>
<stop offset="1" stop-color="#88FF3F"/>
</linearGradient>
<linearGradient id="paint1_linear_9_3114" x1="41.927" y1="97.0121" x2="41.927" y2="84.3002" gradientUnits="userSpaceOnUse">
<stop stop-color="#77FF9D"/>
<stop offset="1" stop-color="#77FF9D" stop-opacity="0"/>
</linearGradient>
<clipPath id="clip0_9_3114">
<rect width="55.754" height="33.4524" fill="white" transform="translate(0 63.5596)"/>
</clipPath>
</defs>
</svg>
