<svg width="500" height="500" viewBox="0 0 500 500" fill="none" xmlns="http://www.w3.org/2000/svg">
<g clip-path="url(#clip0_30_832)">
<path d="M129.117 409.552C132.91 375.643 161.581 350 195.702 350H292.298C326.419 350 355.09 375.643 358.883 409.552L369 500H119L129.117 409.552Z" fill="#FFD4C7"/>
<mask id="mask0_30_832" style="mask-type:alpha" maskUnits="userSpaceOnUse" x="119" y="350" width="250" height="150">
<path d="M129.117 409.552C132.91 375.643 161.581 350 195.702 350H292.298C326.419 350 355.09 375.643 358.883 409.552L369 500H119L129.117 409.552Z" fill="#00D355"/>
</mask>
<g mask="url(#mask0_30_832)">
<path d="M135.117 409.552C138.91 375.643 167.581 350 201.702 350H298.298C332.419 350 361.09 375.643 364.883 409.552L375 500H125L135.117 409.552Z" fill="#FFB7A0"/>
<path d="M141.117 409.552C144.91 375.643 173.581 350 207.702 350H304.298C338.419 350 367.09 375.643 370.883 409.552L381 500H131L141.117 409.552Z" fill="url(#paint0_linear_30_832)"/>
<path d="M240.756 484.411C236.809 479.192 231.081 477.6 228.711 477.456C227.09 478.524 224.236 482.889 225.783 491.799C227.718 502.937 236.838 504.528 246.548 511.47C254.316 517.024 263.595 509.955 267.263 505.727C266.411 506.237 263.172 506.438 257.033 503.161C249.36 499.065 245.69 490.933 240.756 484.411Z" fill="url(#paint1_linear_30_832)"/>
</g>
<path fill-rule="evenodd" clip-rule="evenodd" d="M175 440C176.657 440 178 441.343 178 443V500C178 501.657 176.657 503 175 503C173.343 503 172 501.657 172 500V443C172 441.343 173.343 440 175 440Z" fill="url(#paint2_linear_30_832)"/>
<path fill-rule="evenodd" clip-rule="evenodd" d="M307 440C308.657 440 310 441.343 310 443V500C310 501.657 308.657 503 307 503C305.343 503 304 501.657 304 500V443C304 441.343 305.343 440 307 440Z" fill="url(#paint3_linear_30_832)"/>
</g>
<g clip-path="url(#clip1_30_832)">
<path d="M228.061 295.334H254.414L261.353 349.241C262.914 361.37 253.467 372.112 241.238 372.112C229.008 372.112 219.561 361.37 221.122 349.241L228.061 295.334Z" fill="#FBC6D7"/>
<mask id="mask1_30_832" style="mask-type:alpha" maskUnits="userSpaceOnUse" x="220" y="295" width="42" height="78">
<path d="M228.061 295.334H254.414L261.353 349.241C262.914 361.37 253.467 372.112 241.238 372.112C229.008 372.112 219.561 361.37 221.122 349.241L228.061 295.334Z" fill="#FF7CA6"/>
</mask>
<g mask="url(#mask1_30_832)">
<path d="M229.159 295.334H255.512L258.807 312.883C249.821 326.827 237.943 328.239 220.374 332.626L229.159 295.334Z" fill="#FF7CA6"/>
</g>
<path d="M181.072 228.813C183.643 236.897 180.574 245.082 174.217 247.093C167.859 249.105 160.621 244.182 158.049 236.098C155.477 228.014 158.546 219.829 164.904 217.818C171.261 215.806 178.5 220.729 181.072 228.813Z" fill="#FBC6D7"/>
<path d="M178.455 229.721C180.131 234.994 177.93 240.396 173.539 241.786C169.149 243.177 164.231 240.03 162.556 234.758C160.88 229.485 163.081 224.083 167.472 222.692C171.862 221.302 176.78 224.449 178.455 229.721Z" fill="#FF7CA6"/>
<path d="M302.983 233.201C300.411 241.285 303.48 249.469 309.838 251.481C316.195 253.492 323.434 248.57 326.005 240.485C328.577 232.401 325.508 224.217 319.15 222.205C312.793 220.193 305.554 225.116 302.983 233.201Z" fill="#FBC6D7"/>
<path d="M305.599 234.109C303.923 239.381 306.124 244.783 310.515 246.174C314.905 247.564 319.823 244.418 321.498 239.145C323.174 233.872 320.973 228.47 316.582 227.08C312.192 225.689 307.274 228.836 305.599 234.109Z" fill="#FF7CA6"/>
<path d="M307.122 238.299C307.122 280.702 277.625 315.077 241.238 315.077C204.851 315.077 175.354 280.702 175.354 238.299C175.354 195.896 204.851 161.521 241.238 161.521C277.625 161.521 307.122 195.896 307.122 238.299Z" fill="#FBC6D7"/>
<mask id="mask2_30_832" style="mask-type:alpha" maskUnits="userSpaceOnUse" x="175" y="161" width="133" height="155">
<path d="M307.122 238.299C307.122 280.702 277.625 315.077 241.238 315.077C204.851 315.077 175.354 280.702 175.354 238.299C175.354 195.896 204.851 161.521 241.238 161.521C277.625 161.521 307.122 195.896 307.122 238.299Z" fill="#FBC6D7"/>
</mask>
<g mask="url(#mask2_30_832)">
<path d="M307 272C307 281.941 298.941 290 289 290C279.059 290 271 281.941 271 272C271 262.059 279.059 254 289 254C298.941 254 307 262.059 307 272Z" fill="#FF5E5E"/>
<path d="M214 272C214 281.941 205.941 290 196 290C186.059 290 178 281.941 178 272C178 262.059 186.059 254 196 254C205.941 254 214 262.059 214 272Z" fill="#FF5E5E"/>
</g>
<path fill-rule="evenodd" clip-rule="evenodd" d="M254.718 288.976C255.284 289.925 254.972 291.153 254.024 291.718C249.651 294.323 245.924 295.937 242.031 295.998C238.104 296.06 234.352 294.541 229.916 291.681C228.988 291.082 228.721 289.844 229.319 288.916C229.918 287.988 231.155 287.72 232.084 288.319C236.243 291.001 239.193 292.042 241.968 291.999C244.778 291.954 247.754 290.797 251.976 288.282C252.925 287.716 254.153 288.027 254.718 288.976Z" fill="#FF7FA8"/>
<path d="M216 238C216 242.971 213.761 247 211 247C208.239 247 206 242.971 206 238C206 233.029 208.239 229 211 229C213.761 229 216 233.029 216 238Z" fill="#3B2144"/>
<path d="M276 238C276 242.971 273.761 247 271 247C268.239 247 266 242.971 266 238C266 233.029 268.239 229 271 229C273.761 229 276 233.029 276 238Z" fill="#3B2144"/>
<path fill-rule="evenodd" clip-rule="evenodd" d="M238.5 232.5C239.605 232.5 240.5 233.395 240.5 234.5V262.122L249.657 260.53C250.746 260.34 251.781 261.069 251.97 262.157C252.16 263.246 251.431 264.281 250.343 264.47L238.843 266.47C238.261 266.572 237.664 266.411 237.213 266.031C236.761 265.651 236.5 265.09 236.5 264.5V234.5C236.5 233.395 237.395 232.5 238.5 232.5Z" fill="#FF7FA8"/>
</g>
<path fill-rule="evenodd" clip-rule="evenodd" d="M271.065 214.529C267.628 214.788 264.407 216.789 262.224 219.868C261.744 220.544 260.808 220.703 260.132 220.224C259.457 219.744 259.297 218.808 259.777 218.132C262.391 214.446 266.374 211.874 270.84 211.537C275.355 211.197 280.102 213.161 284.154 218.042C284.683 218.679 284.596 219.625 283.958 220.154C283.321 220.683 282.375 220.596 281.846 219.958C278.305 215.693 274.452 214.274 271.065 214.529Z" fill="#FF7FA8"/>
<path fill-rule="evenodd" clip-rule="evenodd" d="M206.065 216.529C202.628 216.788 199.407 218.789 197.224 221.868C196.744 222.544 195.808 222.703 195.132 222.224C194.457 221.744 194.297 220.808 194.777 220.132C197.391 216.446 201.374 213.874 205.84 213.537C210.355 213.197 215.102 215.161 219.154 220.042C219.683 220.679 219.596 221.625 218.958 222.154C218.321 222.683 217.375 222.596 216.846 221.958C213.305 217.693 209.452 216.274 206.065 216.529Z" fill="#FF7FA8"/>
<path fill-rule="evenodd" clip-rule="evenodd" d="M208.59 305.071C192.697 294.444 181.091 276.08 177.547 254.381C177.433 254.361 177.321 254.34 177.21 254.317C175.916 268.077 177.776 274.017 178.884 277.559C179.299 278.885 179.609 279.875 179.609 280.813C166.195 267.399 166.317 257.688 170.095 250.302C169.67 249.807 169.27 249.265 168.895 248.671C164.865 247.211 161.262 243.375 159.623 238.207C157.575 231.752 159.227 225.23 163.308 222.028C155.227 185.43 173.64 138.757 232.059 138.757C235.059 138.416 237.959 138.182 240.762 138.047C234.061 131.035 225.403 125.454 214.614 121.686C170.946 111.036 136.207 131.998 116.627 185.591C109.286 205.682 113.587 231.367 118.128 258.489C125.7 303.713 133.942 352.935 90 386.89C110.551 386.89 137.928 381.565 149.644 351.742C149.644 360.51 136.955 375.276 133.368 379.45C132.162 380.853 131.986 381.059 133.668 379.434C188.565 375.949 193.178 354.641 196.851 337.674C197.667 333.902 198.437 330.345 199.703 327.246C202.006 319.312 205.054 312.004 208.59 305.071ZM173.283 220.893L173.283 220.892C172.332 220.488 171.353 220.217 170.365 220.092C171.353 220.217 172.332 220.489 173.283 220.893Z" fill="#3D0525"/>
<path fill-rule="evenodd" clip-rule="evenodd" d="M177.337 253.029C177.404 253.481 177.474 253.932 177.547 254.381C177.434 254.361 177.321 254.34 177.209 254.317C175.916 268.077 177.775 274.018 178.884 277.559C179.299 278.885 179.609 279.875 179.609 280.813C166.195 267.399 166.317 257.688 170.095 250.302C169.67 249.807 169.269 249.264 168.895 248.67C169.494 248.888 170.104 249.052 170.717 249.161C172.043 246.868 173.692 244.808 175.338 242.934C172.469 239.651 172.752 233.243 173.106 225.259C173.168 223.85 173.233 222.391 173.283 220.892C171.018 219.93 168.59 219.719 166.281 220.451C165.185 220.799 164.19 221.336 163.308 222.028C155.227 185.43 173.64 138.757 232.059 138.757C316.431 129.177 322.172 203.564 310.388 224.633C308.758 225.072 307.179 225.902 305.747 227.055C305.536 228.564 305.321 230.069 305.106 231.568L305.106 231.568L305.106 231.569C304.689 234.484 304.276 237.375 303.902 240.215L304.141 240.476C311.604 248.594 322.48 260.427 302.094 280.813C302.094 279.875 302.404 278.885 302.819 277.559C304.15 273.307 306.563 265.6 303.305 245.056C303.283 245.246 303.262 245.436 303.24 245.625C300.045 222.194 274.483 177.46 258.507 177.46C245.726 177.46 243.241 207.283 243.596 218.998C233.372 213.886 229.395 187.046 228.685 177.46C214.2 184.277 208.449 215.448 207.384 224.324C198.863 219.211 203.833 191.306 207.384 183.851C199.432 181.863 189.034 211.951 182.298 231.44C181.164 234.721 180.134 237.701 179.237 240.178C178.336 245.067 177.725 249.319 177.337 253.029Z" fill="#4C062E"/>
<defs>
<linearGradient id="paint0_linear_30_832" x1="256" y1="350" x2="256" y2="437" gradientUnits="userSpaceOnUse">
<stop stop-color="#FFAF8D"/>
<stop offset="1" stop-color="#FFB672"/>
</linearGradient>
<linearGradient id="paint1_linear_30_832" x1="188.745" y1="462.065" x2="259.053" y2="508.354" gradientUnits="userSpaceOnUse">
<stop stop-color="white"/>
<stop offset="1" stop-color="white" stop-opacity="0"/>
</linearGradient>
<linearGradient id="paint2_linear_30_832" x1="175.5" y1="443" x2="175.5" y2="500" gradientUnits="userSpaceOnUse">
<stop stop-color="#ECAA48" stop-opacity="0"/>
<stop offset="1" stop-color="#FF9D43"/>
</linearGradient>
<linearGradient id="paint3_linear_30_832" x1="307.5" y1="443" x2="307.5" y2="500" gradientUnits="userSpaceOnUse">
<stop stop-color="#ECAA48" stop-opacity="0"/>
<stop offset="1" stop-color="#FF9D43"/>
</linearGradient>
<clipPath id="clip0_30_832">
<rect width="250" height="150" fill="white" transform="translate(119 350)"/>
</clipPath>
<clipPath id="clip1_30_832">
<rect width="177.269" height="210.591" fill="white" transform="translate(153.393 161.521)"/>
</clipPath>
</defs>
</svg>
