<svg width="60" height="87" viewBox="0 0 60 87" fill="none" xmlns="http://www.w3.org/2000/svg">
<path d="M5.40712 32.2529C5.40712 19.7329 8.10954 -1.13377 28.2549 0.093704C50.3657 -1.37924 52.0854 14.8231 52.0854 26.8521C57.2446 33.7259 56.0591 44.2724 54.2965 47.7188C58.473 59.5024 63.9887 67.5369 52.0854 69.322C49.939 69.308 30.5206 68.34 28.7463 68.34C26.7766 68.34 7.44277 68.3212 5.40712 68.34C-6.63211 66.5549 5.40712 57.2929 3.93306 50.6647C2.17048 47.2183 2.45901 38.3902 5.40712 32.2529Z" fill="#3B2144"/>
<path d="M12.5293 37.5218C12.5293 26.8142 16.5228 9.19929 28.3252 12.0133C28.3948 12.0299 28.4729 12.0315 28.5431 12.0175C40.6771 9.5905 44.3383 22.6003 44.3383 32.8887C47.8541 38.7854 47.0462 47.8329 45.8451 50.7894C48.6911 60.8981 52.4498 67.7905 44.3383 69.3219C42.8756 69.3099 29.643 68.4795 28.4338 68.4795C27.0916 68.4795 13.9165 68.4634 12.5293 68.4795C4.32514 66.9481 12.5293 59.0027 11.5248 53.3166C10.3237 50.3601 10.5203 42.7868 12.5293 37.5218Z" fill="#280434"/>
<g clip-path="url(#clip0_9_2311)">
<path d="M2.65781 69.2149C3.5645 61.1091 10.418 54.9795 18.5743 54.9795H41.6647C49.8211 54.9795 56.6746 61.1092 57.5812 69.2149L59.9997 90.8357H0.23938L2.65781 69.2149Z" fill="#B9C4FF"/>
<mask id="mask0_9_2311" style="mask-type:alpha" maskUnits="userSpaceOnUse" x="0" y="54" width="60" height="37">
<path d="M2.65781 69.2149C3.5645 61.1091 10.418 54.9795 18.5743 54.9795H41.6647C49.8211 54.9795 56.6746 61.1092 57.5812 69.2149L59.9997 90.8357H0.23938L2.65781 69.2149Z" fill="#00D355"/>
</mask>
<g mask="url(#mask0_9_2311)">
<path d="M4.09202 69.2149C4.9987 61.1091 11.8522 54.9795 20.0085 54.9795H43.099C51.2553 54.9795 58.1088 61.1092 59.0155 69.2149L61.4339 90.8357H1.67358L4.09202 69.2149Z" fill="#516DFF"/>
<path d="M5.52634 69.2149C6.43303 61.1091 13.2865 54.9795 21.4428 54.9795H44.5333C52.6896 54.9795 59.5431 61.1092 60.4498 69.2149L62.8682 90.8357H3.10791L5.52634 69.2149Z" fill="url(#paint0_linear_9_2311)"/>
</g>
<path fill-rule="evenodd" clip-rule="evenodd" d="M13.6257 76.4932C14.0217 76.4932 14.3428 76.8143 14.3428 77.2104V90.8357C14.3428 91.2318 14.0217 91.5528 13.6257 91.5528C13.2296 91.5528 12.9086 91.2318 12.9086 90.8357V77.2104C12.9086 76.8143 13.2296 76.4932 13.6257 76.4932Z" fill="url(#paint1_linear_9_2311)"/>
<path fill-rule="evenodd" clip-rule="evenodd" d="M45.1792 76.4932C45.5752 76.4932 45.8963 76.8143 45.8963 77.2104V90.8357C45.8963 91.2318 45.5752 91.5528 45.1792 91.5528C44.7831 91.5528 44.462 91.2318 44.462 90.8357V77.2104C44.462 76.8143 44.7831 76.4932 45.1792 76.4932Z" fill="url(#paint2_linear_9_2311)"/>
</g>
<g clip-path="url(#clip1_9_2311)">
<path d="M26.3083 41.912H32.6079L34.2666 54.798C34.6398 57.6973 32.3814 60.2651 29.4581 60.2651C26.5349 60.2651 24.2765 57.6973 24.6497 54.798L26.3083 41.912Z" fill="#FBC6D7"/>
<mask id="mask1_9_2311" style="mask-type:alpha" maskUnits="userSpaceOnUse" x="24" y="41" width="11" height="20">
<path d="M26.3083 41.912H32.6079L34.2666 54.798C34.6398 57.6973 32.3814 60.2651 29.4581 60.2651C26.5349 60.2651 24.2765 57.6973 24.6497 54.798L26.3083 41.912Z" fill="#FF7CA6"/>
</mask>
<g mask="url(#mask1_9_2311)">
<path d="M26.5708 41.912H32.8704L33.6579 46.107C31.5098 49.4401 28.6707 49.7776 24.4709 50.8263L26.5708 41.912Z" fill="#FF7CA6"/>
</g>
<path d="M15.076 26.0107C15.6907 27.9432 14.9571 29.8996 13.4374 30.3805C11.9177 30.8614 10.1874 29.6846 9.57267 27.7521C8.95794 25.8196 9.69156 23.8632 11.2113 23.3824C12.731 22.9015 14.4613 24.0783 15.076 26.0107Z" fill="#FBC6D7"/>
<path d="M14.4505 26.2278C14.8511 27.4882 14.3249 28.7794 13.2754 29.1118C12.2259 29.4443 11.0504 28.692 10.6499 27.4317C10.2494 26.1713 10.7755 24.88 11.825 24.5476C12.8745 24.2152 14.05 24.9674 14.4505 26.2278Z" fill="#FF7CA6"/>
<path d="M44.2178 27.0595C43.6031 28.992 44.3367 30.9484 45.8564 31.4293C47.3761 31.9101 49.1064 30.7334 49.7211 28.8009C50.3359 26.8684 49.6023 24.912 48.0826 24.4311C46.5629 23.9503 44.8326 25.127 44.2178 27.0595Z" fill="#FBC6D7"/>
<path d="M44.8433 27.2765C44.4428 28.5369 44.9689 29.8282 46.0184 30.1606C47.0679 30.493 48.2434 29.7408 48.6439 28.4804C49.0445 27.22 48.5183 25.9288 47.4688 25.5964C46.4193 25.2639 45.2438 26.0162 44.8433 27.2765Z" fill="#FF7CA6"/>
<path d="M45.2071 28.2782C45.2071 38.4143 38.1561 46.6313 29.4581 46.6313C20.7602 46.6313 13.7091 38.4143 13.7091 28.2782C13.7091 18.1421 20.7602 9.92511 29.4581 9.92511C38.1561 9.92511 45.2071 18.1421 45.2071 28.2782Z" fill="#FBC6D7"/>
<mask id="mask2_9_2311" style="mask-type:alpha" maskUnits="userSpaceOnUse" x="13" y="9" width="33" height="38">
<path d="M45.2074 28.2782C45.2074 38.4143 38.1563 46.6313 29.4584 46.6313C20.7604 46.6313 13.7094 38.4143 13.7094 28.2782C13.7094 18.1421 20.7604 9.92511 29.4584 9.92511C38.1563 9.92511 45.2074 18.1421 45.2074 28.2782Z" fill="#FBC6D7"/>
</mask>
<g mask="url(#mask2_9_2311)">
<path d="M45.1781 36.3341C45.1781 38.7105 43.2517 40.6369 40.8754 40.6369C38.499 40.6369 36.5726 38.7105 36.5726 36.3341C36.5726 33.9578 38.499 32.0314 40.8754 32.0314C43.2517 32.0314 45.1781 33.9578 45.1781 36.3341Z" fill="#FF5E5E"/>
<path d="M22.9474 36.3341C22.9474 38.7105 21.021 40.6369 18.6447 40.6369C16.2683 40.6369 14.3419 38.7105 14.3419 36.3341C14.3419 33.9578 16.2683 32.0314 18.6447 32.0314C21.021 32.0314 22.9474 33.9578 22.9474 36.3341Z" fill="#FF5E5E"/>
</g>
<path fill-rule="evenodd" clip-rule="evenodd" d="M32.6804 40.3922C32.8155 40.6191 32.7412 40.9125 32.5143 41.0476C31.469 41.6703 30.5782 42.0561 29.6476 42.0707C28.7089 42.0855 27.8119 41.7223 26.7517 41.0387C26.5297 40.8956 26.4659 40.5997 26.6089 40.3778C26.752 40.1559 27.0479 40.092 27.2698 40.2351C28.2641 40.8762 28.9692 41.1251 29.6326 41.1147C30.3042 41.1041 31.0155 40.8275 32.025 40.2262C32.2518 40.0911 32.5452 40.1654 32.6804 40.3922Z" fill="#FF7FA8"/>
<path d="M23.4253 28.2068C23.4253 29.3949 22.8902 30.3581 22.2301 30.3581C21.57 30.3581 21.0349 29.3949 21.0349 28.2068C21.0349 27.0186 21.57 26.0554 22.2301 26.0554C22.8902 26.0554 23.4253 27.0186 23.4253 28.2068Z" fill="#3B2144"/>
<path d="M37.7679 28.2068C37.7679 29.3949 37.2327 30.3581 36.5726 30.3581C35.9126 30.3581 35.3774 29.3949 35.3774 28.2068C35.3774 27.0186 35.9126 26.0554 36.5726 26.0554C37.2327 26.0554 37.7679 27.0186 37.7679 28.2068Z" fill="#3B2144"/>
<path fill-rule="evenodd" clip-rule="evenodd" d="M28.8038 26.892C29.0678 26.892 29.2819 27.1061 29.2819 27.3701V33.9729L31.4708 33.5923C31.731 33.547 31.9785 33.7212 32.0238 33.9813C32.069 34.2415 31.8948 34.489 31.6347 34.5343L28.8857 35.0124C28.7466 35.0365 28.604 34.9981 28.496 34.9072C28.388 34.8164 28.3257 34.6825 28.3257 34.5413V27.3701C28.3257 27.1061 28.5397 26.892 28.8038 26.892Z" fill="#FF7FA8"/>
<path d="M13.8636 17.5844C13.8636 16.127 15.1597 15.0113 16.6045 15.2019C26.4653 16.5027 33.0662 16.5252 43.1552 15.2003C44.5998 15.0106 45.8952 16.1262 45.8952 17.5832V20.4141C45.8952 21.577 45.0551 22.5736 43.9074 22.7608C32.873 24.561 26.1025 24.6365 15.8044 22.7888C14.6775 22.5866 13.8636 21.5994 13.8636 20.4545V17.5844Z" fill="white"/>
<mask id="mask3_9_2311" style="mask-type:alpha" maskUnits="userSpaceOnUse" x="13" y="15" width="33" height="10">
<path d="M13.8636 17.5844C13.8636 16.127 15.1597 15.0113 16.6045 15.2019C26.4653 16.5027 33.0662 16.5252 43.1552 15.2003C44.5998 15.0106 45.8952 16.1262 45.8952 17.5832V20.4141C45.8952 21.577 45.0551 22.5736 43.9074 22.7608C32.873 24.561 26.1025 24.6365 15.8044 22.7888C14.6775 22.5866 13.8636 21.5994 13.8636 20.4545V17.5844Z" fill="white"/>
</mask>
<g mask="url(#mask3_9_2311)">
<path d="M20.7612 28.3896C19.3324 26.8136 20.5875 24.1711 22.7099 24.0288C36.0849 23.132 46.0422 15.8 51.2483 15.1277C56.0574 14.5067 54.1182 19.7497 53.1969 21.7845C52.9641 22.2989 52.526 22.6864 52.0007 22.8933C40.6455 27.3659 33.8861 28.8887 22.5358 29.1548C21.8615 29.1706 21.2142 28.8893 20.7612 28.3896Z" fill="#E9E9E9"/>
</g>
<path d="M11.9324 25.2724C15.6604 22.272 23.9023 15.3713 27.0459 11.7709C31.6807 16.0713 41.978 25.0923 46.0889 26.7725C48.0032 23.9722 50.1997 17.4715 43.6707 13.8711C35.5094 9.37061 22.2096 2.46985 15.5596 13.8711C10.2397 22.9921 10.9248 25.2724 11.9324 25.2724Z" fill="#3B2144"/>
</g>
<defs>
<linearGradient id="paint0_linear_9_2311" x1="26.8925" y1="98.9631" x2="36.9322" y2="54.9795" gradientUnits="userSpaceOnUse">
<stop stop-color="#4457FF"/>
<stop offset="1" stop-color="#A6BFFF"/>
</linearGradient>
<linearGradient id="paint1_linear_9_2311" x1="13.7452" y1="77.2104" x2="13.7452" y2="90.8357" gradientUnits="userSpaceOnUse">
<stop stop-color="#1C23D6" stop-opacity="0"/>
<stop offset="1" stop-color="#1C23D6"/>
</linearGradient>
<linearGradient id="paint2_linear_9_2311" x1="45.2987" y1="77.2104" x2="45.2987" y2="90.8357" gradientUnits="userSpaceOnUse">
<stop stop-color="#1C23D6" stop-opacity="0"/>
<stop offset="1" stop-color="#1C23D6"/>
</linearGradient>
<clipPath id="clip0_9_2311">
<rect width="59.7603" height="35.8562" fill="white" transform="translate(0.23938 54.9795)"/>
</clipPath>
<clipPath id="clip1_9_2311">
<rect width="42.3746" height="50.3399" fill="white" transform="translate(8.45959 9.92511)"/>
</clipPath>
</defs>
</svg>
