<svg width="346" height="545" viewBox="0 0 346 545" fill="none" xmlns="http://www.w3.org/2000/svg">
<g clip-path="url(#clip0_10_0)">
<path d="M97.9951 501.243C107.166 499.409 117.385 501.243 182.627 501.243C247.87 501.243 285.339 499.147 303.418 496.264C321.498 493.382 361.848 500.195 350.844 509.889C339.839 519.584 232.149 533.471 213.808 525.611C195.466 517.75 52.4038 534.519 63.9326 515.392C73.1557 500.09 90.4839 499.583 97.9951 501.243Z" fill="black" fill-opacity="0.13"/>
<g clip-path="url(#clip1_10_0)">
<path d="M153.894 119.851C152.574 120.597 151.224 120.692 150.867 120.066L146.96 113.175C146.602 112.549 147.384 111.438 148.699 110.69C150.018 109.944 151.375 109.847 151.728 110.471L155.634 117.362C155.992 117.988 155.209 119.103 153.894 119.851Z" fill="#2B242A"/>
<path d="M148.958 109.427C148.958 109.427 147.268 111.41 149.904 116.057C152.539 120.703 155.112 120.271 155.112 120.271C155.112 120.271 185.186 101.662 189.18 99.4007C193.175 97.1395 189.439 88.621 184.62 91.3581C179.801 94.0951 148.958 109.427 148.958 109.427Z" fill="#BC7BFB"/>
<g style="mix-blend-mode:soft-light">
<path d="M154.673 119.277C159.874 116.062 184.205 101.032 187.767 99.0081L187.842 98.9631C184.07 96.8242 154.286 118.403 154.673 119.277Z" fill="white"/>
</g>
<g style="mix-blend-mode:multiply">
<path d="M155.024 118.422C154.448 116.473 154.335 114.449 155.225 112.562C156.35 110.16 158.319 108.297 160.32 106.608C165.057 102.615 170.074 99.1807 176.192 97.7556C180.697 96.7101 185.653 96.5759 189.726 99.0038C192.809 96.3049 189.193 88.763 184.62 91.358C179.805 94.0857 148.961 109.423 148.961 109.423C148.961 109.423 147.271 111.406 149.906 116.052C152.541 120.698 155.114 120.266 155.114 120.266L155.612 119.956C155.379 119.46 155.182 118.947 155.024 118.422Z" fill="#BC7BFB"/>
</g>
<g style="mix-blend-mode:soft-light">
<g style="mix-blend-mode:soft-light">
<path d="M157.429 118.842L148.711 113.296C148.884 113.894 149.106 114.477 149.377 115.038L156.373 119.49C156.665 119.324 157.029 119.083 157.429 118.842Z" fill="white"/>
</g>
<g style="mix-blend-mode:soft-light">
<path d="M161.789 116.147L150.225 108.79L149.057 109.382L160.728 116.805C161.076 116.585 161.429 116.367 161.789 116.147Z" fill="white"/>
</g>
<g style="mix-blend-mode:soft-light">
<path d="M167.582 112.57L156.626 105.605C156.226 105.8 155.847 105.999 155.457 106.198L166.525 113.235L167.582 112.57Z" fill="white"/>
</g>
<g style="mix-blend-mode:soft-light">
<path d="M173.383 109.002L162.991 102.397L161.827 102.992L172.302 109.656L173.383 109.002Z" fill="white"/>
</g>
<g style="mix-blend-mode:soft-light">
<path d="M179.194 105.439L169.411 99.2104L168.247 99.8054L178.122 106.074L179.194 105.439Z" fill="white"/>
</g>
<g style="mix-blend-mode:soft-light">
<path d="M185.018 101.883L175.729 96.0029C175.35 96.1903 174.958 96.3824 174.57 96.6002L183.958 102.529L185.018 101.883Z" fill="white"/>
</g>
<g style="mix-blend-mode:soft-light">
<path d="M188.547 96.8686L182.047 92.7369L180.903 93.3411L189.712 98.9383L188.547 96.8686Z" fill="white"/>
</g>
</g>
<path d="M194.503 95.8662C198.955 93.3398 235.162 93.7959 245.019 94.1256C243.096 91.5072 222.588 84.7661 222.588 84.7661C222.588 84.7661 226.551 88.7344 220.55 89.0198C212.322 89.4166 202.742 89.5915 200.83 89.6307C197.791 89.6811 197.495 88.0985 198.801 86.1013C199.593 84.885 204.709 76.6739 209.554 69.6268C211.985 66.0926 214.296 70.211 214.296 70.211C214.296 70.211 222.036 41.5484 217.733 46.0121C212.777 56.3527 195.112 85.6914 190.281 88.4168C185.45 91.1423 190.048 98.3855 194.503 95.8662Z" fill="#352E35"/>
<path d="M240.603 27.6747C260.015 16.6646 282.886 20.329 291.699 35.8653C300.048 50.5888 292.74 70.7065 275.428 82.1145C276.153 83.1204 276.979 84.1 277.599 85.1651C296.942 72.4211 305.076 49.9879 295.764 33.5568C285.94 16.2311 260.42 12.1321 238.761 24.4183C236.209 25.8616 233.774 27.5041 231.48 29.3305C232.217 30.3476 233.01 31.3234 233.854 32.2533C235.976 30.5468 238.233 29.0156 240.603 27.6747Z" fill="#BC7BFB"/>
<path d="M295.085 51.2222L294.221 51.7076L292.244 48.2622L295.031 46.6618C295.011 46.4182 294.984 46.177 294.956 45.9357L291.922 47.6594L289.957 44.214L293.421 42.2464L294.771 44.6173C294.649 43.9032 294.505 43.201 294.332 42.4966L294.026 41.9312L294.181 41.8436C294.121 41.6213 294.058 41.4037 293.999 41.1697L293.707 41.3354L291.739 37.8712L292.543 37.426L292.251 36.8324L291.433 37.3058L289.468 33.8369L290.167 33.4392L289.772 32.9001L289.139 33.26L287.371 30.1977C286.861 29.6898 286.331 29.2007 285.759 28.7259L286.195 29.5249L282.726 31.4901L280.789 28.0117L283.083 26.7118C282.876 26.5747 282.664 26.4353 282.452 26.3077L280.464 27.4371L278.698 24.3232C278.294 24.124 277.869 23.9671 277.448 23.8008L274.131 25.6715L272.164 22.2073L271.178 22.002L267.782 23.9388L266.347 21.4089L265.557 21.3643L267.216 24.2444L263.747 26.2096L261.782 22.7407L264.286 21.3224C263.834 21.3157 263.384 21.3159 262.929 21.3256L261.43 22.1756L260.994 21.4118L260.265 21.4675L260.853 22.5047L257.384 24.47L256.001 22.0359L255.313 22.1641L256.804 24.8038L253.357 26.7619L251.391 23.293L252.024 22.9331C251.044 23.2036 250.061 23.5022 249.091 23.8242L247.023 24.9963L246.839 24.7184L246.208 24.9916L246.44 25.3981L242.973 27.3118L242.575 26.6133C242.374 26.7129 242.179 26.8117 241.991 26.9096L242.396 27.6291L238.936 29.5873L238.541 28.8959L237.981 29.2507L238.355 29.9141L234.89 31.8817L234.692 31.5852C234.512 31.7245 234.335 31.8591 234.16 32.0007L234.288 32.2273L232.959 32.9803C232.146 33.674 231.362 34.3902 230.609 35.1289L232.557 38.5721L229.089 40.5374L227.739 38.1547C227.583 38.329 227.429 38.5104 227.283 38.6893L228.514 40.8618L225.059 42.834L224.664 42.1426C224.527 42.3496 224.385 42.5543 224.248 42.7613L224.477 43.1608L223.714 43.5964C223.472 43.9798 223.24 44.3679 223.013 44.7582L224.807 43.7377L226.772 47.2066L223.284 49.1626L221.906 46.7309C221.788 46.9706 221.674 47.201 221.552 47.4501L222.712 49.494L220.037 51.0094C219.857 51.505 219.687 52.0051 219.521 52.5076L221.304 55.6471L218.363 57.3117C218.318 57.5932 218.282 57.8559 218.236 58.1491L221.628 56.2218L223.598 59.693L220.129 61.6583L218.216 58.2851C218.167 58.6581 218.122 59.0333 218.096 59.3944L219.555 61.9709L217.94 62.8755C217.946 63.1239 217.953 63.3723 217.963 63.623L219.87 62.541L221.835 66.0098L218.48 67.9088C218.689 68.9286 218.955 69.9357 219.278 70.9251L220.083 72.3501L219.843 72.4827L220.116 73.1139L220.431 72.9363L222.396 76.4052L221.962 76.6468C222.078 76.8383 222.196 77.0251 222.321 77.2095L222.726 76.9822L224.43 79.9956C225.018 80.6706 225.641 81.3147 226.295 81.9253L225.597 80.6989L229.066 78.7337L231.026 82.2002L228.382 83.7014C228.57 83.8526 228.763 83.9945 228.961 84.1386L231.379 82.7888L233.344 86.2577L232.872 86.5276L233.592 86.882L233.673 86.8347L233.742 86.9561C234.08 87.1229 234.419 87.2897 234.774 87.4236L234.25 86.5056L237.719 84.5403L239.684 88.0092L238.404 88.7337C238.705 88.8234 239.001 88.9108 239.301 88.9887L240.014 88.5862L240.402 89.2682L241.275 89.4648L240.565 88.2267L243.685 86.458L245.651 89.9269L245.415 90.0619C245.806 90.0971 246.198 90.1323 246.594 90.1582L250.019 88.2119L251.146 90.2045L251.891 90.1627L250.589 87.9086L254.058 85.9434L255.826 89.0642L254.207 89.9782C254.819 89.9231 255.383 89.8331 255.978 89.7406L256.148 89.6435L256.186 89.709L256.882 89.5901L256.725 89.3144L260.194 87.3492L260.952 88.6807L261.623 88.5034L260.785 87.027L264.254 85.0618L265.478 87.2249L266.105 86.9845L264.831 84.7327L268.3 82.7674L269.77 85.3673L270.364 85.0756L268.872 82.4477L272.341 80.4825L273.842 83.1385L274.41 82.793L272.916 80.1581L276.385 78.1928L277.713 80.5358C277.895 80.4035 278.073 80.2688 278.25 80.1342L276.962 77.8637L280.431 75.8984L281.378 77.5335C281.548 77.3778 281.711 77.2245 281.879 77.0736L281.019 75.5575L284.488 73.5923L284.808 74.1295C284.968 73.9575 285.12 73.7808 285.276 73.6065L285.089 73.2748L285.995 72.7633C286.374 72.3018 286.749 71.8379 287.11 71.3671L284.76 72.6978L282.991 69.577L286.422 67.5932L287.909 70.2188C288.053 70.0211 288.195 69.8164 288.334 69.6164L286.999 67.2641L290.468 65.2988L290.721 65.745C290.837 65.5099 290.953 65.2749 291.069 65.0399L291.026 64.9604L291.145 64.8965C291.321 64.5392 291.495 64.1867 291.669 63.8341L290.697 64.3835L288.732 60.9146L292.201 58.9493L293.072 60.4887C293.174 60.2116 293.27 59.9321 293.36 59.6551L292.778 58.6202L293.88 57.9951C293.963 57.697 294.043 57.3919 294.119 57.0962L292.455 58.0292L290.49 54.5603L293.971 52.6184L294.769 54.034C294.83 53.6727 294.88 53.3115 294.927 52.9433L294.55 52.2846L295.022 52.0147C295.046 51.752 295.071 51.4894 295.085 51.2222ZM233.139 38.2219L231.174 34.753L234.643 32.7877L236.608 36.2566L233.139 38.2219ZM237.19 35.9299L235.224 32.461L238.693 30.4957L240.658 33.9646L237.19 35.9299ZM241.24 33.6378L239.275 30.1689L242.744 28.2036L244.709 31.6725L241.24 33.6378ZM245.291 31.3458L243.323 27.8816L246.792 25.9163L248.76 29.3805L245.291 31.3458ZM249.339 29.0584L247.341 25.5967L250.81 23.6315L252.775 27.1004L249.339 29.0584ZM227.365 46.8563L225.362 43.4041L228.831 41.4388L230.799 44.903L227.365 46.8563ZM231.413 44.569L229.413 41.112L232.882 39.1468L234.847 42.6157L231.413 44.569ZM235.464 42.277L233.464 38.82L236.932 36.8547L238.898 40.3236L235.464 42.277ZM239.514 39.9849L237.514 36.5279L240.983 34.5627L242.948 38.0316L239.514 39.9849ZM243.565 37.6929L241.565 34.2359L245.034 32.2706L246.999 35.7395L243.565 37.6929ZM247.616 35.4008L245.613 31.9485L249.082 29.9833L251.049 33.4475L247.616 35.4008ZM251.666 33.1088L249.699 29.6446L253.167 27.6793L255.135 31.1435L251.666 33.1088ZM255.714 30.8214L253.749 27.3525L257.218 25.3873L259.183 28.8562L255.714 30.8214ZM259.765 28.5294L257.8 25.0605L261.269 23.0952L263.234 26.5641L259.765 28.5294ZM221.881 55.3063L219.915 51.8374L223.036 50.0687L225.002 53.5376L221.881 55.3063ZM225.578 53.2085L223.613 49.7396L227.082 47.7743L229.047 51.2432L225.578 53.2085ZM229.629 50.9164L227.661 47.4522L231.13 45.487L233.098 48.9512L229.629 50.9164ZM233.677 48.6291L231.712 45.1602L235.181 43.1949L237.146 46.6638L233.677 48.6291ZM237.728 46.3371L235.763 42.8682L239.231 40.9029L241.197 44.3718L237.728 46.3371ZM241.778 44.045L239.813 40.5761L243.282 38.6109L245.247 42.0797L241.778 44.045ZM245.829 41.753L243.864 38.2841L247.333 36.3188L249.298 39.7877L245.829 41.753ZM249.88 39.4609L247.912 35.9967L251.381 34.0315L253.348 37.4957L249.88 39.4609ZM253.93 37.1689L251.963 33.7047L255.431 31.7394L257.375 35.1686L253.93 37.1689ZM257.978 34.8815L256.013 31.4126L259.482 29.4474L261.447 32.9163L257.978 34.8815ZM262.029 32.5895L260.064 29.1206L263.533 27.1553L265.498 30.6242L262.029 32.5895ZM266.079 30.2974L264.076 26.7866L267.545 24.8213L269.508 28.2949L266.079 30.2974ZM270.13 28.0054L268.165 24.5365L271.634 22.5712L273.599 26.0401L270.13 28.0054ZM224.175 59.3522L222.21 55.8833L225.34 54.1192L227.305 57.5881L224.175 59.3522ZM227.882 57.259L225.917 53.7901L229.391 51.8271L231.356 55.296L227.882 57.259ZM231.933 54.9669L229.965 51.5027L233.439 49.5398L235.406 53.004L231.933 54.9669ZM235.986 52.6702L234.02 49.2013L237.489 47.2478L239.455 50.7167L235.986 52.6702ZM240.036 50.3781L238.071 46.9093L241.54 44.944L243.505 48.4129L240.036 50.3781ZM244.087 48.0861L242.122 44.6172L245.586 42.6496L247.556 46.1208L244.087 48.0861ZM248.137 45.7941L246.172 42.3252L249.636 40.3576L251.606 43.8288L248.137 45.7941ZM252.188 43.502L250.22 40.0378L253.689 38.0726L255.657 41.5368L252.188 43.502ZM256.238 41.21L254.271 37.7458L257.735 35.7782L259.707 39.2447L256.238 41.21ZM260.287 38.9226L258.321 35.4537L261.786 33.4862L263.751 36.955L260.287 38.9226ZM264.337 36.6306L262.372 33.1617L265.836 31.1941L267.801 34.663L264.337 36.6306ZM268.388 34.3385L266.369 30.8371L269.833 28.8696L271.796 32.3432L268.388 34.3385ZM272.438 32.0465L270.473 28.5776L273.937 26.61L275.903 30.0789L272.438 32.0465ZM276.489 29.7544L274.521 26.2903L277.986 24.3227L279.953 27.7869L276.489 29.7544ZM222.489 65.7131L220.524 62.2442L223.993 60.279L225.869 63.7156L222.489 65.7131ZM226.54 63.4211L224.579 59.9545L227.7 58.1858L229.661 61.6523L226.54 63.4211ZM230.242 61.3256L228.188 57.8244L231.652 55.8568L233.617 59.3257L230.242 61.3256ZM234.293 59.0335L232.236 55.537L235.7 53.5694L237.668 57.0336L234.293 59.0335ZM238.343 56.7415L236.287 53.245L239.751 51.2774L241.718 54.7416L238.343 56.7415ZM242.392 54.4541L240.337 50.9529L243.801 48.9854L245.767 52.4542L242.392 54.4541ZM246.442 52.1621L244.388 48.6609L247.852 46.6933L249.822 50.1411L246.442 52.1621ZM250.493 49.87L248.438 46.3688L251.903 44.4013L253.868 47.8702L250.493 49.87ZM254.543 47.578L252.487 44.0815L255.951 42.1139L257.918 45.5781L254.543 47.578ZM258.594 45.2859L256.546 41.7707L260.011 39.8031L261.955 43.2674L258.594 45.2859ZM262.642 42.9986L260.588 39.4974L264.052 37.5298L266.019 40.994L262.642 42.9986ZM266.693 40.7066L264.728 37.2377L268.196 35.2724L270.162 38.7413L266.693 40.7066ZM270.743 38.4145L268.656 34.8854L272.125 32.9201L274.088 36.3937L270.743 38.4145ZM274.794 36.1225L272.829 32.6536L276.298 30.6883L278.263 34.1572L274.794 36.1225ZM278.844 33.8304L276.877 30.3662L280.346 28.401L282.313 31.8652L278.844 33.8304ZM220.667 72.0303L218.702 68.5614L222.171 66.5962L224.136 70.065L220.667 72.0303ZM224.718 69.7383L222.753 66.2694L226.222 64.3041L228.187 67.773L224.718 69.7383ZM228.768 67.4462L226.794 63.9727L229.915 62.204L231.88 65.6729L228.768 67.4462ZM232.471 65.3507L230.506 61.8818L233.97 59.9142L235.935 63.3831L232.471 65.3507ZM236.522 63.0587L234.559 59.5968L238.023 57.6292L239.99 61.0934L236.522 63.0587ZM240.572 60.7666L238.605 57.3024L242.073 55.3372L244.041 58.8014L240.572 60.7666ZM244.62 58.4793L242.655 55.0104L246.124 53.0451L248.089 56.514L244.62 58.4793ZM248.671 56.1872L246.687 52.6856L250.151 50.7181L252.114 54.1917L248.671 56.1872ZM252.721 53.8952L250.756 50.4263L254.225 48.461L256.19 51.9299L252.721 53.8952ZM256.772 51.6031L254.807 48.1342L258.273 46.1737L260.241 49.6379L256.772 51.6031ZM260.823 49.3111L258.815 45.8096L262.284 43.8444L264.247 47.318L260.823 49.3111ZM264.871 47.0238L262.906 43.5549L266.374 41.5896L268.342 45.0538L264.871 47.0238ZM268.921 44.7317L266.956 41.2628L270.425 39.2976L272.39 42.7664L268.921 44.7317ZM272.972 42.4397L270.948 38.936L274.417 36.9707L276.38 40.4443L272.972 42.4397ZM277.023 40.1476L275.057 36.6787L278.526 34.7135L280.491 38.1824L277.023 40.1476ZM281.073 37.8556L279.105 34.3914L282.574 32.4261L284.542 35.8903L281.073 37.8556ZM285.124 35.5635L283.081 32.0623L286.55 30.097L288.513 33.5706L285.124 35.5635ZM222.962 76.0762L220.996 72.6073L224.465 70.642L226.431 74.1109L222.962 76.0762ZM227.012 73.7841L225.047 70.3152L228.516 68.35L230.481 71.8189L227.012 73.7841ZM231.063 71.4921L229.098 68.0232L232.218 66.2545L234.184 69.7234L231.063 71.4921ZM234.761 69.3943L232.795 65.9254L236.264 63.9601L238.23 67.429L234.761 69.3943ZM238.811 67.1022L236.844 63.638L240.313 61.6728L242.28 65.1369L238.811 67.1022ZM242.859 64.8149L240.894 61.346L244.363 59.3807L246.331 62.8449L242.859 64.8149ZM246.91 62.5228L244.945 59.0539L248.414 57.0887L250.379 60.5576L246.91 62.5228ZM250.961 60.2308L248.974 56.7339L252.443 54.7686L254.406 58.2422L250.961 60.2308ZM255.011 57.9387L253.046 54.4698L256.515 52.5046L258.48 55.9735L255.011 57.9387ZM259.062 55.6467L257.096 52.1778L260.563 50.2172L262.531 53.6814L259.062 55.6467ZM263.112 53.3546L261.107 49.8602L264.576 47.8949L266.539 51.3685L263.112 53.3546ZM267.16 51.0673L265.195 47.5984L268.664 45.6331L270.629 49.102L267.16 51.0673ZM271.211 48.7752L269.246 45.3064L272.715 43.3411L274.68 46.81L271.211 48.7752ZM275.262 46.4832L273.24 42.9865L276.709 41.0213L278.672 44.4948L275.262 46.4832ZM279.312 44.1912L277.347 40.7223L280.816 38.757L282.781 42.2259L279.312 44.1912ZM283.363 41.8991L281.395 38.4349L284.866 36.465L286.832 39.9339L283.363 41.8991ZM287.413 39.6071L285.373 36.1128L288.842 34.1476L290.805 37.6212L287.413 39.6071ZM225.265 80.1032L223.3 76.6343L226.769 74.6691L228.734 78.138L225.265 80.1032ZM229.316 77.8112L227.351 74.3423L230.82 72.377L232.785 75.8459L229.316 77.8112ZM233.366 75.5191L231.401 72.0502L234.522 70.2815L236.487 73.7504L233.366 75.5191ZM237.064 73.4213L235.062 69.9573L238.53 67.9921L240.496 71.461L237.064 73.4213ZM241.115 71.1293L239.119 67.6512L242.588 65.6859L244.565 69.1665L241.115 71.1293ZM245.165 68.8372L243.16 65.3779L246.629 63.4127L248.597 66.8769L245.165 68.8372ZM249.214 66.5499L247.211 63.0859L250.68 61.1206L252.645 64.5895L249.214 66.5499ZM253.264 64.2578L251.266 60.7844L254.735 58.8192L256.698 62.2928L253.264 64.2578ZM257.315 61.9658L255.312 58.5018L258.781 56.5365L260.746 60.0054L257.315 61.9658ZM261.365 59.6737L259.363 56.2098L262.831 54.2445L264.797 57.7134L261.365 59.6737ZM265.416 57.3817L263.413 53.9177L266.882 51.9524L268.831 55.4191L265.416 57.3817ZM269.466 55.0897L267.461 51.6304L270.93 49.6651L272.898 53.1293L269.466 55.0897ZM273.515 52.8023L271.512 49.3383L274.967 47.3427L276.932 50.8116L273.515 52.8023ZM277.565 50.5103L275.532 47.0371L279.001 45.0718L280.964 48.5454L277.565 50.5103ZM281.616 48.2182L279.651 44.7493L283.119 42.7841L285.085 46.253L281.616 48.2182ZM285.666 45.9262L283.699 42.462L287.1 40.469L289.065 43.9379L285.666 45.9262ZM289.717 43.6341L287.665 40.1634L291.134 38.1981L293.097 41.6717L289.717 43.6341ZM231.596 81.8735L229.631 78.4046L233.1 76.4394L235.06 79.906L231.596 81.8735ZM235.647 79.5815L233.682 76.1126L236.802 74.3439L238.768 77.8128L235.647 79.5815ZM239.345 77.4837L237.379 74.0148L240.848 72.0495L242.814 75.5184L239.345 77.4837ZM243.395 75.1916L241.425 71.7087L244.894 69.7434L246.862 73.2076L243.395 75.1916ZM247.446 72.8996L245.478 69.4354L248.947 67.4701L250.915 70.9343L247.446 72.8996ZM251.494 70.6122L249.529 67.1433L252.998 65.1781L254.963 68.647L251.494 70.6122ZM255.545 68.3202L253.558 64.835L257.027 62.8697L258.99 66.3433L255.545 68.3202ZM259.595 66.0281L257.63 62.5592L261.099 60.594L263.064 64.0629L259.595 66.0281ZM263.646 63.7361L261.68 60.2672L265.126 58.2669L267.086 61.7335L263.646 63.7361ZM267.696 61.444L265.691 57.9613L269.16 55.9961L271.118 59.4673L267.696 61.444ZM271.747 59.152L269.779 55.6878L273.248 53.7225L275.211 57.1844L271.747 59.152ZM275.795 56.8647L273.83 53.3958L277.259 51.3932L279.219 54.8598L275.795 56.8647ZM279.846 54.5726L277.824 51.0876L281.293 49.1224L283.251 52.5937L279.846 54.5726ZM283.896 52.2806L281.931 48.8117L285.4 46.8464L287.36 50.313L283.896 52.2806ZM287.947 49.9885L285.979 46.5243L289.45 44.5544L291.411 48.0209L287.947 49.9885ZM233.952 85.9495L231.986 82.4806L235.451 80.513L237.416 83.9819L233.952 85.9495ZM238.002 83.6575L236.037 80.1886L239.087 78.3851L241.053 81.854L238.002 83.6575ZM241.7 81.5596L239.735 78.0907L243.204 76.1255L245.169 79.5944L241.7 81.5596ZM245.751 79.2676L243.717 75.7593L247.184 73.7987L249.147 77.2606L245.751 79.2676ZM249.801 76.9755L247.834 73.5114L251.303 71.5461L253.265 75.008L249.801 76.9755ZM253.852 74.6835L251.884 71.2193L255.348 69.2517L257.314 72.7206L253.852 74.6835ZM257.9 72.3962L255.85 68.8856L259.338 66.9296L261.298 70.3961L257.9 72.3962ZM261.951 70.1041L259.985 66.6352L263.45 64.6676L265.415 68.1365L261.951 70.1041ZM266.001 67.8121L264.036 64.3432L267.413 62.3152L269.378 65.7841L266.001 67.8121ZM270.052 65.52L267.983 62.0119L271.447 60.0443L273.41 63.5179L270.052 65.52ZM274.102 63.228L272.135 59.7638L275.599 57.7962L277.566 61.2604L274.102 63.228ZM278.151 60.9406L276.19 57.4741L279.546 55.4415L281.511 58.9104L278.151 60.9406ZM282.201 58.6486L280.116 55.1382L283.58 53.1706L285.543 56.6442L282.201 58.6486ZM286.252 56.3565L284.286 52.8877L287.751 50.9201L289.716 54.389L286.252 56.3565ZM290.302 54.0645L288.335 50.6003L291.806 48.6303L293.771 52.0992L290.302 54.0645ZM282.505 69.9454L284.274 73.0662L280.805 75.0315L279.037 71.9106L282.505 69.9454ZM278.457 72.2327L280.226 75.3536L276.757 77.3188L274.855 74.1613L278.457 72.2327ZM274.313 74.4784L276.081 77.5993L272.613 79.5645L270.844 76.4437L274.313 74.4784ZM270.262 76.7705L272.031 79.8913L268.562 81.8566L266.793 78.7357L270.262 76.7705ZM266.212 79.0625L267.98 82.1834L264.511 84.1486L262.722 81.0349L266.212 79.0625ZM262.166 81.3452L263.934 84.466L260.465 86.4313L258.697 83.3104L262.166 81.3452ZM258.115 83.6372L259.886 86.7533L256.417 88.7186L254.646 85.6025L258.115 83.6372ZM288.185 61.2412L290.151 64.7101L286.682 66.6753L284.695 63.237L288.185 61.2412ZM284.135 63.5332L286.1 67.0021L282.631 68.9674L280.666 65.4985L284.135 63.5332ZM280.084 65.8253L282.052 69.2894L278.583 71.2664L276.615 67.8022L280.084 65.8253ZM276.034 68.1173L277.994 71.619L274.525 73.5843L272.563 70.1107L276.034 68.1173ZM271.985 70.4046L273.951 73.8735L270.482 75.8388L268.516 72.3699L271.985 70.4046ZM267.935 72.6967L269.9 76.1656L266.431 78.1308L264.466 74.662L267.935 72.6967ZM263.884 74.9887L265.849 78.4576L262.385 80.4252L260.415 76.954L263.884 74.9887ZM259.834 77.2808L261.799 80.7497L258.33 82.7149L256.365 79.246L259.834 77.2808ZM255.783 79.5728L257.751 83.037L254.282 85.0023L252.314 81.5381L255.783 79.5728ZM251.735 81.8602L253.752 85.378L250.288 87.3456L248.301 83.8604L251.735 81.8602ZM247.684 84.1522L249.65 87.6211L246.185 89.5887L244.22 86.1198L247.684 84.1522ZM240.193 87.6406L238.228 84.1718L241.344 82.4007L243.309 85.8696L240.193 87.6406ZM243.891 85.5428L241.926 82.0739L245.39 80.1064L247.355 83.5752L243.891 85.5428ZM247.942 83.2508L246.009 79.8098L249.471 77.8469L251.439 81.3111L247.942 83.2508ZM251.992 80.9587L250.034 77.5109L253.498 75.5433L255.466 79.0075L251.992 80.9587ZM256.04 78.6714L254.085 75.2188L257.572 73.2394L259.537 76.7083L256.04 78.6714ZM260.091 76.3793L258.133 72.9315L261.597 70.9639L263.562 74.4328L260.091 76.3793ZM264.141 74.0873L262.172 70.6161L265.64 68.6508L267.606 72.1197L264.141 74.0873ZM268.192 71.7953L266.236 68.3427L269.705 66.3657L271.67 69.8346L268.192 71.7953ZM272.243 69.5032L270.28 66.0648L273.744 64.0972L275.702 67.5685L272.243 69.5032ZM276.293 67.2112L274.335 63.7633L277.804 61.7981L279.772 65.2623L276.293 67.2112ZM280.341 64.9238L278.386 61.4713L281.838 59.492L283.803 62.9609L280.341 64.9238ZM284.392 62.6318L282.427 59.198L285.896 57.2328L287.835 60.6948L284.392 62.6318ZM291.902 58.3698L288.438 60.3374L286.468 56.8662L289.937 54.9009L291.902 58.3698Z" fill="url(#paint0_linear_10_0)"/>
<path d="M279.668 83.7657C278.664 82.977 277.723 82.1111 276.855 81.1758C275.458 82.1664 274.012 83.086 272.523 83.9312C253.085 94.9227 230.238 91.2699 221.427 75.7405C213.37 61.5638 219.807 42.4425 235.712 30.8317C234.852 29.9173 234.096 28.9101 233.459 27.8285C215.598 40.7654 208.346 62.1905 217.332 78.0282C227.154 95.3586 252.662 99.446 274.335 87.1666C276.175 86.1343 277.956 84.9988 279.668 83.7657Z" fill="#352E35"/>
<path d="M239.354 28.4084L236.904 25.5188C234.434 27.0452 232.088 28.7648 229.889 30.6614L232.329 33.5464C234.517 31.633 236.867 29.9138 239.354 28.4084Z" fill="#D1D1D1"/>
<path d="M274.125 82.9446L276.57 85.8319C279.027 84.2841 281.36 82.5467 283.547 80.6356L281.098 77.746C278.93 79.6796 276.597 81.4192 274.125 82.9446Z" fill="#D1D1D1"/>
<g style="mix-blend-mode:soft-light">
<path d="M292.672 35.1003C301.336 50.3821 293.477 71.3091 275.135 82.5427C275.652 82.2835 276.162 82.0087 276.663 81.7183C295.662 70.9778 302.984 50.0023 294.107 34.3116C285.23 18.6209 262.181 15.8739 246.076 23.7057C241.234 26.0749 236.669 28.9751 232.468 32.3527C234.632 30.9363 242.824 25.3978 249.035 23.1191C266.442 16.7 284.908 21.4187 292.672 35.1003Z" fill="white"/>
</g>
<path d="M218.842 77.4054C209.779 61.4181 219.017 45.243 222.55 38.8573C212.686 50.2785 210.347 65.7411 217.431 78.2057C225.188 91.8897 242.665 96.4828 257.619 93.1083C248.879 94.1525 226.961 91.7294 218.842 77.4054Z" fill="#2B242A"/>
<path d="M195.041 96.8146C194.748 96.9536 194.412 96.9716 194.106 96.8645C193.8 96.7575 193.548 96.5341 193.406 96.2429L189.499 89.3518C189.321 89.0802 189.258 88.749 189.324 88.431C189.39 88.1129 189.579 87.834 189.85 87.6554C190.143 87.515 190.479 87.4963 190.786 87.6035C191.092 87.7106 191.344 87.9349 191.485 88.2271L195.389 95.1112C195.567 95.3839 195.63 95.7156 195.565 96.0345C195.5 96.3534 195.311 96.6337 195.041 96.8146Z" fill="#2B242A"/>
<path d="M189.478 88.5961L185.617 90.7855L190.177 98.8266L194.038 96.6372L189.478 88.5961Z" fill="#161013"/>
<path d="M190.492 99.3931C190.199 99.5334 189.862 99.5517 189.554 99.4442C189.247 99.3366 188.995 99.1118 188.853 98.819L184.949 91.9349C184.771 91.6623 184.708 91.3305 184.773 91.0116C184.839 90.6927 185.027 90.4124 185.298 90.2315C185.591 90.0922 185.929 90.0749 186.235 90.1834C186.542 90.2918 186.793 90.5172 186.934 90.8103L190.839 97.6943C191.015 97.9663 191.078 98.2968 191.013 98.6145C190.948 98.9323 190.761 99.2119 190.492 99.3931Z" fill="#2B242A"/>
</g>
<path d="M150.277 208.043C148.6 202.803 149.578 162.19 150.277 142.538L159.832 145.945C159.046 153.805 168.356 178.697 168.356 180.829C173.927 177.275 183.354 174.593 189.318 173.457C193.073 177.562 200.322 186.086 199.274 187.344C197.964 188.916 152.373 214.594 150.277 208.043Z" fill="#FF7CA6"/>
<mask id="mask0_10_0" style="mask-type:alpha" maskUnits="userSpaceOnUse" x="149" y="142" width="51" height="68">
<path d="M150.277 208.043C148.6 202.803 149.578 162.19 150.277 142.538L159.832 145.945C159.046 153.805 168.356 178.697 168.356 180.829C173.927 177.275 183.354 174.593 189.318 173.457C193.073 177.562 200.322 186.086 199.274 187.344C197.964 188.916 152.373 214.594 150.277 208.043Z" fill="#FF7CA6"/>
</mask>
<g mask="url(#mask0_10_0)">
<path d="M147.133 211.712C145.456 206.471 146.434 165.858 147.133 146.207L156.687 149.613C155.901 157.474 165.212 182.365 165.212 184.498C170.783 180.944 180.209 178.261 186.173 177.125C189.929 181.23 197.178 189.754 196.13 191.012C194.82 192.584 149.229 218.262 147.133 211.712Z" fill="#FB94B5"/>
<path d="M145.56 216.952C143.883 211.711 144.862 171.099 145.56 151.447L154.591 147.779C153.805 155.639 163.64 187.606 163.64 189.738C169.21 186.184 178.637 183.501 184.601 182.365C188.357 186.47 195.606 194.995 194.558 196.252C193.248 197.824 147.657 223.502 145.56 216.952Z" fill="#FFAFC9"/>
<path d="M150.923 155.639C151.133 154.172 150.137 149.613 149.613 147.517L142.014 208.305C145.77 209.441 153.648 211.816 155.115 212.236C156.949 212.76 170.119 204.239 168.216 204.375C160.88 204.899 152.757 208.043 151.971 206.995C151.185 205.947 151.447 204.113 151.447 200.707C151.447 197.971 151.185 184.461 150.923 182.365C150.661 180.269 150.923 175.029 150.923 173.719C150.923 172.409 150.661 157.474 150.923 155.639Z" fill="#FEF2F7"/>
</g>
<path d="M204.047 433.887C197.941 426.363 210.073 337.267 216.903 293.659C229.881 288.791 243.729 273.037 249.03 265.768C249.122 266.991 250.833 271.579 256.943 280.151C263.053 288.723 266.874 297.321 268.022 300.548C268.972 331.359 252.96 386.19 244.835 409.754C269.975 411.935 298.407 439.208 309.711 452.894L304.017 472.304C300.427 469.871 287.317 462.617 263.596 453.061C233.944 441.115 211.68 443.292 204.047 433.887Z" fill="url(#paint1_linear_10_0)"/>
<mask id="mask1_10_0" style="mask-type:alpha" maskUnits="userSpaceOnUse" x="202" y="265" width="108" height="208">
<path d="M204.047 433.887C197.941 426.363 210.073 337.267 216.903 293.659C229.881 288.791 243.729 273.037 249.03 265.768C249.122 266.991 250.833 271.579 256.943 280.151C263.053 288.723 266.874 297.321 268.022 300.548C268.972 331.359 252.96 386.19 244.835 409.754C269.975 411.935 298.407 439.208 309.711 452.894L304.017 472.304C300.427 469.871 287.317 462.617 263.596 453.061C233.944 441.115 211.68 443.292 204.047 433.887Z" fill="#F89AB8"/>
</mask>
<g mask="url(#mask1_10_0)">
<path d="M197.778 439.15C191.672 431.626 203.804 342.53 210.633 298.922C223.612 294.054 235.567 276.211 240.868 268.942C240.96 270.165 244.563 276.842 250.673 285.414C256.783 293.986 249.575 295.549 250.722 298.777C251.645 328.709 248.58 382.768 240.846 407.551C240.265 408.529 240.103 409.568 239.963 410.313C239.887 410.718 239.978 411.153 240.269 411.444C240.776 411.949 241.596 412.683 242.175 412.787C268.13 416.885 309.276 455.354 320.197 468.577L297.747 477.567C294.157 475.134 281.047 467.88 257.326 458.324C227.674 446.378 205.411 448.555 197.778 439.15Z" fill="#FBC6D7"/>
<mask id="mask2_10_0" style="mask-type:alpha" maskUnits="userSpaceOnUse" x="196" y="268" width="125" height="210">
<path d="M197.778 439.15C191.672 431.626 203.804 342.53 210.633 298.922C223.612 294.054 235.567 276.211 240.868 268.942C240.96 270.165 244.563 276.842 250.673 285.414C256.783 293.986 249.575 295.549 250.722 298.777C251.645 328.709 248.58 382.768 240.846 407.551C240.265 408.529 240.103 409.568 239.963 410.313C239.887 410.718 239.978 411.153 240.269 411.444C240.776 411.949 241.596 412.683 242.175 412.787C268.13 416.885 309.276 455.354 320.197 468.577L297.747 477.567C294.157 475.134 281.047 467.88 257.326 458.324C227.674 446.378 205.411 448.555 197.778 439.15Z" fill="#FBC6D7"/>
</mask>
<g mask="url(#mask2_10_0)">
<path d="M234.178 391.068C239.535 350.96 229.504 314.575 234.468 310.365C256.083 370.377 320.664 467.16 316.253 464.661L306.82 464.695C301.254 447.16 247.203 426.394 237.208 415.949C233.37 411.938 233.238 396.749 234.178 391.068Z" fill="#FEB3CB"/>
</g>
<path d="M218.559 330.86C221.672 322.254 225.256 299.044 223.905 287.869C201.956 304.456 196.619 422.647 196.654 432.342C196.683 440.097 257.6 475.704 288.056 492.537L315.495 472.262C303.408 462.961 256.652 445.487 251.187 441.315C244.356 436.099 215.265 434.37 211.843 429.928C208.421 425.486 211.752 404.775 211.702 391.15C211.653 377.525 214.667 341.617 218.559 330.86Z" fill="#FEF2F7"/>
</g>
<path d="M219.057 306.3L188.662 275.12C150.67 309.707 144.119 339.577 136.783 353.202C129.446 366.827 131.542 363.158 125.516 383.072C119.489 402.985 95.9077 454.865 96.4317 463.25C96.8509 469.958 107.087 470.237 112.153 469.538C156.801 403.3 161.238 380.801 157.482 377.57C187.876 358.285 210.934 321.847 219.057 306.3Z" fill="#FF7CA6"/>
<mask id="mask3_10_0" style="mask-type:alpha" maskUnits="userSpaceOnUse" x="96" y="275" width="124" height="195">
<path d="M219.057 306.3L188.662 275.12C150.67 309.707 144.119 339.577 136.783 353.202C129.446 366.827 131.542 363.158 125.516 383.072C119.489 402.985 95.9077 454.865 96.4317 463.25C96.8509 469.958 107.087 470.237 112.153 469.538C156.801 403.3 161.238 380.801 157.482 377.57C187.876 358.285 210.934 321.847 219.057 306.3Z" fill="#FF7CA6"/>
</mask>
<g mask="url(#mask3_10_0)">
<path d="M213.816 306.3L183.422 275.12C145.429 309.707 138.879 339.577 131.542 353.202C124.206 366.827 126.302 363.158 120.275 383.072C114.249 402.985 90.6672 454.865 91.1912 463.25C91.6104 469.958 101.847 470.237 106.912 469.538C145.996 411.555 151.821 391.282 152.757 380.19C152.89 378.61 154.067 377.046 153.805 375.473C155.139 374.627 157.22 374.015 158.522 373.115C186.869 353.518 206.05 321.165 213.816 306.3Z" fill="#FEB3CB"/>
<path d="M203.065 291.103L180.278 271.452C142.285 306.038 135.734 335.909 128.398 349.534C121.061 363.159 123.157 359.49 117.131 379.404C111.105 399.317 87.5229 451.197 88.0469 459.582C88.4662 466.289 99.7419 467.879 104.808 467.18C121.053 442.026 145.271 390.496 146.207 379.404C146.34 377.824 147.517 376.259 147.255 374.687C148.589 373.841 154.076 370.347 155.377 369.447C183.725 349.85 195.299 305.968 203.065 291.103Z" fill="#FBC6D7"/>
<path d="M162.714 314.161C165.02 311.226 183.064 289.007 191.798 278.264C190.663 276.343 187.501 272.814 183.937 274.072C179.483 275.644 164.286 285.077 141.228 306.824C118.171 328.572 88.0384 459.32 86.4663 462.726C85.2086 465.451 92.9295 466.307 96.9471 466.394C104.371 447.267 119.848 407.545 122.363 401.675C125.507 394.339 134.94 365.517 136.25 362.111C137.56 358.704 159.832 317.829 162.714 314.161Z" fill="#FEF2F7"/>
</g>
<path d="M226.385 350.058C202.698 319.035 178.26 300.449 169.002 295.034C170.26 291.051 181.579 280.273 187.082 275.382C208.253 311.017 237.651 287.435 249.704 271.19C278.631 287.33 270.666 325.079 263.067 341.935C254.595 345.429 237.651 351.944 237.651 350.058V332.764C234.088 337.795 228.655 346.389 226.385 350.058Z" fill="url(#paint2_linear_10_0)"/>
<mask id="mask4_10_0" style="mask-type:alpha" maskUnits="userSpaceOnUse" x="169" y="271" width="102" height="80">
<path d="M226.385 350.058C202.698 319.035 178.26 300.449 169.002 295.034C170.26 291.051 181.579 280.273 187.082 275.382C208.253 311.017 237.651 287.435 249.704 271.19C278.631 287.33 270.666 325.079 263.067 341.935C254.595 345.429 237.651 351.944 237.651 350.058V332.764C234.088 337.795 228.655 346.389 226.385 350.058Z" fill="url(#paint3_linear_10_0)"/>
</mask>
<g mask="url(#mask4_10_0)">
<path d="M167.692 287.697C176.723 294.342 182.446 297.095 197.562 312.589C214.594 326.738 225.716 339.708 229.529 343.507C235.842 349.798 233.826 347.916 234.245 349.534C250.49 345.341 263.539 340.468 271.714 334.599" stroke="white" stroke-opacity="0.5" stroke-width="1.14496"/>
<path d="M243.154 276.701C249.268 276.177 270.404 298.449 253.11 349.543" stroke="white" stroke-opacity="0.49" stroke-width="1.14496"/>
<path d="M235.293 303.68C234.245 308.659 227.782 311.279 224.288 312.327V308.397C227.433 309.864 231.887 307.349 235.293 303.68Z" fill="url(#paint4_linear_10_0)"/>
<path d="M198.873 298.702C205.86 302.021 222.612 306.667 233.721 298.702C231.363 305.34 221.092 314.633 198.873 298.702Z" fill="url(#paint5_linear_10_0)"/>
<path d="M247.87 270.507C251.787 272.688 258.442 283.967 260.971 302.108C262.029 309.699 265.347 316.769 263.329 325.428C261.674 332.53 257.595 343.488 252.848 350.685L282.981 338.37C281.059 317.408 275.225 274.489 267.26 270.507C259.294 266.524 251.014 268.847 247.87 270.507Z" fill="#0017DF" fill-opacity="0.5"/>
<path d="M174.243 293.986C177.649 297.654 194.156 312.851 193.894 315.209L166.644 294.772L169.264 285.863L186.82 272.762C192.06 275.295 201.807 281.147 198.873 284.291C195.938 287.435 191.711 284.029 189.964 281.933C184.723 284.291 183.675 284.291 181.841 285.863C180.007 290.841 174.243 293.462 174.243 293.986Z" fill="url(#paint6_linear_10_0)"/>
</g>
<path d="M240.608 221.668C242.285 240.743 249.168 264.203 252.399 273.548C220.171 318.877 190.825 290.579 187.68 280.361C185.165 272.186 185.41 240.097 185.846 225.075C178.772 221.668 164.361 203.589 175.365 194.68C184.169 187.553 200.532 173.981 209.091 166.382H223.764C241.058 179.221 238.512 197.825 240.608 221.668Z" fill="url(#paint7_linear_10_0)"/>
<mask id="mask5_10_0" style="mask-type:alpha" maskUnits="userSpaceOnUse" x="171" y="166" width="82" height="133">
<path d="M240.608 221.668C242.285 240.743 249.168 264.203 252.399 273.548C220.171 318.877 190.825 290.579 187.68 280.361C185.165 272.186 185.41 240.097 185.846 225.075C178.772 221.668 164.361 203.589 175.365 194.68C184.169 187.553 200.532 173.981 209.091 166.382H223.764C241.058 179.221 238.512 197.825 240.608 221.668Z" fill="url(#paint8_linear_10_0)"/>
</mask>
<g mask="url(#mask5_10_0)">
<path d="M227.957 186.818C227.957 199.117 218.817 205.423 207.193 205.423C195.568 205.423 184.461 195.453 184.461 183.153C184.461 170.854 193.601 164.548 205.225 164.548C216.849 164.548 227.957 174.519 227.957 186.818Z" fill="#6B85FF"/>
<path d="M225.996 186.129C225.996 197.325 217.517 203.065 206.733 203.065C195.949 203.065 184.461 193.203 184.461 182.008C184.461 170.812 192.94 165.072 203.724 165.072C214.508 165.072 225.996 174.934 225.996 186.129Z" fill="#4464FE"/>
<path d="M190.226 241.77C191.691 235.798 182.974 226.515 180.793 224.026L176.601 279.175L182.881 287.173C191.518 284.774 185.075 272.166 190.226 261.233C193.366 254.568 188.394 249.235 190.226 241.77Z" fill="url(#paint9_linear_10_0)"/>
<path d="M195.445 251.014C197.279 259.836 190.466 271.452 212.214 285.077C198.589 285.077 188.946 279.103 195.445 251.014Z" fill="url(#paint10_linear_10_0)"/>
<path d="M197.185 255.014C198.514 257.757 197.28 262.128 205.451 264.808C201.044 265.929 197.427 264.762 197.185 255.014Z" fill="url(#paint11_linear_10_0)"/>
<path d="M231.218 201.159C231.218 193.298 231.06 184.998 225.83 178.173C230.1 179.736 236.196 190.154 231.218 201.159Z" fill="url(#paint12_linear_10_0)"/>
<path d="M184.985 225.075C191.932 224.004 195.466 225.861 206.823 219.048C204.941 221.133 187.606 237.389 184.985 225.075Z" fill="#4262FE"/>
<path d="M274.072 252.999C269.236 262.683 261.456 252.999 252.52 252.999C236.224 232.472 239.153 207.367 236.224 189.329C227.551 158.276 201.268 170.629 189.178 162.734C196.887 156.506 227.183 150.249 236.224 158.67C247.526 169.197 274.072 241.683 274.072 252.999Z" fill="#2D42FF"/>
<path d="M169.788 203.836L180.269 180.516L186.558 183.851L184.723 188.654C183.085 192.229 179.434 197.887 174.767 200.985C172.409 200.985 174.102 210.786 173.457 211.172C172.344 211.838 170.62 203.468 169.788 203.836Z" fill="url(#paint13_linear_10_0)"/>
</g>
<path d="M337.201 460.916L331.688 458.054C323.278 523.328 301.266 522.622 292.324 513.483C314.696 541.176 332.052 486.089 332.312 485.564C338.36 477.158 340.89 466.668 341.131 460.902L337.201 460.916Z" fill="#CAF4F3"/>
<path d="M309.383 448.702C309.186 451.598 308.277 455.838 304.837 461.833C302.78 459.402 299.907 456.202 298.402 455.293C295.788 457.136 292.682 467.628 291.9 468.679C293.582 470.35 296.98 472.853 298.469 473.896C293.053 483.348 291.941 504.227 292.062 513.484C314.151 535.414 329.438 487.758 334.32 461.189C331.574 455.33 319.352 452.16 313.584 451.307L309.383 448.702Z" fill="#F6FEFD"/>
<path d="M295.034 504.649C297.13 506.745 302.108 508.841 308.659 504.649" stroke="#14D1A4" stroke-width="3.43487" stroke-linecap="round" stroke-linejoin="round"/>
<path d="M296.082 497.312C298.178 499.408 304.728 500.981 309.707 497.312" stroke="#14D1A4" stroke-width="3.43487" stroke-linecap="round" stroke-linejoin="round"/>
<path d="M298.178 490.5C299.79 491.861 303.418 493.382 308.659 490.5" stroke="#14D1A4" stroke-width="3.43487" stroke-linecap="round" stroke-linejoin="round"/>
<path d="M292.316 511.387C298.449 516.605 312.991 519.068 322.099 487.173" stroke="#CEF4F4" stroke-width="2.28992" stroke-linecap="round" stroke-linejoin="round"/>
<path d="M318.3 472.531C310.224 474.206 306.443 474.711 301.276 474.689C301.282 476.366 302.161 477.655 302.599 478.09C308.683 479.535 315.601 474.986 318.3 472.531Z" stroke="#14D1A4" stroke-width="1.14496" stroke-linecap="round"/>
<path d="M301.282 476.261C304.435 478.608 310.535 484.402 309.712 488.807C307.611 487.417 302.983 482.962 301.282 476.261Z" stroke="#14D1A4" stroke-width="1.14496"/>
<path d="M283.749 482.411C291.146 478.947 292.796 477.933 299.704 474.764C300.083 476.578 299.638 476.557 299.559 477.17C294.763 485.001 287.386 482.695 283.749 482.411Z" stroke="#14D1A4" stroke-width="1.14496" stroke-linecap="round"/>
<path d="M300.017 475.829C297.751 479.041 293.758 486.446 295.911 490.376C297.476 488.402 300.486 482.727 300.017 475.829Z" stroke="#14D1A4" stroke-width="1.14496"/>
<circle cx="300.754" cy="475.215" r="0.737609" transform="rotate(-0.207545 300.754 475.215)" fill="#14D1A4" stroke="#14D1A4" stroke-width="1.14496"/>
<path d="M74.9669 519.838C56.2898 523.95 57.0583 510.658 59.7772 503.498C63.9588 524.564 95.5741 511.161 110.859 501.826C110.909 502.737 110.971 504.71 110.823 505.322C110.638 506.086 98.3134 514.698 74.9669 519.838Z" fill="#C5F4F2"/>
<path d="M108.816 492.437C111.558 485.552 112.793 474.076 112.668 469.014C110.434 469.337 99.9026 466.112 95.3154 464.644C93.9612 470.247 88.2582 480.46 85.6752 483.34C70.5738 489.61 62.1177 499.391 59.7773 503.498C57.3191 530.399 108.741 507.245 110.551 503.1C112 499.784 109.998 494.609 108.816 492.437Z" fill="#F1FEFC"/>
<path d="M69.173 493.644C70.6578 493.906 74.361 495.478 77.2956 499.671" stroke="#14D1A4" stroke-width="3.43487" stroke-linecap="round" stroke-linejoin="round"/>
<path d="M75.9855 488.404C77.4703 488.666 81.1735 490.238 84.1081 494.43" stroke="#14D1A4" stroke-width="3.43487" stroke-linecap="round" stroke-linejoin="round"/>
<path d="M83.846 483.688C85.3308 483.95 87.1999 484.212 90.1345 488.404" stroke="#14D1A4" stroke-width="3.43487" stroke-linecap="round" stroke-linejoin="round"/>
<path d="M97.4698 455.729L95.3154 464.643C99.3325 471.221 107.404 471.878 111.254 471.191C111.642 468.697 113.49 464.543 114.366 462.778C110.714 457.367 101.58 455.824 97.4698 455.729Z" fill="#F7FFFD"/>
<path d="M61.9377 503.481C62.6741 508.241 68.1014 516.346 83.9193 510.68" stroke="#AAFEE7" stroke-width="3.43487"/>
<path d="M103.017 498.583C94.0221 502.339 88.7415 509.689 86.0969 512.824C88.5351 512.551 94.8016 509.896 97.6301 508.603L103.017 498.583Z" fill="#AAFEE7" stroke="#DAFFF5" stroke-width="1.14496"/>
<path d="M95.7599 466.312C99.3653 467.073 106.939 469.366 108.389 472.455C110.202 476.316 97.6978 472.408 95.7599 466.312Z" fill="white" stroke="#14D1A4" stroke-width="1.14496"/>
<path d="M95.6405 466.638C97.2506 470.334 100.217 478.391 99.2027 481.044C96.8891 479.135 92.9376 473.581 95.6405 466.638Z" fill="white" stroke="#14D1A4" stroke-width="1.14496"/>
<path d="M94.9017 466.043C91.5046 464.615 83.9728 462.188 81.0217 463.901C77.3327 466.042 89.8371 469.951 94.9017 466.043Z" stroke="#14D1A4" stroke-width="1.14496"/>
<path d="M94.8141 466.379C91.3853 468.501 84.3586 473.434 83.6816 476.193C86.6707 475.941 93.082 473.626 94.8141 466.379Z" stroke="#14D1A4" stroke-width="1.14496"/>
<path d="M95.7535 465.322C95.8411 465.353 95.9808 465.47 96.0515 465.795C96.1203 466.112 96.0977 466.545 95.9328 467.005C95.7677 467.465 95.5093 467.814 95.2549 468.015C94.9935 468.221 94.8117 468.222 94.7239 468.19C94.6362 468.159 94.4957 468.043 94.4249 467.717C94.356 467.4 94.3789 466.966 94.5439 466.506C94.709 466.047 94.9671 465.698 95.2215 465.497C95.4834 465.291 95.6658 465.29 95.7535 465.322Z" fill="#14D1A4" stroke="#14D1A4" stroke-width="1.14496"/>
<path d="M209.99 138.976C222.124 153.454 215.046 168.189 209.99 171.017C195.627 191.15 185.536 171.494 182.131 161.032C180.274 151.7 183.246 146.385 188.941 140.955C194.637 135.526 204.109 133.886 209.99 138.976Z" fill="#FF7CA6"/>
<mask id="mask6_10_0" style="mask-type:alpha" maskUnits="userSpaceOnUse" x="181" y="135" width="37" height="45">
<path d="M210.513 138.809C222.647 153.352 215.569 168.153 210.513 170.993C196.15 191.216 185.769 171.389 182.364 160.88C180.507 151.507 183.768 146.251 189.464 140.798C195.159 135.344 204.631 133.697 210.513 138.809Z" fill="#FF7CA6"/>
</mask>
<g mask="url(#mask6_10_0)">
<path d="M207.78 140.442C220.881 153.805 215.123 166.283 210.096 169.106C195.813 189.204 183.665 168.908 180.279 158.463C178.432 149.148 179.564 157.302 187.836 154.278C204.898 148.041 206.994 138.87 207.78 140.442Z" fill="#FEB3CB"/>
<path d="M207.78 142.276C221.667 161.142 212.574 168.533 207.518 171.361C193.155 191.493 181.839 166.626 178.434 156.163C181.578 156.687 184.195 161.263 192.583 156.949C201.753 152.233 201.753 153.543 207.78 142.276Z" fill="#FBC6D7"/>
<path d="M206.794 150.376C206.116 148.132 206.347 143.653 208.03 144.579C209.006 144.579 210.167 149.558 210.167 149.558C211.968 154.417 213.131 163.303 211.188 164.81C208.235 161.363 206.67 159.363 199.546 159.046C196.443 154.853 208.03 154.467 206.794 150.376Z" fill="#FEF2F7" fill-opacity="0.3"/>
</g>
<path d="M190.226 113.897C189.388 114.945 186.034 116.08 184.462 116.517C189.178 122.805 200.235 136.116 206.733 139.05C213.231 141.985 215.03 152.501 215.118 157.392C215.537 158.23 215.817 164.03 215.904 166.825C218.629 166.615 219.428 162.37 219.486 160.274C220.035 163.517 219.651 167.978 219.31 170.231C223.083 170.44 228.2 165.427 230.286 162.894C230.784 168.554 230.072 171.638 229.529 172.589C231.625 171.541 236.865 168.135 241.058 162.894C246.298 156.344 239.748 149.793 237.389 148.745C235.031 147.697 234.507 125.688 233.721 120.185C233.092 115.783 226.821 110.141 223.764 107.87C198.873 96.3413 191.274 112.587 190.226 113.897Z" fill="url(#paint14_linear_10_0)"/>
<path d="M218.53 147.792C217.063 146.324 213.377 149.713 211.98 151.984C211.114 153.294 210.67 157.486 215.91 155.128C221.15 152.77 220.364 149.626 218.53 147.792Z" fill="#FBC6D7" stroke="url(#paint15_linear_10_0)" stroke-width="1.14496"/>
<path fill-rule="evenodd" clip-rule="evenodd" d="M215.677 150.075C214.792 150.851 213.983 151.991 213.511 152.807C213.438 152.932 213.278 152.975 213.153 152.902C213.027 152.83 212.985 152.669 213.057 152.544C213.545 151.701 214.387 150.508 215.332 149.681C215.803 149.268 216.318 148.931 216.842 148.785C217.378 148.636 217.925 148.689 218.419 149.06C218.535 149.146 218.559 149.311 218.472 149.426C218.385 149.542 218.221 149.566 218.105 149.479C217.761 149.221 217.387 149.177 216.982 149.29C216.566 149.406 216.121 149.687 215.677 150.075ZM217.31 149.852C217.422 149.761 217.587 149.777 217.679 149.889C217.887 150.144 218.094 150.461 218.225 150.791C218.354 151.117 218.424 151.491 218.307 151.836C218.185 152.198 217.879 152.464 217.396 152.608C216.922 152.749 216.256 152.78 215.349 152.674C215.206 152.657 215.103 152.526 215.12 152.383C215.137 152.239 215.267 152.136 215.411 152.153C216.286 152.256 216.871 152.217 217.247 152.106C217.614 151.997 217.757 151.827 217.811 151.668C217.871 151.491 217.846 151.257 217.738 150.985C217.632 150.717 217.458 150.447 217.273 150.221C217.182 150.109 217.198 149.944 217.31 149.852Z" fill="#FC719A"/>
<path d="M190.488 149.613C174.557 159.674 163.5 146.207 159.832 137.822C168.74 128.913 167.175 130.301 174.767 126.031C178.959 123.673 181.055 124.459 182.627 115.288C185.981 115.917 202.541 118.171 208.305 129.961L210.139 130.223C232.149 133.997 234.944 123.848 233.459 118.433C243.73 135.621 220.707 137.56 208.305 136.25C207.257 138.608 206.419 139.551 190.488 149.613Z" fill="url(#paint16_linear_10_0)"/>
<mask id="mask7_10_0" style="mask-type:alpha" maskUnits="userSpaceOnUse" x="159" y="115" width="78" height="39">
<path d="M190.488 149.613C174.557 159.674 163.5 146.207 159.832 137.822C168.74 128.913 167.175 130.301 174.767 126.031C178.959 123.673 181.055 124.459 182.627 115.288C185.981 115.917 202.541 118.171 208.305 129.961L210.139 130.223C232.149 133.997 234.944 123.848 233.459 118.433C243.73 135.621 220.707 137.56 208.305 136.25C207.257 138.608 206.419 139.551 190.488 149.613Z" fill="url(#paint17_linear_10_0)"/>
</mask>
<g mask="url(#mask7_10_0)">
<path d="M174.243 159.046L200.969 146.207C195.99 141.49 185.771 146.197 178.959 139.646C172.146 133.096 179.483 128.38 172.671 126.284L151.447 136.512L174.243 159.046Z" fill="url(#paint18_linear_10_0)" fill-opacity="0.3"/>
<path d="M169.717 131.145C161.858 134.307 162.731 136.04 160.094 139.156L158.26 136.536L166.906 126.841L181.055 111.882C186.558 115.026 181.182 123.108 179.745 124.197C177.236 126.098 175.728 126.118 173.756 128.192C172.594 129.413 171.281 130.516 169.717 131.145Z" fill="#C1DBF7"/>
</g>
<path d="M182.365 124.983C182.627 128.302 189.44 133.973 205.685 136.332" stroke="#BAD4F6" stroke-width="1.14496" stroke-linecap="round" stroke-linejoin="round"/>
<path d="M194.615 124.335C190.47 123.339 188.81 122.435 186.755 120.086C186.009 122.138 187.55 126.304 188.556 126.375C188.768 126.39 192.664 124.228 194.615 124.335Z" fill="#B8D2F6"/>
<path d="M189.44 189.964C179.728 179.645 155.809 156.21 144.968 146.895C144.254 146.282 143.813 145.409 144.045 144.497C145.646 138.177 156.646 119.545 170.05 106.38C172.408 100.615 174.243 100.877 176.863 93.5408C178.959 87.6716 184.723 86.903 187.868 88.0384C188.916 88.4169 188.145 90.0266 186.295 90.3966C183.675 90.9207 181.841 93.5409 181.841 95.113C181.841 96.1933 180.793 102.974 188.392 99.8293C190.488 97.2091 191.798 101.663 183.413 107.69C176.863 110.572 158.259 138.315 160.356 139.656C165.873 141.294 173.797 154.049 191.536 159.046C210.139 164.286 227.432 175.291 221.144 189.964C214.856 204.637 202.017 203.327 189.44 189.964Z" fill="#FF7CA6"/>
<mask id="mask8_10_0" style="mask-type:alpha" maskUnits="userSpaceOnUse" x="143" y="87" width="80" height="114">
<path d="M189.44 189.964C179.728 179.645 155.809 156.21 144.968 146.895C144.254 146.282 143.813 145.409 144.045 144.497C145.646 138.177 156.646 119.545 170.05 106.38C172.408 100.615 174.243 100.877 176.863 93.5408C178.959 87.6716 184.723 86.903 187.868 88.0384C188.916 88.4169 188.145 90.0266 186.295 90.3966C183.675 90.9207 181.841 93.5409 181.841 95.113C181.841 96.1933 180.793 102.974 188.392 99.8293C190.488 97.2091 191.798 101.663 183.413 107.69C176.863 110.572 158.259 138.315 160.356 139.656C165.873 141.294 173.797 154.049 191.536 159.046C210.139 164.286 227.432 175.291 221.144 189.964C214.856 204.637 202.017 203.327 189.44 189.964Z" fill="#FF7CA6"/>
</mask>
<g mask="url(#mask8_10_0)">
<path d="M186.038 191.981C176.326 181.662 152.407 158.227 141.566 148.912C140.852 148.298 140.411 147.426 140.643 146.513C142.244 140.194 153.244 121.562 166.648 108.397C169.007 102.632 170.841 102.894 173.461 95.5576C175.557 89.6884 184.723 85.8549 187.868 86.9903C188.916 87.3688 189.194 90.2886 187.344 90.6586C184.723 91.1826 183.151 93.2118 182.627 95.046C182.331 96.0847 180.269 102.2 187.868 99.0556C189.964 96.4354 191.012 102.449 180.531 108.397C173.981 111.279 154.858 140.332 156.954 141.673C162.471 143.311 170.395 156.065 188.134 161.062C206.737 166.303 224.031 177.308 217.742 191.981C211.454 206.654 198.615 205.344 186.038 191.981Z" fill="#FEB3CB"/>
<mask id="mask9_10_0" style="mask-type:alpha" maskUnits="userSpaceOnUse" x="140" y="86" width="80" height="117">
<path d="M186.038 191.981C176.326 181.662 152.407 158.227 141.566 148.912C140.852 148.298 140.411 147.426 140.643 146.513C142.244 140.194 153.244 121.562 166.648 108.397C169.007 102.632 170.841 102.894 173.461 95.5576C175.557 89.6884 184.723 85.8549 187.868 86.9903C188.916 87.3688 189.194 90.2886 187.344 90.6586C184.723 91.1826 183.151 93.2118 182.627 95.046C182.331 96.0847 180.269 102.2 187.868 99.0556C189.964 96.4354 191.012 102.449 180.531 108.397C173.981 111.279 154.858 140.332 156.954 141.673C162.471 143.311 170.395 156.065 188.134 161.062C206.737 166.303 224.031 177.308 217.742 191.981C211.454 206.654 198.615 205.344 186.038 191.981Z" fill="#FEB3CB"/>
</mask>
<g mask="url(#mask9_10_0)">
<path d="M183.418 192.18C173.706 181.861 149.787 158.426 138.946 149.111C138.232 148.498 137.791 147.625 138.023 146.713C139.624 140.393 150.624 121.761 164.028 108.596C166.386 102.831 168.221 103.093 170.841 95.7569C172.937 89.8876 188.13 85.3309 191.274 86.4664C192.322 86.8448 193.37 92.8176 188.392 91.9688C185.758 91.5196 186.038 93.9227 185.514 95.7569C185.217 96.7956 182.103 100.615 189.702 97.4712C191.798 94.851 192.06 99.9087 181.579 105.856C175.029 108.738 152.237 140.531 154.334 141.872C159.851 143.51 167.775 156.265 185.514 161.262C204.117 166.502 221.411 177.507 215.122 192.18C208.834 206.853 195.995 205.543 183.418 192.18Z" fill="#FBC6D7"/>
<path d="M186.558 88.8245C192.584 93.5409 192.386 85.1562 188.392 84.3702C183.937 86.117 170.93 91.8639 169.463 92.4928C167.629 93.2788 141.228 147.255 139.132 148.827C137.455 150.085 150.748 158.26 155.639 165.596L210.139 206.733C211.449 201.231 207.886 198.82 203.065 196.514C197.038 193.632 193.108 192.06 190.488 187.344C187.868 182.627 175.815 170.837 170.312 165.596C164.81 160.356 146.993 147.779 146.993 143.849C146.993 141.115 155.377 127.865 164.81 113.716C176.863 102.974 180.513 84.0939 186.558 88.8245Z" fill="#FEF2F7"/>
</g>
</g>
<path d="M288.483 239.748C296.549 258.771 292.445 259.042 269.356 268.832C246.266 278.622 221.349 294.256 213.284 275.233C205.218 256.209 191.757 211.245 214.847 201.456C237.936 191.666 280.417 220.724 288.483 239.748Z" fill="url(#paint19_linear_10_0)"/>
<ellipse cx="251.841" cy="257.402" rx="47.2788" ry="40.9656" transform="rotate(-22.9766 251.841 257.402)" fill="url(#paint20_radial_10_0)" fill-opacity="0.5"/>
<ellipse cx="251.606" cy="258.009" rx="44.0173" ry="37.3158" transform="rotate(-22.9766 251.606 258.009)" fill="#38FF26" fill-opacity="0.2"/>
<ellipse cx="251.413" cy="256.955" rx="41.6611" ry="34.3245" transform="rotate(-22.9766 251.413 256.955)" fill="url(#paint21_radial_10_0)"/>
<mask id="mask10_10_0" style="mask-type:alpha" maskUnits="userSpaceOnUse" x="210" y="221" width="83" height="72">
<ellipse cx="251.413" cy="256.955" rx="41.6611" ry="34.3245" transform="rotate(-22.9766 251.413 256.955)" fill="#68FF92"/>
</mask>
<g mask="url(#mask10_10_0)">
<path d="M216.288 185.975C236.899 177.236 258.877 184.096 265.791 200.402C272.705 216.709 262.355 237.276 241.745 246.015C221.135 254.754 199.156 247.894 192.242 231.587C185.328 215.28 195.678 194.714 216.288 185.975Z" stroke="url(#paint22_radial_10_0)" stroke-width="3.43487"/>
<path d="M265.177 279.273C282.127 272.086 301.527 279.751 308.544 296.301C315.562 312.852 307.584 332.126 290.634 339.313C273.683 346.5 254.284 338.834 247.266 322.283C240.249 305.732 248.226 286.46 265.177 279.273Z" stroke="url(#paint23_linear_10_0)" stroke-width="3.43487"/>
</g>
</g>
<defs>
<linearGradient id="paint0_linear_10_0" x1="280.622" y1="6.28847" x2="237.127" y2="95.637" gradientUnits="userSpaceOnUse">
<stop stop-color="#FFFF97" stop-opacity="0.945806"/>
<stop offset="0.456015" stop-color="white"/>
<stop offset="1" stop-color="white" stop-opacity="0.4"/>
</linearGradient>
<linearGradient id="paint1_linear_10_0" x1="276.999" y1="333.531" x2="256.173" y2="472.477" gradientUnits="userSpaceOnUse">
<stop stop-color="#FF78A3"/>
<stop offset="1" stop-color="#FF8EB2"/>
</linearGradient>
<linearGradient id="paint2_linear_10_0" x1="219.581" y1="271.19" x2="197.3" y2="350.582" gradientUnits="userSpaceOnUse">
<stop stop-color="#78AEEC"/>
<stop offset="1" stop-color="#142AE9"/>
</linearGradient>
<linearGradient id="paint3_linear_10_0" x1="219.581" y1="271.19" x2="197.3" y2="350.582" gradientUnits="userSpaceOnUse">
<stop stop-color="#78AEEC"/>
<stop offset="1" stop-color="#142AE9"/>
</linearGradient>
<linearGradient id="paint4_linear_10_0" x1="237.389" y1="309.707" x2="225.598" y2="308.135" gradientUnits="userSpaceOnUse">
<stop stop-color="#C1C5FF"/>
<stop offset="1" stop-color="#C1C5FF" stop-opacity="0"/>
</linearGradient>
<linearGradient id="paint5_linear_10_0" x1="225.861" y1="297.13" x2="221.406" y2="309.183" gradientUnits="userSpaceOnUse">
<stop stop-color="#C1C5FF"/>
<stop offset="1" stop-color="#C7CAFF" stop-opacity="0"/>
</linearGradient>
<linearGradient id="paint6_linear_10_0" x1="185.51" y1="291.365" x2="181.841" y2="274.858" gradientUnits="userSpaceOnUse">
<stop stop-color="#DBF3F8"/>
<stop offset="1" stop-color="#99B5F3"/>
</linearGradient>
<linearGradient id="paint7_linear_10_0" x1="212.048" y1="162.976" x2="215.454" y2="305.776" gradientUnits="userSpaceOnUse">
<stop stop-color="#94BFFF"/>
<stop offset="1" stop-color="#0D25FE"/>
</linearGradient>
<linearGradient id="paint8_linear_10_0" x1="212.048" y1="162.976" x2="215.454" y2="305.776" gradientUnits="userSpaceOnUse">
<stop stop-color="#94BFFF"/>
<stop offset="1" stop-color="#0D25FE"/>
</linearGradient>
<linearGradient id="paint9_linear_10_0" x1="179.218" y1="237.865" x2="191.146" y2="288.409" gradientUnits="userSpaceOnUse">
<stop stop-color="#99B5F3"/>
<stop offset="1" stop-color="#DBF3F8"/>
</linearGradient>
<linearGradient id="paint10_linear_10_0" x1="206.449" y1="291.365" x2="188.632" y2="265.425" gradientUnits="userSpaceOnUse">
<stop stop-color="#C1C5FF"/>
<stop offset="1" stop-color="#C1C5FF" stop-opacity="0"/>
</linearGradient>
<linearGradient id="paint11_linear_10_0" x1="207.519" y1="277.74" x2="195.956" y2="260.454" gradientUnits="userSpaceOnUse">
<stop stop-color="#C1C5FF"/>
<stop offset="1" stop-color="#C1C5FF" stop-opacity="0"/>
</linearGradient>
<linearGradient id="paint12_linear_10_0" x1="231.625" y1="174.767" x2="235.862" y2="198.031" gradientUnits="userSpaceOnUse">
<stop stop-color="#C1C5FF"/>
<stop offset="1" stop-color="#C1C5FF" stop-opacity="0"/>
</linearGradient>
<linearGradient id="paint13_linear_10_0" x1="187.606" y1="211.696" x2="181.317" y2="178.42" gradientUnits="userSpaceOnUse">
<stop stop-color="#99B5F3"/>
<stop offset="1" stop-color="#DBF3F8"/>
</linearGradient>
<linearGradient id="paint14_linear_10_0" x1="213.546" y1="129.618" x2="213.75" y2="172.589" gradientUnits="userSpaceOnUse">
<stop stop-color="#050753"/>
<stop offset="1" stop-color="#008294"/>
</linearGradient>
<linearGradient id="paint15_linear_10_0" x1="218.524" y1="149.793" x2="212.498" y2="152.675" gradientUnits="userSpaceOnUse">
<stop stop-color="#FC719A"/>
<stop offset="1" stop-color="#FC719A" stop-opacity="0"/>
</linearGradient>
<linearGradient id="paint16_linear_10_0" x1="162.976" y1="150.923" x2="237.389" y2="127.341" gradientUnits="userSpaceOnUse">
<stop stop-color="#2B02CD"/>
<stop offset="0.511301" stop-color="#5899FF"/>
<stop offset="0.857583" stop-color="#5EC0DF"/>
<stop offset="1" stop-color="white"/>
</linearGradient>
<linearGradient id="paint17_linear_10_0" x1="201.755" y1="134.416" x2="242.106" y2="129.699" gradientUnits="userSpaceOnUse">
<stop stop-color="#02C3CD"/>
<stop offset="1" stop-color="white"/>
</linearGradient>
<linearGradient id="paint18_linear_10_0" x1="175.029" y1="150.923" x2="177.125" y2="131.272" gradientUnits="userSpaceOnUse">
<stop stop-color="white"/>
<stop offset="1" stop-color="#003BD5" stop-opacity="0"/>
<stop offset="1" stop-color="white"/>
</linearGradient>
<linearGradient id="paint19_linear_10_0" x1="214.594" y1="215.118" x2="258.517" y2="291.361" gradientUnits="userSpaceOnUse">
<stop stop-color="#F5FF7C" stop-opacity="0"/>
<stop offset="0.544444" stop-color="#00FF47"/>
<stop offset="1" stop-color="#00A72F"/>
</linearGradient>
<radialGradient id="paint20_radial_10_0" cx="0" cy="0" r="1" gradientUnits="userSpaceOnUse" gradientTransform="translate(252.408 307.601) rotate(-84.1426) scale(60.4717 69.8234)">
<stop stop-color="#FFEC3E"/>
<stop offset="1" stop-color="#1EB910" stop-opacity="0"/>
</radialGradient>
<radialGradient id="paint21_radial_10_0" cx="0" cy="0" r="1" gradientUnits="userSpaceOnUse" gradientTransform="translate(249.179 227.641) rotate(91.0357) scale(79.9416 97.0284)">
<stop stop-color="#F5FF7C"/>
<stop offset="0.546875" stop-color="#00FF47"/>
<stop offset="1" stop-color="#00A72F"/>
</radialGradient>
<radialGradient id="paint22_radial_10_0" cx="0" cy="0" r="1" gradientUnits="userSpaceOnUse" gradientTransform="translate(238.438 261.495) rotate(-100.46) scale(51.9572 63.0625)">
<stop stop-color="white"/>
<stop offset="1" stop-color="white" stop-opacity="0"/>
</radialGradient>
<linearGradient id="paint23_linear_10_0" x1="257.565" y1="264.115" x2="270.928" y2="289.531" gradientUnits="userSpaceOnUse">
<stop stop-color="white"/>
<stop offset="1" stop-color="white" stop-opacity="0"/>
</linearGradient>
<clipPath id="clip0_10_0">
<rect width="408.75" height="545" fill="white"/>
</clipPath>
<clipPath id="clip1_10_0">
<rect width="112.417" height="146.93" fill="white" transform="translate(209.582 -14.6731) rotate(26.2336)"/>
</clipPath>
</defs>
</svg>
