<svg width="128" height="38" viewBox="0 0 128 38" fill="none" xmlns="http://www.w3.org/2000/svg">
<path d="M27.0011 9.99998C24.2645 6.35665 19.9074 4 15 4C13.8087 4 12.6499 4.13887 11.5387 4.40132C11.5002 4.43883 11.4619 4.47663 11.4238 4.5147C9.74559 6.19293 8.6027 8.33113 8.13967 10.6589C7.67665 12.9867 7.91429 15.3995 8.82254 17.5922C9.73079 19.7849 11.2689 21.659 13.2423 22.9776C14.3696 23.7309 15.6101 24.2835 16.9091 24.6189V15.25C16.9091 12.3505 19.2596 9.99998 22.1591 9.99998H27.0011Z" fill="#30D354"/>
<path d="M28.7519 13H22.1591C20.9165 13 19.9091 14.0073 19.9091 15.25V25.75C19.9091 26.9926 18.8962 28.0173 17.6675 27.8316C15.4972 27.5035 13.4158 26.7016 11.5755 25.472C9.10881 23.8238 7.18622 21.4811 6.0509 18.7402C4.91559 15.9993 4.61854 12.9833 5.19732 10.0736C5.42127 8.94775 5.77246 7.85736 6.24041 6.82202C2.46067 9.54557 0 13.9854 0 19C0 27.2843 6.71573 34 15 34C23.2843 34 30 27.2843 30 19C30 16.8667 29.5547 14.8374 28.7519 13Z" fill="#30D354"/>
<path d="M58.6 10.35V13.15H53.725V28H50.2V13.15H45.35V10.35H58.6ZM73.5654 20.55C73.5654 20.9 73.5238 21.3 73.4404 21.75H63.2904C63.3404 22.9833 63.6738 23.8917 64.2904 24.475C64.9071 25.0583 65.6738 25.35 66.5904 25.35C67.4071 25.35 68.0821 25.15 68.6154 24.75C69.1654 24.35 69.5154 23.8083 69.6654 23.125H73.3904C73.2071 24.0917 72.8154 24.9583 72.2154 25.725C71.6154 26.4917 70.8404 27.0917 69.8904 27.525C68.9571 27.9583 67.9154 28.175 66.7654 28.175C65.4154 28.175 64.2154 27.8917 63.1654 27.325C62.1154 26.7417 61.2988 25.9167 60.7154 24.85C60.1321 23.7833 59.8404 22.525 59.8404 21.075C59.8404 19.625 60.1321 18.3667 60.7154 17.3C61.2988 16.2167 62.1154 15.3917 63.1654 14.825C64.2154 14.2583 65.4154 13.975 66.7654 13.975C68.1321 13.975 69.3238 14.2583 70.3404 14.825C71.3738 15.3917 72.1654 16.175 72.7154 17.175C73.2821 18.1583 73.5654 19.2833 73.5654 20.55ZM70.0154 20.2C70.0654 19.0667 69.7654 18.2083 69.1154 17.625C68.4821 17.0417 67.6988 16.75 66.7654 16.75C65.8154 16.75 65.0154 17.0417 64.3654 17.625C63.7154 18.2083 63.3571 19.0667 63.2904 20.2H70.0154ZM84.3178 13.95C85.9178 13.95 87.1928 14.475 88.1428 15.525C89.0928 16.575 89.5678 18.05 89.5678 19.95V28H86.0678V20.35C86.0678 19.25 85.7844 18.4 85.2178 17.8C84.6511 17.1833 83.8761 16.875 82.8928 16.875C81.8928 16.875 81.0928 17.2 80.4928 17.85C79.8928 18.5 79.5928 19.4333 79.5928 20.65V28H76.0678V14.15H79.5928V16.925C79.9594 15.9917 80.5594 15.2667 81.3928 14.75C82.2428 14.2167 83.2178 13.95 84.3178 13.95ZM100.919 13.95C102.519 13.95 103.794 14.475 104.744 15.525C105.694 16.575 106.169 18.05 106.169 19.95V28H102.669V20.35C102.669 19.25 102.386 18.4 101.819 17.8C101.253 17.1833 100.478 16.875 99.4943 16.875C98.4943 16.875 97.6943 17.2 97.0943 17.85C96.4943 18.5 96.1943 19.4333 96.1943 20.65V28H92.6693V14.15H96.1943V16.925C96.561 15.9917 97.161 15.2667 97.9943 14.75C98.8443 14.2167 99.8193 13.95 100.919 13.95ZM108.871 10.175C108.871 9.60833 109.071 9.15 109.471 8.8C109.871 8.43333 110.396 8.25 111.046 8.25C111.696 8.25 112.221 8.43333 112.621 8.8C113.021 9.15 113.221 9.60833 113.221 10.175C113.221 10.725 113.021 11.1833 112.621 11.55C112.221 11.9 111.696 12.075 111.046 12.075C110.396 12.075 109.871 11.9 109.471 11.55C109.071 11.1833 108.871 10.725 108.871 10.175ZM112.796 14.15V28H109.271V14.15H112.796ZM120.76 13.975C122.443 13.975 123.793 14.4 124.81 15.25C125.826 16.1 126.46 17.2333 126.71 18.65H123.41C123.276 17.9833 122.976 17.45 122.51 17.05C122.043 16.65 121.435 16.45 120.685 16.45C120.085 16.45 119.618 16.5917 119.285 16.875C118.951 17.1583 118.785 17.5417 118.785 18.025C118.785 18.4083 118.918 18.7167 119.185 18.95C119.451 19.1833 119.785 19.3667 120.185 19.5C120.585 19.6333 121.16 19.7917 121.91 19.975C122.96 20.2083 123.81 20.4583 124.46 20.725C125.126 20.975 125.693 21.3833 126.16 21.95C126.643 22.5 126.885 23.25 126.885 24.2C126.885 25.3833 126.418 26.3417 125.485 27.075C124.568 27.8083 123.326 28.175 121.76 28.175C119.96 28.175 118.518 27.775 117.435 26.975C116.351 26.1583 115.693 25 115.46 23.5H118.835C118.918 24.1833 119.218 24.725 119.735 25.125C120.251 25.5083 120.926 25.7 121.76 25.7C122.36 25.7 122.818 25.5583 123.135 25.275C123.451 24.975 123.61 24.5917 123.61 24.125C123.61 23.725 123.468 23.4 123.185 23.15C122.918 22.9 122.576 22.7083 122.16 22.575C121.76 22.4417 121.185 22.2833 120.435 22.1C119.401 21.8667 118.56 21.6333 117.91 21.4C117.276 21.15 116.726 20.7583 116.26 20.225C115.81 19.6917 115.585 18.9583 115.585 18.025C115.585 16.825 116.043 15.85 116.96 15.1C117.876 14.35 119.143 13.975 120.76 13.975Z" fill="#2C2745"/>
</svg>
