<svg width="24" height="24" viewBox="0 0 24 24" fill="none" xmlns="http://www.w3.org/2000/svg">
<path fill-rule="evenodd" clip-rule="evenodd" d="M11 3C7.13401 3 4 6.13401 4 10C4 13.866 7.13401 17 11 17C14.866 17 18 13.866 18 10C18 6.13401 14.866 3 11 3ZM3 10C3 5.58172 6.58172 2 11 2C15.4183 2 19 5.58172 19 10C19 14.4183 15.4183 18 11 18C6.58172 18 3 14.4183 3 10Z" fill="#1657FF"/>
<path fill-rule="evenodd" clip-rule="evenodd" d="M17.1464 16.1464C17.3417 15.9512 17.6583 15.9512 17.8536 16.1464L21.8536 20.1464C22.0488 20.3417 22.0488 20.6583 21.8536 20.8536C21.6583 21.0488 21.3417 21.0488 21.1464 20.8536L17.1464 16.8536C16.9512 16.6583 16.9512 16.3417 17.1464 16.1464Z" fill="#FF16A2"/>
</svg>
