<svg width="24" height="24" viewBox="0 0 24 24" fill="none" xmlns="http://www.w3.org/2000/svg">
<path fill-rule="evenodd" clip-rule="evenodd" d="M11.5 8C9.567 8 8 9.567 8 11.5C8 13.433 9.567 15 11.5 15C13.433 15 15 13.433 15 11.5C15 9.567 13.433 8 11.5 8ZM7 11.5C7 9.01472 9.01472 7 11.5 7C13.9853 7 16 9.01472 16 11.5C16 13.9853 13.9853 16 11.5 16C9.01472 16 7 13.9853 7 11.5Z" fill="#FF16A2"/>
<path fill-rule="evenodd" clip-rule="evenodd" d="M9.50534 2.86597C10.5845 1.71134 12.4155 1.71134 13.4947 2.86597L14.0538 3.46424L13.6885 3.80565L14.0538 3.46424C14.3949 3.82919 14.8771 4.02891 15.3763 4.01204L16.1947 3.98438C17.7743 3.931 19.069 5.22575 19.0156 6.80525L18.988 7.62368C18.9711 8.12292 19.1708 8.6051 19.5358 8.94619L20.134 9.50534C21.2887 10.5845 21.2887 12.4155 20.134 13.4947L19.5358 14.0538C19.1708 14.3949 18.9711 14.8771 18.988 15.3763L19.0156 16.1947C19.069 17.7743 17.7743 19.069 16.1947 19.0156L15.3763 18.988C14.8771 18.9711 14.3949 19.1708 14.0538 19.5358L13.4947 20.134C12.4155 21.2887 10.5845 21.2887 9.50534 20.134L8.94619 19.5358C8.6051 19.1708 8.12292 18.9711 7.62368 18.988L6.80526 19.0156C5.22575 19.069 3.931 17.7743 3.98438 16.1947L4.01204 15.3763C4.02891 14.8771 3.82919 14.3949 3.46424 14.0538L2.86597 13.4947C1.71134 12.4155 1.71134 10.5845 2.86597 9.50534L3.19813 9.86074L2.86597 9.50534L3.46424 8.94619C3.82919 8.6051 4.02891 8.12292 4.01204 7.62368L3.98438 6.80525C3.931 5.22575 5.22575 3.931 6.80525 3.98438L7.62368 4.01204C8.12292 4.02891 8.6051 3.82919 8.94619 3.46424L9.50534 2.86597ZM12.7641 3.54879C12.0802 2.81707 10.9198 2.81707 10.2359 3.54879L9.67677 4.14706C9.13855 4.72294 8.37769 5.03809 7.5899 5.01147L6.77148 4.98381C5.7705 4.94998 4.94998 5.7705 4.98381 6.77148L5.01147 7.5899C5.03809 8.37769 4.72294 9.13855 4.14706 9.67677L3.54879 10.2359C2.81707 10.9198 2.81707 12.0802 3.54879 12.7641L4.14706 13.3232C4.72294 13.8615 5.03809 14.6223 5.01147 15.4101L4.98381 16.2285C4.94998 17.2295 5.7705 18.05 6.77148 18.0162L7.5899 17.9885C8.37769 17.9619 9.13855 18.2771 9.67677 18.8529L10.2359 19.4512C10.9198 20.1829 12.0802 20.1829 12.7641 19.4512L13.3232 18.8529C13.8615 18.2771 14.6223 17.9619 15.4101 17.9885L16.2285 18.0162C17.2295 18.05 18.05 17.2295 18.0162 16.2285L17.9885 15.4101C17.9619 14.6223 18.2771 13.8615 18.8529 13.3232L19.4512 12.7641C20.1829 12.0802 20.1829 10.9198 19.4512 10.2359L18.8529 9.67677C18.2771 9.13855 17.9619 8.37769 17.9885 7.5899L18.0162 6.77148C18.05 5.7705 17.2295 4.94998 16.2285 4.98381L15.4101 5.01147C14.6223 5.03809 13.8615 4.72294 13.3232 4.14706L12.7641 3.54879L13.1294 3.20738L12.7641 3.54879Z" fill="#1657FF"/>
</svg>
