<svg width="32" height="29" viewBox="0 0 32 29" fill="none" xmlns="http://www.w3.org/2000/svg">
<path fill-rule="evenodd" clip-rule="evenodd" d="M0.833333 0.000213623C1.29357 0.000213623 1.66667 0.37331 1.66667 0.833547V26.6669H30.8333C31.2936 26.6669 31.6667 27.04 31.6667 27.5002C31.6667 27.9605 31.2936 28.3335 30.8333 28.3335H0.833333C0.373096 28.3335 0 27.9605 0 27.5002V0.833547C0 0.37331 0.373096 0.000213623 0.833333 0.000213623Z" fill="#1657FF"/>
<path fill-rule="evenodd" clip-rule="evenodd" d="M29.5115 0.0748985C29.9305 0.265346 30.1158 0.759389 29.9253 1.17837L21.592 19.5117C21.4567 19.8092 21.1601 20.0002 20.8333 20.0002H11.1785L6.42259 24.7561C6.09715 25.0816 5.56951 25.0816 5.24408 24.7561C4.91864 24.4307 4.91864 23.9031 5.24408 23.5776L10.2441 18.5776C10.4004 18.4213 10.6123 18.3335 10.8333 18.3335H20.2967L28.408 0.488701C28.5985 0.0697169 29.0925 -0.115549 29.5115 0.0748985Z" fill="#FF16A2"/>
</svg>
