<svg width="16" height="18" viewBox="0 0 16 18" fill="none" xmlns="http://www.w3.org/2000/svg">
<path fill-rule="evenodd" clip-rule="evenodd" d="M8.31114 1.16796C8.11223 0.944015 7.7624 0.944015 7.56349 1.16796L1.12898 8.41213C0.842538 8.73462 1.07147 9.24418 1.50281 9.24418H3.93745C4.21359 9.24418 4.43745 9.46804 4.43745 9.74418V15.9942C4.43745 16.2704 4.66131 16.4942 4.93745 16.4942H10.9374C11.2136 16.4942 11.4374 16.2704 11.4374 15.9942V9.74418C11.4374 9.46804 11.6613 9.24418 11.9374 9.24418H14.3718C14.8032 9.24418 15.0321 8.73462 14.7456 8.41213L8.31114 1.16796L8.68497 0.835911L8.31114 1.16796ZM6.81584 0.503866C7.41257 -0.167956 8.46206 -0.167955 9.0588 0.503866L15.4933 7.74804C16.3526 8.71552 15.6658 10.2442 14.3718 10.2442H12.4374V15.9942C12.4374 16.8227 11.7659 17.4942 10.9374 17.4942H4.93745C4.10902 17.4942 3.43745 16.8227 3.43745 15.9942V10.2442H1.50281C0.2088 10.2442 -0.47801 8.71552 0.38133 7.74804L6.81584 0.503866Z" fill="white"/>
</svg>
